<?xml version="1.0"?>
<COLLADA xmlns="http://www.collada.org/2005/11/COLLADASchema" version="1.4.1">
    <asset>
        <up_axis>Z_UP</up_axis>
    </asset>
    <library_materials>
        <material id="material0">
            <instance_effect url="#effect0"/>
        </material>
    </library_materials>
    <library_effects>
        <effect id="effect0">
            <profile_COMMON>
                <newparam sid="image0-surface">
                    <surface type="2D">
                        <init_from>image0</init_from>
                    </surface>
                </newparam>
                <newparam sid="image0-sampler">
                    <sampler2D>
                        <source>image0-surface</source>
                    </sampler2D>
                </newparam>
                <technique sid="technique-phong">
                    <phong>
                        <emission>
                            <color>1 1 1 1</color>
                        </emission>
                        <ambient>
                            <color>1 1 1 1</color>
                        </ambient>
                        <diffuse>
                            <texture texture="image0-sampler" texcoord="TEXCOORD"/>
                        </diffuse>
                        <specular>
                            <color>1 1 1 1</color>
                        </specular>
                        <shininess>
                            <float>0</float>
                        </shininess>
                    </phong>
                </technique>
                <extra>
                    <technique profile="GOOGLEEARTH">
                        <double_sided>0</double_sided>
                    </technique>
                </extra>
            </profile_COMMON>
        </effect>
    </library_effects>
    <library_images>
        <image id="image0" height="0" width="0">
            <init_from>8351.png</init_from>
        </image>
    </library_images>
    <library_geometries>
        <geometry id="geometry0">
            <mesh>
                <source id="geometry0-position">
                    <float_array id="geometry0-position-array" count="558">-41.1350000000002 20.79 -0.218942451483599 -30.2349999999997 18.9899999999998 -0.394971656800408 -21.9449999999997 18.6899999999996 -0.448298835752212 -9.14499999999953 20.5899999999997 -0.413222694392971 -8.54500000000007 14.8899999999999 -0.246046638487314 -4.44499999999971 14.79 -0.232852363586062 -1.94499999999971 19.29 -0.328272056578498 1.05500000000029 19.3899999999999 -0.326592063904172 5.15499999999975 15.0899999999997 -0.225169563293093 8.84500000000025 14.6899999999996 -0.218328285216558 9.64500000000044 20.8899999999999 -0.375805091858638 19.9449999999997 19.1899999999996 -0.409733772277832 27.3450000000003 18.9899999999998 -0.376381874084473 41.2349999999997 20.79 -0.344191551208496 41.5349999999999 5 -0.141680717462805 1.85500000000047 5.29999999999973 -0.0327756881706591 2.05500000000029 0 0.00474376678357658 18.7449999999999 0 0.0826471328728076 18.1450000000004 -6.30000000000018 -0.226339149478008 16.1450000000004 -11.5900000000001 -0.193568611146475 10.8450000000003 -16.8900000000003 -0.220645332336062 5.65499999999975 -20.0900000000001 -0.187475395203364 -2.84500000000025 -20.8900000000003 -0.0457128524758446 -8.84500000000025 -19.1900000000001 0.134073829649424 -13.2449999999999 -15.79 0.12770786285364 -16.5450000000001 -11.3900000000003 0.111927223204475 -18.7449999999999 -3.5 0.123092842104597 -18.9449999999997 0.599999999999909 0.217954826350251 -1.64499999999953 0.199999999999818 0.00038356781078619 -1.94499999999971 4.69999999999982 -0.0351522445671435 -41.5349999999999 5.19999999999982 -0.133233070378992 -41.1350000000002 20.79 -0.218942451483599 -30.2349999999997 18.9899999999998 -0.394971656800408 -30.2349999999997 18.9899999999998 -0.394971656800408 -21.9449999999997 18.6899999999996 -0.448298835752212 -21.9449999999997 18.6899999999996 -0.448298835752212 -9.14499999999953 20.5899999999997 -0.413222694392971 -9.14499999999953 20.5899999999997 -0.413222694392971 -8.54500000000007 14.8899999999999 -0.246046638487314 -8.54500000000007 14.8899999999999 -0.246046638487314 -4.44499999999971 14.79 -0.232852363586062 -4.44499999999971 14.79 -0.232852363586062 -1.94499999999971 19.29 -0.328272056578498 -1.94499999999971 19.29 -0.328272056578498 1.05500000000029 19.3899999999999 -0.326592063904172 1.05500000000029 19.3899999999999 -0.326592063904172 5.15499999999975 15.0899999999997 -0.225169563293093 5.15499999999975 15.0899999999997 -0.225169563293093 8.84500000000025 14.6899999999996 -0.218328285216558 8.84500000000025 14.6899999999996 -0.218328285216558 9.64500000000044 20.8899999999999 -0.375805091858638 9.64500000000044 20.8899999999999 -0.375805091858638 19.9449999999997 19.1899999999996 -0.409733772277832 19.9449999999997 19.1899999999996 -0.409733772277832 27.3450000000003 18.9899999999998 -0.376381874084473 27.3450000000003 18.9899999999998 -0.376381874084473 41.2349999999997 20.79 -0.344191551208496 41.2349999999997 20.79 -0.344191551208496 41.5349999999999 5 -0.141680717462805 41.5349999999999 5 -0.141680717462805 1.85500000000047 5.29999999999973 -0.0327756881706591 1.85500000000047 5.29999999999973 -0.0327756881706591 2.05500000000029 0 0.00474376678357658 2.05500000000029 0 0.00474376678357658 18.7449999999999 0 0.0826471328728076 18.7449999999999 0 0.0826471328728076 18.1450000000004 -6.30000000000018 -0.226339149478008 18.1450000000004 -6.30000000000018 -0.226339149478008 16.1450000000004 -11.5900000000001 -0.193568611146475 16.1450000000004 -11.5900000000001 -0.193568611146475 10.8450000000003 -16.8900000000003 -0.220645332336062 10.8450000000003 -16.8900000000003 -0.220645332336062 5.65499999999975 -20.0900000000001 -0.187475395203364 5.65499999999975 -20.0900000000001 -0.187475395203364 -2.84500000000025 -20.8900000000003 -0.0457128524758446 -2.84500000000025 -20.8900000000003 -0.0457128524758446 -8.84500000000025 -19.1900000000001 0.134073829649424 -8.84500000000025 -19.1900000000001 0.134073829649424 -13.2449999999999 -15.79 0.12770786285364 -13.2449999999999 -15.79 0.12770786285364 -16.5450000000001 -11.3900000000003 0.111927223204475 -16.5450000000001 -11.3900000000003 0.111927223204475 -18.7449999999999 -3.5 0.123092842104597 -18.7449999999999 -3.5 0.123092842104597 -18.9449999999997 0.599999999999909 0.217954826350251 -18.9449999999997 0.599999999999909 0.217954826350251 -1.64499999999953 0.199999999999818 0.00038356781078619 -1.64499999999953 0.199999999999818 0.00038356781078619 -1.94499999999971 4.69999999999982 -0.0351522445671435 -1.94499999999971 4.69999999999982 -0.0351522445671435 -41.5349999999999 5.19999999999982 -0.133233070378992 -41.5349999999999 5.19999999999982 -0.133233070378992 -41.1350000000002 20.79 -0.218942451483599 -41.1350000000002 20.79 15.640433189391 -30.2349999999997 18.9899999999998 15.640433189391 -30.2349999999997 18.9899999999998 15.640433189391 -21.9449999999997 18.6899999999996 15.640433189391 -21.9449999999997 18.6899999999996 15.640433189391 -9.14499999999953 20.5899999999997 15.640433189391 -9.14499999999953 20.5899999999997 15.640433189391 -8.54500000000007 14.8899999999999 15.640433189391 -8.54500000000007 14.8899999999999 15.640433189391 -4.44499999999971 14.79 15.640433189391 -4.44499999999971 14.79 15.640433189391 -1.94499999999971 19.29 15.640433189391 -1.94499999999971 19.29 15.640433189391 1.05500000000029 19.3899999999999 15.640433189391 1.05500000000029 19.3899999999999 15.640433189391 5.15499999999975 15.0899999999997 15.640433189391 5.15499999999975 15.0899999999997 15.640433189391 8.84500000000025 14.6899999999996 15.640433189391 8.84500000000025 14.6899999999996 15.640433189391 9.64500000000044 20.8899999999999 15.640433189391 9.64500000000044 20.8899999999999 15.640433189391 19.9449999999997 19.1899999999996 15.640433189391 19.9449999999997 19.1899999999996 15.640433189391 27.3450000000003 18.9899999999998 15.640433189391 27.3450000000003 18.9899999999998 15.640433189391 41.2349999999997 20.79 15.640433189391 41.2349999999997 20.79 15.640433189391 41.5349999999999 5 15.640433189391 41.5349999999999 5 15.640433189391 1.85500000000047 5.29999999999973 15.640433189391 1.85500000000047 5.29999999999973 15.640433189391 2.05500000000029 0 15.640433189391 2.05500000000029 0 15.640433189391 18.7449999999999 0 15.640433189391 18.7449999999999 0 15.640433189391 18.1450000000004 -6.30000000000018 15.640433189391 18.1450000000004 -6.30000000000018 15.640433189391 16.1450000000004 -11.5900000000001 15.640433189391 16.1450000000004 -11.5900000000001 15.640433189391 10.8450000000003 -16.8900000000003 15.640433189391 10.8450000000003 -16.8900000000003 15.640433189391 5.65499999999975 -20.0900000000001 15.640433189391 5.65499999999975 -20.0900000000001 15.640433189391 -2.84500000000025 -20.8900000000003 15.640433189391 -2.84500000000025 -20.8900000000003 15.640433189391 -8.84500000000025 -19.1900000000001 15.640433189391 -8.84500000000025 -19.1900000000001 15.640433189391 -13.2449999999999 -15.79 15.640433189391 -13.2449999999999 -15.79 15.640433189391 -16.5450000000001 -11.3900000000003 15.640433189391 -16.5450000000001 -11.3900000000003 15.640433189391 -18.7449999999999 -3.5 15.640433189391 -18.7449999999999 -3.5 15.640433189391 -18.9449999999997 0.599999999999909 15.640433189391 -18.9449999999997 0.599999999999909 15.640433189391 -1.64499999999953 0.199999999999818 15.640433189391 -1.64499999999953 0.199999999999818 15.640433189391 -1.94499999999971 4.69999999999982 15.640433189391 -1.94499999999971 4.69999999999982 15.640433189391 -41.5349999999999 5.19999999999982 15.640433189391 -41.5349999999999 5.19999999999982 15.640433189391 -41.1350000000002 20.79 15.640433189391 -41.1350000000002 20.79 15.640433189391 -30.2349999999997 18.9899999999998 15.640433189391 -21.9449999999997 18.6899999999996 15.640433189391 -9.14499999999953 20.5899999999997 15.640433189391 -8.54500000000007 14.8899999999999 15.640433189391 -4.44499999999971 14.79 15.640433189391 -1.94499999999971 19.29 15.640433189391 1.05500000000029 19.3899999999999 15.640433189391 5.15499999999975 15.0899999999997 15.640433189391 8.84500000000025 14.6899999999996 15.640433189391 9.64500000000044 20.8899999999999 15.640433189391 19.9449999999997 19.1899999999996 15.640433189391 27.3450000000003 18.9899999999998 15.640433189391 41.2349999999997 20.79 15.640433189391 41.5349999999999 5 15.640433189391 1.85500000000047 5.29999999999973 15.640433189391 2.05500000000029 0 15.640433189391 18.7449999999999 0 15.640433189391 18.1450000000004 -6.30000000000018 15.640433189391 16.1450000000004 -11.5900000000001 15.640433189391 10.8450000000003 -16.8900000000003 15.640433189391 5.65499999999975 -20.0900000000001 15.640433189391 -2.84500000000025 -20.8900000000003 15.640433189391 -8.84500000000025 -19.1900000000001 15.640433189391 -13.2449999999999 -15.79 15.640433189391 -16.5450000000001 -11.3900000000003 15.640433189391 -18.7449999999999 -3.5 15.640433189391 -18.9449999999997 0.599999999999909 15.640433189391 -1.64499999999953 0.199999999999818 15.640433189391 -1.94499999999971 4.69999999999982 15.640433189391 -41.5349999999999 5.19999999999982 15.640433189391</float_array>
                    <technique_common>
                        <accessor count="186" source="#geometry0-position-array" stride="3">
                            <param name="X" type="float"/>
                            <param name="Y" type="float"/>
                            <param name="Z" type="float"/>
                        </accessor>
                    </technique_common>
                </source>
                <source id="geometry0-normal">
                    <float_array id="geometry0-normal-array" count="558">-0.016982713523403 -0.00506111847903419 -0.999842973931969 -0.0119484870185536 -0.00918716111749705 -0.99988640841276 0.00337728185816019 -0.0204330017309676 -0.999785520202965 0.00698170644446444 -0.028581519054272 -0.999567082563083 0.00701225508867417 -0.020288513632774 -0.999769575698893 0.00210939604775688 -0.0203628919504561 -0.999790429579983 0.00129040108798478 -0.0219161550236922 -0.999758979461555 0.00139146190980276 -0.0220369317507198 -0.999756189014485 0.000885066710022371 -0.0206153601056009 -0.999787089126798 -0.00409948492943768 -0.0223800343615107 -0.999741130635972 -0.00732770138809614 -0.0244457025540192 -0.999674303170291 -0.00302891074557679 -0.0216316842317964 -0.99976141950817 0.00406844982256738 -0.0126482585233832 -0.999911730740452 0.00396941047067322 -0.0127486990134587 -0.999910853253419 -0.000166662912707118 -0.0177033620168801 -0.999843269316133 0.000752333690208004 -0.0151384857372042 -0.999885123523499 -0.00594903062031033 0.00964708278572949 -0.999935769351414 0.00466211368456159 0.0485430770096777 -0.998810209384358 -0.00498130052044765 0.023946770885019 -0.999700824651708 -0.0100190470696586 0.00492939098531033 -0.9999376579569 -0.00824151110043944 0.00905442998305387 -0.999925044587075 -0.0141753539069599 0.00702657187172989 -0.999874835481594 -0.0149540790280957 0.00413650574244367 -0.999879625175283 -0.015942999040022 -0.000973884147507622 -0.999872428028335 -0.0029907958802333 -0.00579289287085808 -0.999978748540283 -0.00501114786181922 -0.00318167274674329 -0.999982382522632 -0.00955433947975583 0.0109953918853505 -0.999893902348841 -0.0120510699589559 0.0225416526691322 -0.999673269427461 -0.00625226142781835 0.000190135973973389 -0.999980436346307 0.00432573029364878 -0.0170439229758648 -0.999845384420521 -0.00725186347446301 -0.0149451537601007 -0.999862016907951 0.162930958805132 0.986637472764359 0 0.0785618021980788 0.996909245235187 0 0.0785618021980788 0.996909245235187 0 -0.0861531278985395 0.996281907169501 0 -0.0861531278985395 0.996281907169501 0 -0.146828724135011 0.989161931014778 0 0.994505452921416 0.104684784517952 0 0.994505452921416 0.104684784517952 0 0.0243829924546842 0.999702690643051 0 0.0243829924546842 0.999702690643051 0 -0.874157276121538 0.485642931178632 0 -0.354120422471953 0.935199832329051 0 -0.354120422471953 0.935199832329051 0 0.510879366993843 0.859652413699845 0 0.510879366993843 0.859652413699845 0 0.33092397402874 0.94365741845917 0 0.33092397402874 0.94365741845917 0 0.107769743202634 0.994175881044214 0 -0.991777866634022 0.12797133763022 0 -0.991777866634022 0.12797133763022 0 0.162845409118805 0.98665159642547 0 0.0724432592606928 0.997372535308491 0 0.0724432592606928 0.997372535308491 0 -0.076878409838692 0.997040475658172 0 -0.076878409838692 0.997040475658172 0 -0.12851501892407 0.991707562697263 0 0.999819560881897 0.018995938458819 0 0.999819560881897 0.018995938458819 0 -0.00756026779813102 -0.999971420767024 0 -0.00756026779813102 -0.999971420767024 0 0.99928876235668 0.0377090099002197 0 0.99928876235668 0.0377090099002197 0 0 1 0 0 1 0 0.995495472593961 -0.0948090926279073 0 0.963004185516296 -0.269486435053966 0 0.963004185516296 -0.269486435053966 0 0.79907528904884 -0.601230972614945 0 0.79907528904884 -0.601230972614945 0 0.589133270085932 -0.808035884152342 0 0.589133270085932 -0.808035884152342 0 0.243060550667117 -0.970011117827728 0 0.243060550667117 -0.970011117827728 0 -0.152815402719885 -0.988254750907659 0 -0.152815402719885 -0.988254750907659 0 -0.506672015807771 -0.862138891593048 0 -0.506672015807771 -0.862138891593048 0 -0.743129999035497 -0.669147072423919 0 -0.743129999035497 -0.669147072423919 0 -0.922940993953588 -0.384941452275489 0 -0.922940993953588 -0.384941452275489 0 -0.992445140443798 -0.122689213908519 0 -0.992445140443798 -0.122689213908519 0 -0.998812351124899 -0.0487225537133665 0 0.0231152094300785 0.99973280785068 0 0.0231152094300785 0.99973280785068 0 -0.997785157856606 -0.0665190105238141 0 -0.997785157856606 -0.0665190105238141 0 -0.012628444784185 -0.999920258011774 0 -0.012628444784185 -0.999920258011774 0 -0.999671009469725 0.0256490316733498 0 -0.999671009469725 0.0256490316733498 0 0.162930958805132 0.986637472764359 0 0.120893699756674 0.992665458933242 0 0.120893699756674 0.992665458933242 0 -0.0249264432849581 0.999689287941589 0 -0.0249264432849581 0.999689287941589 0 -0.146828724135011 0.989161931014778 0 0.994505452921416 0.104684784517952 0 0.994505452921416 0.104684784517952 0 0.0243829924546842 0.999702690643051 0 0.0243829924546842 0.999702690643051 0 -0.874157276121538 0.485642931178632 0 -0.670620865442421 0.741800279612551 0 -0.670620865442421 0.741800279612551 0 0.237386716093839 0.971415228942898 0 0.237386716093839 0.971415228942898 0 0.547940366451082 0.836517396599409 0 0.547940366451082 0.836517396599409 0 0.107769743202634 0.994175881044214 0 -0.991777866634022 0.12797133763022 0 -0.991777866634022 0.12797133763022 0 0.162845409118805 0.98665159642547 0 0.117813294006985 0.993035763583177 0 0.117813294006985 0.993035763583177 0 -0.0248940736572353 0.999690094527673 0 -0.0248940736572353 0.999690094527673 0 -0.12851501892407 0.991707562697263 0 0.999819560881897 0.018995938458819 0 0.999819560881897 0.018995938458819 0 -0.00756026779813102 -0.999971420767024 0 -0.00756026779813102 -0.999971420767024 0 0.99928876235668 0.0377090099002197 0 0.99928876235668 0.0377090099002197 0 0 1 0 0 1 0 0.995495472593961 -0.0948090926279073 0 0.983201379273244 -0.182524101956947 0 0.983201379273244 -0.182524101956947 0 0.876709270938696 -0.481020638070905 0 0.876709270938696 -0.481020638070905 0 0.650260234886265 -0.75971154191947 0 0.650260234886265 -0.75971154191947 0 0.390188196834751 -0.920735125348678 0 0.390188196834751 -0.920735125348678 0 -0.0288352965667566 -0.999584176381313 0 -0.0288352965667566 -0.999584176381313 0 -0.391871934587283 -0.92001977526726 0 -0.391871934587283 -0.92001977526726 0 -0.679769228194007 -0.733426067440014 0 -0.679769228194007 -0.733426067440014 0 -0.867678111673097 -0.497126437160013 0 -0.867678111673097 -0.497126437160013 0 -0.980526846446231 -0.196385089551648 0 -0.980526846446231 -0.196385089551648 0 -0.998812351124899 -0.0487225537133665 0 0.0231152094300785 0.99973280785068 0 0.0231152094300785 0.99973280785068 0 -0.997785157856606 -0.0665190105238141 0 -0.997785157856606 -0.0665190105238141 0 -0.012628444784185 -0.999920258011774 0 -0.012628444784185 -0.999920258011774 0 -0.999671009469725 0.0256490316733498 0 -0.999671009469725 0.0256490316733498 0 0 0 1 0 0 1 0 0 1 0 0 1 0 0 1 0 0 1 0 0 1 0 0 1 0 0 1 0 0 1 0 0 1 0 0 1 0 0 1 0 0 1 0 0 1 0 0 1 0 0 1 0 0 1 0 0 1 0 0 1 0 0 1 0 0 1 0 0 1 0 0 1 0 0 1 0 0 1 0 0 1 0 0 1 0 0 1 0 0 1 0 0 1</float_array>
                    <technique_common>
                        <accessor count="186" source="#geometry0-normal-array" stride="3">
                            <param name="X" type="float"/>
                            <param name="Y" type="float"/>
                            <param name="Z" type="float"/>
                        </accessor>
                    </technique_common>
                </source>
                <source id="geometry0-texcoord">
                    <float_array id="geometry0-texcoord-array" count="372">0 0 0 0 0 0 0 0 0 0 0 0 0 0 0 0 0 0 0 0 0 0 0 0 0 0 0 0 0 0 0 0 0 0 0 0 0 0 0 0 0 0 0 0 0 0 0 0 0 0 0 0 0 0 0 0 0 0 0 0 0 0 0.0625 0.000988281250000001 0 0 0.046875 0.09014345703125 0 0.08984375 0.072265625 0.1806640625 0 0.18086171875 0.1005859375 0 0.0625 0.00110703125 0.0234375 0.2705078125 0 0.2705796875 0.025390625 0.3608203125 0 0.3603515625 0.0400390625 0.2705078125 0.0234375 0.2705166015625 0.0322265625 0.4384765625 0 0.4390265625 0.0205078125 0.5244140625 0 0.524448828125 0.03515625 0.61220859375 0 0.611328125 0.0908203125 0.358587109375 0.0322265625 0.3583984375 0.07421875 0.4482421875 0.0322265625 0.44843291015625 0.1513671875 0.1064453125 0.072265625 0.106625 0.205078125 0 0.1005859375 0.001339453125 0.33203125 0.1962890625 0.072265625 0.1970033203125 0.240234375 0 0.205078125 0.000248437499999996 0.205078125 0.103515625 0.30078125 0.10396484375 0.3427734375 0.00203759765625 0.30078125 0 0.27734375 0 0.240234375 0.000217382812499999 0.0478515625 0.70134287109375 0 0.701171875 0.0751953125 0.5390625 0.03515625 0.5392798828125 0.0556640625 0.8017578125 0 0.8026806640625 0.037109375 0.904296875 0 0.90536376953125 0.06640625 0.270537109375 0.0400390625 0.2705078125 0.1806640625 0.10555078125 0.1513671875 0.10546875 0.3466796875 0.1044921875 0.30078125 0.10455302734375 0.203125 0.10546875 0.1806640625 0.1059810546875 0.44140625 0.001248828125 0.3427734375 0 0.099609375 0.4484443359375 0.07421875 0.4482421875 0.3505859375 0.300446484375 0.0908203125 0.2998046875 0.41796875 0.1918755859375 0.33203125 0.19140625 0.0625 0.08984375 0 0.08984375 0.046875 0.1806640625 0 0.1806640625 0.072265625 0.2705078125 0 0.2705078125 0.1005859375 0.1064453125 0.0625 0.1064453125 0.0234375 0.3603515625 0 0.3603515625 0.025390625 0.4384765625 0 0.4384765625 0.0400390625 0.3583984375 0.0234375 0.3583984375 0.0322265625 0.5244140625 0 0.5244140625 0.0205078125 0.611328125 0 0.611328125 0.03515625 0.701171875 0 0.701171875 0.0908203125 0.4482421875 0.0322265625 0.4482421875 0.07421875 0.5390625 0.0322265625 0.5390625 0.1513671875 0.1962890625 0.072265625 0.1962890625 0.205078125 0.10546875 0.1005859375 0.10546875 0.33203125 0.2998046875 0.072265625 0.2998046875 0.240234375 0.103515625 0.205078125 0.103515625 0.205078125 0.193359375 0.30078125 0.193359375 0.3427734375 0.1044921875 0.30078125 0.1044921875 0.27734375 0.103515625 0.240234375 0.103515625 0.0478515625 0.8017578125 0 0.8017578125 0.0751953125 0.642578125 0.03515625 0.642578125 0.0556640625 0.904296875 0 0.904296875 0.037109375 0.9970703125 0 0.9970703125 0.06640625 0.34375 0.0400390625 0.34375 0.1806640625 0.1875 0.1513671875 0.1875 0.3466796875 0.19140625 0.30078125 0.19140625 0.203125 0.189453125 0.1806640625 0.189453125 0.44140625 0.08984375 0.3427734375 0.08984375 0.099609375 0.5361328125 0.07421875 0.5361328125 0.3505859375 0.4033203125 0.0908203125 0.4033203125 0.41796875 0.2783203125 0.33203125 0.2783203125 0.079692899264027 0.944722833382745 0.186266150841557 0.927102755817111 0.267320486215655 0.924166076222837 0.392470726600272 0.942765046986561 0.398337144118296 0.886968134695394 0.438424330491497 0.885989241497304 0.462867736816617 0.930039435411385 0.492199824406761 0.931018328609474 0.532287010779953 0.888925921091573 0.568365478515836 0.88501034829921 0.576187368539876 0.945701726580835 0.676894202599364 0.92906054221329 0.749246685321725 0.927102755817111 0.885054250864088 0.944722833382745 0.887987459623104 0.790155597404227 0.500021714430801 0.793092276998496 0.501977186936809 0.741210937499693 0.665161367563308 0.741210937499693 0.659294950045285 0.679540666019978 0.639740224985188 0.627757215840982 0.587920203575932 0.575875876342174 0.537175692044977 0.544551294003274 0.454068110539568 0.536720148418547 0.39540393535928 0.553361332786091 0.352383540227072 0.586643701521175 0.320118243877911 0.629715002237161 0.298608046311807 0.706949675566519 0.296652573805799 0.747084296688236 0.465800945575633 0.743168723895872 0.462867736816617 0.787218917809953 0.0757819542520113 0.792113383800406</float_array>
                    <technique_common>
                        <accessor count="186" source="#geometry0-texcoord-array" stride="2">
                            <param name="S" type="float"/>
                            <param name="T" type="float"/>
                        </accessor>
                    </technique_common>
                </source>
                <vertices id="geometry0-vertex">
                    <input semantic="POSITION" source="#geometry0-position"/>
                    <input semantic="NORMAL" source="#geometry0-normal"/>
                </vertices>
                <triangles count="120" material="material0-symbol">
                    <input offset="0" semantic="VERTEX" source="#geometry0-vertex" set="0"/>
                    <input offset="0" semantic="TEXCOORD" source="#geometry0-texcoord" set="0"/>
                    <p>21 22 16 23 28 22 20 16 19 24 28 23 19 16 18 25 28 24 18 16 17 26 28 25 15 16 28 16 20 21 14 15 9 28 16 22 29 30 2 27 28 26 4 29 2 29 15 28 12 13 14 5 8 15 5 15 29 3 4 2 4 5 29 8 5 7 8 9 15 2 30 1 11 12 14 14 9 11 6 7 5 0 1 30 10 11 9 31 94 32 31 93 94 33 96 34 33 95 96 35 98 36 35 97 98 37 100 38 37 99 100 39 102 40 39 101 102 41 104 42 41 103 104 43 106 44 43 105 106 45 108 46 45 107 108 47 110 48 47 109 110 49 112 50 49 111 112 51 114 52 51 113 114 53 116 54 53 115 116 55 118 56 55 117 118 57 120 58 57 119 120 59 122 60 59 121 122 61 124 62 61 123 124 63 126 64 63 125 126 65 128 66 65 127 128 67 130 68 67 129 130 69 132 70 69 131 132 71 134 72 71 133 134 73 136 74 73 135 136 75 138 76 75 137 138 77 140 78 77 139 140 79 142 80 79 141 142 81 144 82 81 143 144 83 146 84 83 145 146 85 148 86 85 147 148 87 150 88 87 149 150 89 152 90 89 151 152 91 154 92 91 153 154 176 171 177 178 177 183 175 174 171 179 178 183 174 173 171 180 179 183 173 172 171 181 180 183 170 183 171 171 176 175 169 164 170 183 177 171 184 157 185 182 181 183 159 157 184 184 183 170 167 169 168 160 170 163 160 184 170 158 157 159 159 184 160 163 162 160 163 170 164 157 156 185 166 169 167 169 166 164 161 160 162 155 185 156 165 164 166</p>
                </triangles>
            </mesh>
        </geometry>
    </library_geometries>
    <library_visual_scenes>
        <visual_scene id="visual-scene">
            <node>
                <instance_geometry url="#geometry0">
                    <bind_material>
                        <technique_common>
                            <instance_material symbol="material0-symbol" target="#material0"/>
                        </technique_common>
                    </bind_material>
                </instance_geometry>
            </node>
        </visual_scene>
    </library_visual_scenes>
    <scene>
        <instance_visual_scene url="#visual-scene"/>
    </scene>
</COLLADA>
