<?xml version="1.0"?>
<COLLADA xmlns="http://www.collada.org/2005/11/COLLADASchema" version="1.4.1">
    <asset>
        <up_axis>Z_UP</up_axis>
    </asset>
    <library_materials>
        <material id="material0">
            <instance_effect url="#effect0"/>
        </material>
    </library_materials>
    <library_effects>
        <effect id="effect0">
            <profile_COMMON>
                <newparam sid="image0-surface">
                    <surface type="2D">
                        <init_from>image0</init_from>
                    </surface>
                </newparam>
                <newparam sid="image0-sampler">
                    <sampler2D>
                        <source>image0-surface</source>
                    </sampler2D>
                </newparam>
                <technique sid="technique-phong">
                    <phong>
                        <emission>
                            <color>1 1 1 1</color>
                        </emission>
                        <ambient>
                            <color>1 1 1 1</color>
                        </ambient>
                        <diffuse>
                            <texture texture="image0-sampler" texcoord="TEXCOORD"/>
                        </diffuse>
                        <specular>
                            <color>1 1 1 1</color>
                        </specular>
                        <shininess>
                            <float>0</float>
                        </shininess>
                    </phong>
                </technique>
                <extra>
                    <technique profile="GOOGLEEARTH">
                        <double_sided>0</double_sided>
                    </technique>
                </extra>
            </profile_COMMON>
        </effect>
    </library_effects>
    <library_images>
        <image id="image0" height="0" width="0">
            <init_from>10158.png</init_from>
        </image>
    </library_images>
    <library_geometries>
        <geometry id="geometry0">
            <mesh>
                <source id="geometry0-position">
                    <float_array id="geometry0-position-array" count="588">-17.4199999999996 4.29999999999973 -0.117841339108054 -14.9099999999999 9.29999999999973 -0.127699279784792 -9.71000000000004 16.0999999999999 0.0547317504897364 -1 10.0999999999999 0.0797836303718213 -1.39999999999964 9 0.067475891115464 0.400000000000091 8 0.100251770021714 2.40000000000009 8.5 0.153090667721699 2.30000000000018 9.40000000000009 0.170771789551509 8.11000000000013 12.0999999999999 0.335995483394072 8.21000000000004 12.7999999999997 0.372573852539063 11.4100000000003 13.9000000000001 0.52117767333948 12.4100000000003 13.4000000000001 0.291546630844095 17.4200000000001 1.79999999999973 0.15918273925854 7.61000000000013 -3.09999999999991 0.155780029308517 6.01000000000022 -2.40000000000009 0.100326538085938 5 -5.09999999999991 0.0534957885756739 5.80000000000018 -5.09999999999991 0.0913627624522633 4.70000000000027 -15.3000000000002 -0.212503814695083 3.40000000000009 -16.0999999999999 -0.602400970461531 -4.19999999999982 -15.5999999999999 -1.2533412933426 -4.19999999999982 -14.7000000000003 -1.0852241516186 -8.21000000000004 -14.5999999999999 -1.58495178224257 -9.00999999999976 -13.9000000000001 -1.31179656985296 -9.00999999999976 -10.8000000000002 -0.290220642094937 -8.10999999999967 -10.8000000000002 -0.342543792730794 -7.30999999999995 -3.90000000000009 -0.131500244140625 -6.30999999999995 -4 -0.131697082519167 -6.30999999999995 -1.5 -0.0914718627918774 -7.80999999999995 -0.599999999999909 -0.0893310546871362 -8.60999999999967 -1.20000000000027 -0.0982467651374463 -13.71 2.69999999999982 -0.0997711181626073 -14.21 2.29999999999973 -0.102191162110103 -17.4199999999996 4.29999999999973 -0.117841339108054 -14.9099999999999 9.29999999999973 -0.127699279784792 -14.9099999999999 9.29999999999973 -0.127699279784792 -9.71000000000004 16.0999999999999 0.0547317504897364 -9.71000000000004 16.0999999999999 0.0547317504897364 -1 10.0999999999999 0.0797836303718213 -1 10.0999999999999 0.0797836303718213 -1.39999999999964 9 0.067475891115464 -1.39999999999964 9 0.067475891115464 0.400000000000091 8 0.100251770021714 0.400000000000091 8 0.100251770021714 2.40000000000009 8.5 0.153090667721699 2.40000000000009 8.5 0.153090667721699 2.30000000000018 9.40000000000009 0.170771789551509 2.30000000000018 9.40000000000009 0.170771789551509 8.11000000000013 12.0999999999999 0.335995483394072 8.11000000000013 12.0999999999999 0.335995483394072 8.21000000000004 12.7999999999997 0.372573852539063 8.21000000000004 12.7999999999997 0.372573852539063 11.4100000000003 13.9000000000001 0.52117767333948 11.4100000000003 13.9000000000001 0.52117767333948 12.4100000000003 13.4000000000001 0.291546630844095 12.4100000000003 13.4000000000001 0.291546630844095 17.4200000000001 1.79999999999973 0.15918273925854 17.4200000000001 1.79999999999973 0.15918273925854 7.61000000000013 -3.09999999999991 0.155780029308517 7.61000000000013 -3.09999999999991 0.155780029308517 6.01000000000022 -2.40000000000009 0.100326538085938 6.01000000000022 -2.40000000000009 0.100326538085938 5 -5.09999999999991 0.0534957885756739 5 -5.09999999999991 0.0534957885756739 5.80000000000018 -5.09999999999991 0.0913627624522633 5.80000000000018 -5.09999999999991 0.0913627624522633 4.70000000000027 -15.3000000000002 -0.212503814695083 4.70000000000027 -15.3000000000002 -0.212503814695083 3.40000000000009 -16.0999999999999 -0.602400970461531 3.40000000000009 -16.0999999999999 -0.602400970461531 -4.19999999999982 -15.5999999999999 -1.2533412933426 -4.19999999999982 -15.5999999999999 -1.2533412933426 -4.19999999999982 -14.7000000000003 -1.0852241516186 -4.19999999999982 -14.7000000000003 -1.0852241516186 -8.21000000000004 -14.5999999999999 -1.58495178224257 -8.21000000000004 -14.5999999999999 -1.58495178224257 -9.00999999999976 -13.9000000000001 -1.31179656985296 -9.00999999999976 -13.9000000000001 -1.31179656985296 -9.00999999999976 -10.8000000000002 -0.290220642094937 -9.00999999999976 -10.8000000000002 -0.290220642094937 -8.10999999999967 -10.8000000000002 -0.342543792730794 -8.10999999999967 -10.8000000000002 -0.342543792730794 -7.30999999999995 -3.90000000000009 -0.131500244140625 -7.30999999999995 -3.90000000000009 -0.131500244140625 -6.30999999999995 -4 -0.131697082519167 -6.30999999999995 -4 -0.131697082519167 -6.30999999999995 -1.5 -0.0914718627918774 -6.30999999999995 -1.5 -0.0914718627918774 -7.80999999999995 -0.599999999999909 -0.0893310546871362 -7.80999999999995 -0.599999999999909 -0.0893310546871362 -8.60999999999967 -1.20000000000027 -0.0982467651374463 -8.60999999999967 -1.20000000000027 -0.0982467651374463 -13.71 2.69999999999982 -0.0997711181626073 -13.71 2.69999999999982 -0.0997711181626073 -14.21 2.29999999999973 -0.102191162110103 -14.21 2.29999999999973 -0.102191162110103 -17.4199999999996 4.29999999999973 -0.117841339108054 -17.4199999999996 4.29999999999973 25.2564264526374 -14.9099999999999 9.29999999999973 25.2564264526374 -14.9099999999999 9.29999999999973 25.2564264526374 -9.71000000000004 16.0999999999999 25.2564264526374 -9.71000000000004 16.0999999999999 25.2564264526374 -1 10.0999999999999 25.2564264526374 -1 10.0999999999999 25.2564264526374 -1.39999999999964 9 25.2564264526374 -1.39999999999964 9 25.2564264526374 0.400000000000091 8 25.2564264526374 0.400000000000091 8 25.2564264526374 2.40000000000009 8.5 25.2564264526374 2.40000000000009 8.5 25.2564264526374 2.30000000000018 9.40000000000009 25.2564264526374 2.30000000000018 9.40000000000009 25.2564264526374 8.11000000000013 12.0999999999999 25.2564264526374 8.11000000000013 12.0999999999999 25.2564264526374 8.21000000000004 12.7999999999997 25.2564264526374 8.21000000000004 12.7999999999997 25.2564264526374 11.4100000000003 13.9000000000001 25.2564264526374 11.4100000000003 13.9000000000001 25.2564264526374 12.4100000000003 13.4000000000001 25.2564264526374 12.4100000000003 13.4000000000001 25.2564264526374 17.4200000000001 1.79999999999973 25.2564264526374 17.4200000000001 1.79999999999973 25.2564264526374 7.61000000000013 -3.09999999999991 25.2564264526374 7.61000000000013 -3.09999999999991 25.2564264526374 6.01000000000022 -2.40000000000009 25.2564264526374 6.01000000000022 -2.40000000000009 25.2564264526374 5 -5.09999999999991 25.2564264526374 5 -5.09999999999991 25.2564264526374 5.80000000000018 -5.09999999999991 25.2564264526374 5.80000000000018 -5.09999999999991 25.2564264526374 4.70000000000027 -15.3000000000002 25.2564264526374 4.70000000000027 -15.3000000000002 25.2564264526374 3.40000000000009 -16.0999999999999 25.2564264526374 3.40000000000009 -16.0999999999999 25.2564264526374 -4.19999999999982 -15.5999999999999 25.2564264526374 -4.19999999999982 -15.5999999999999 25.2564264526374 -4.19999999999982 -14.7000000000003 25.2564264526374 -4.19999999999982 -14.7000000000003 25.2564264526374 -8.21000000000004 -14.5999999999999 25.2564264526374 -8.21000000000004 -14.5999999999999 25.2564264526374 -9.00999999999976 -13.9000000000001 25.2564264526374 -9.00999999999976 -13.9000000000001 25.2564264526374 -9.00999999999976 -10.8000000000002 25.2564264526374 -9.00999999999976 -10.8000000000002 25.2564264526374 -8.10999999999967 -10.8000000000002 25.2564264526374 -8.10999999999967 -10.8000000000002 25.2564264526374 -7.30999999999995 -3.90000000000009 25.2564264526374 -7.30999999999995 -3.90000000000009 25.2564264526374 -6.30999999999995 -4 25.2564264526374 -6.30999999999995 -4 25.2564264526374 -6.30999999999995 -1.5 25.2564264526374 -6.30999999999995 -1.5 25.2564264526374 -7.80999999999995 -0.599999999999909 25.2564264526374 -7.80999999999995 -0.599999999999909 25.2564264526374 -8.60999999999967 -1.20000000000027 25.2564264526374 -8.60999999999967 -1.20000000000027 25.2564264526374 -13.71 2.69999999999982 25.2564264526374 -13.71 2.69999999999982 25.2564264526374 -14.21 2.29999999999973 25.2564264526374 -14.21 2.29999999999973 25.2564264526374 -17.4199999999996 4.29999999999973 25.2564264526374 -17.4199999999996 4.29999999999973 25.2564264526374 -14.9099999999999 9.29999999999973 25.2564264526374 -9.71000000000004 16.0999999999999 25.2564264526374 -1 10.0999999999999 25.2564264526374 -1.39999999999964 9 25.2564264526374 0.400000000000091 8 25.2564264526374 2.40000000000009 8.5 25.2564264526374 2.30000000000018 9.40000000000009 25.2564264526374 8.11000000000013 12.0999999999999 25.2564264526374 8.21000000000004 12.7999999999997 25.2564264526374 11.4100000000003 13.9000000000001 25.2564264526374 12.4100000000003 13.4000000000001 25.2564264526374 17.4200000000001 1.79999999999973 25.2564264526374 7.61000000000013 -3.09999999999991 25.2564264526374 6.01000000000022 -2.40000000000009 25.2564264526374 5 -5.09999999999991 25.2564264526374 5.80000000000018 -5.09999999999991 25.2564264526374 4.70000000000027 -15.3000000000002 25.2564264526374 3.40000000000009 -16.0999999999999 25.2564264526374 -4.19999999999982 -15.5999999999999 25.2564264526374 -4.19999999999982 -14.7000000000003 25.2564264526374 -8.21000000000004 -14.5999999999999 25.2564264526374 -9.00999999999976 -13.9000000000001 25.2564264526374 -9.00999999999976 -10.8000000000002 25.2564264526374 -8.10999999999967 -10.8000000000002 25.2564264526374 -7.30999999999995 -3.90000000000009 25.2564264526374 -6.30999999999995 -4 25.2564264526374 -6.30999999999995 -1.5 25.2564264526374 -7.80999999999995 -0.599999999999909 25.2564264526374 -8.60999999999967 -1.20000000000027 25.2564264526374 -13.71 2.69999999999982 25.2564264526374 -14.21 2.29999999999973 25.2564264526374 -1.19814365466527 -8.81218134087067 26.317117503127 -8.39060915373511 7.05738494135858 26.3317411567286 -0.998407685071015 1.85785358918565 26.4084942844055 9.06071352078925 5.30362826098553 26.2479435994156</float_array>
                    <technique_common>
                        <accessor count="196" source="#geometry0-position-array" stride="3">
                            <param name="X" type="float"/>
                            <param name="Y" type="float"/>
                            <param name="Z" type="float"/>
                        </accessor>
                    </technique_common>
                </source>
                <source id="geometry0-normal">
                    <float_array id="geometry0-normal-array" count="588">0.00408239203877104 -0.00182772857476068 -0.999989996691716 0.0108346113590812 0.00342408775304786 -0.999935441325967 0.0116256387494973 0.0118122067333365 -0.99986264871519 0.00846311129689003 0.00811059011855301 -0.999931294677342 0.0121173518312995 0.0084404971893744 -0.999890957950812 0.0202006406855086 0.00884554670355158 -0.999756815640389 0.0218641617400485 0.0156669142017536 -0.999638187661316 0.018352712044361 0.0216769553388208 -0.99959656240298 0.000614609434466964 0.0536342622058041 -0.998560457945778 0.0298989201108328 0.0479001683759709 -0.998404541478934 -0.0299432568038712 0.15646121180434 -0.987230110244159 -0.0512286561686839 0.135618410762098 -0.989435834932975 -0.00893066061553489 0.00909261487062724 -0.999918780529591 0.0167942070820192 0.0113014094451351 -0.999795095383569 0.023815713624925 0.011165284724486 -0.999654014247708 0.0765287105435637 0.0354056674495022 -0.996438555644549 0.0472664132137011 0.024651122811395 -0.998578093253627 0.1635996923097 0.0209094982671267 -0.986305192908558 0.149641059118696 0.0834247477713563 -0.985214628842427 0.0958309714077779 0.182775655855227 -0.978473037209372 0.0391829691790586 0.140085375062366 -0.989363827224318 0.0370973248972672 0.309665510007005 -0.950121602952784 -0.0532401675249552 0.312040620594413 -0.948575846024433 -0.0551319676269767 0.312507951216764 -0.948313896645978 -0.0208467440423622 0.207190463785325 -0.978078486103878 0.00282765874770981 0.0302440629401023 -0.999538544030635 -0.0196438236128135 0.051046343163272 -0.998503075129729 0.0155250264443264 0.0107258926208425 -0.999821948539533 0.00656376117914933 0.0101775394155173 -0.999926664676279 0.00577417037367032 0.00715999496591403 -0.99995769581947 0.00725772137782347 0.00258499624825303 -0.999970321196984 0.00485990700715163 -2.48453403437908E-05 -0.999988190273561 -0.893711079101629 0.448642961708976 0 -0.830720880877667 0.556689157496203 0 -0.830720880877667 0.556689157496203 0 -0.794357832977214 0.607450107570773 0 0.567290987397635 0.823517416705571 0 0.567290987397635 0.823517416705571 0 0.939793423488528 -0.341743063086455 0 0.939793423488528 -0.341743063086455 0 0.485642931178688 0.874157276121507 0 0.000203124114152244 0.999999979370297 0 0.000203124114152244 0.999999979370297 0 -0.242535625036333 0.970142500145332 0 -0.993883734673631 -0.110431526074736 0 -0.993883734673631 -0.110431526074736 0 -0.42143229648014 0.906859867611019 0 -0.896057551642906 0.443937905729755 0 -0.896057551642906 0.443937905729755 0 -0.989949493661179 0.141421356237219 0 -0.325079768511119 0.945686599304842 0 0.203834634997709 0.979005332761447 0 0.203834634997709 0.979005332761447 0 0.804214124966139 0.594339668207454 0 0.804214124966139 0.594339668207454 0 0.918036166423797 0.396496654636453 0 0.446848783791025 -0.894609503875563 0 -0.12901848504526 -0.9916421887539 0 -0.12901848504526 -0.9916421887539 0 -0.400818834019639 -0.916157334902219 0 0.936613987287247 -0.350363010059403 0 0.936613987287247 -0.350363010059403 0 0 1 0 0 1 0 0.994235164810303 -0.107221439342276 0 0.748310132577749 -0.663349037446706 0 0.748310132577749 -0.663349037446706 0 0.136659656927164 -0.990618058672741 0 0.136659656927164 -0.990618058672741 0 -0.0656475574015854 -0.997842872504086 0 -1 0 0 -1 0 0 -0.0249299052772369 -0.999689201613616 0 -0.472237589215643 -0.88147130374834 0 -0.472237589215643 -0.88147130374834 0 -0.962189947544906 -0.272379339971905 0 -0.962189947544906 -0.272379339971905 0 -1 0 0 0 1 0 0 1 0 -0.993345736033203 0.115170520119751 0 -0.993345736033203 0.115170520119751 0 0.0995037190209093 0.995037190209998 0 0.0995037190209093 0.995037190209998 0 -1 0 0 -0.763730131737171 -0.645535658098547 0 -0.763730131737171 -0.645535658098547 0 -0.514495755427565 -0.857492925712521 0 0.600000000000364 -0.799999999999727 0 0.600000000000364 -0.799999999999727 0 -0.607450107570779 -0.79435783297721 0 -0.607450107570779 -0.79435783297721 0 0.624695047554511 -0.780868809442961 0 0.624695047554511 -0.780868809442961 0 -0.52881008234266 -0.848740182159858 0 -0.52881008234266 -0.848740182159858 0 -0.893711079101629 0.448642961708976 0 -0.863968514993318 0.503545832174432 0 -0.863968514993318 0.503545832174432 0 -0.794357832977214 0.607450107570773 0 0.567290987397635 0.823517416705571 0 0.567290987397635 0.823517416705571 0 0.939793423488528 -0.341743063086455 0 0.939793423488528 -0.341743063086455 0 0.485642931178688 0.874157276121507 0 0.258932374770943 0.965895452570039 0 0.258932374770943 0.965895452570039 0 -0.242535625036333 0.970142500145332 0 -0.993883734673631 -0.110431526074736 0 -0.993883734673631 -0.110431526074736 0 -0.42143229648014 0.90685986761102 0 -0.683915174117112 0.729561535864084 0 -0.683915174117112 0.729561535864084 0 -0.989949493661179 0.141421356237219 0 -0.325079768511119 0.945686599304842 0 -0.0726575905685681 0.997356944394919 0 -0.0726575905685681 0.997356944394919 0 0.638381998034997 0.769719705207581 0 0.638381998034997 0.769719705207581 0 0.918036166423797 0.396496654636453 0 0.446848783791025 -0.894609503875563 0 0.179234666976638 -0.983806349925519 0 0.179234666976638 -0.983806349925519 0 -0.400818834019639 -0.916157334902219 0 0.936613987287247 -0.350363010059403 0 0.936613987287247 -0.350363010059403 0 0 1 0 0 1 0 0.994235164810303 -0.107221439342276 0 0.920560261654576 -0.390600569203961 0 0.920560261654576 -0.390600569203961 0 0.341837541149956 -0.939759062451942 0 0.341837541149956 -0.939759062451942 0 -0.0656475574015854 -0.997842872504086 0 -1 0 0 -1 0 0 -0.0249299052772369 -0.999689201613616 0 -0.249278301827416 -0.968431891378036 0 -0.249278301827416 -0.968431891378036 0 -0.838592857485608 -0.544758679943811 0 -0.838592857485608 -0.544758679943811 0 -1 0 0 0 1 0 0 1 0 -0.993345736033203 0.115170520119751 0 -0.993345736033203 0.115170520119751 0 0.0995037190209093 0.995037190209998 0 0.0995037190209093 0.995037190209998 0 -1 0 0 -0.94647817118559 -0.322767829049274 0 -0.94647817118559 -0.322767829049274 0 -0.514495755427565 -0.857492925712521 0 0.600000000000364 -0.799999999999727 0 0.600000000000364 -0.799999999999727 0 -0.607450107570779 -0.79435783297721 0 -0.607450107570779 -0.79435783297721 0 0.624695047554511 -0.780868809442961 0 0.624695047554511 -0.780868809442961 0 -0.52881008234266 -0.848740182159858 0 -0.52881008234266 -0.848740182159858 0 -0.0696370844697783 -0.0300099732976153 0.997120894359969 -0.133916551404962 0.0841541570733191 0.987413001285218 -0.019590155744378 0.115242709227053 0.99314417068617 0.129831387019688 0.0348455807516518 0.990923607775405 0.122252114636986 0.0893813080602675 0.988466186693415 0.0211346967268364 0.179661217360942 0.983501485291532 -0.0461155278799482 0.131354032846898 0.990262326933227 0 0 1 -0.025140684779593 0.0543330458436012 0.998206324413029 0 0 1 0 0 1 0.0338912902436176 0.0670810530872502 0.997171756901653 0.103997088107067 -0.0331799978759305 0.994023990357478 0.00810244230072252 -0.118549585234836 0.99291507505396 0.0513306259775512 -0.104557480504229 0.993193284364811 0.12025237661978 -0.0166364562402683 0.992603946315478 0 0 1 0.078838316721731 -0.0365009241794527 0.996218953017122 0.0114055436955475 -0.0890960247205399 0.995957736026989 0 0 1 -0.011466892139949 -0.112891668536312 0.993541132293846 -0.0527123121683219 -0.0573858386631932 0.996959516563632 0 0 1 0 0 1 -0.0635057630225086 0.00950129094015971 0.99793624221861 0 0 1 -0.146303480802184 0.00974733778712621 0.989191731117496 -0.15853853362815 -0.0866668993871381 0.9835417540225 -0.0746633019683745 -0.116297249917029 0.990404130141285 0 0 1 -0.0375251824259816 -0.0762368430607725 0.996383362187479 0 0 1 -0.0186021997684773 -0.0526153533204411 0.998441577038306 -0.0212047734143151 -0.00617758898202967 0.999756067737934 -0.0151426695063882 0.0166577654938832 0.999746577092901 0.00734353264108445 0.0199924276649018 0.999773161954457</float_array>
                    <technique_common>
                        <accessor count="196" source="#geometry0-normal-array" stride="3">
                            <param name="X" type="float"/>
                            <param name="Y" type="float"/>
                            <param name="Z" type="float"/>
                        </accessor>
                    </technique_common>
                </source>
                <source id="geometry0-texcoord">
                    <float_array id="geometry0-texcoord-array" count="392">0 0 0 0 0 0 0 0 0 0 0 0 0 0 0 0 0 0 0 0 0 0 0 0 0 0 0 0 0 0 0 0 0 0 0 0 0 0 0 0 0 0 0 0 0 0 0 0 0 0 0 0 0 0 0 0 0 0 0 0 0 0 0 0 0.03515625 0.000127343749999986 0 0 0.05078125 0.318359375 0 0.320525 0.0888671875 0 0.03515625 0.000255859375 0.0078125 0.61930859375 0 0.619140625 0.0185546875 0.619140625 0.0078125 0.619480859375 0.03125 0.619140625 0.0185546875 0.619788671875 0.037109375 0.619140625 0.03125 0.619367578125 0.078125 0.619140625 0.037109375 0.6212546875 0.0546875 0.255859375 0.05078125 0.25626953125 0.076171875 0.255859375 0.0546875 0.25774609375 0.08203125 0.25824921875 0.076171875 0.255859375 0.1533203125 0.5171984375 0.078125 0.515625 0.1630859375 3.37890624999963E-05 0.0888671875 0 0.1630859375 0.338509375 0.1533203125 0.337890625 0.171875 0.619756640625 0.1533203125 0.619140625 0.1630859375 0 0.16796875 0.000459960937499983 0.236328125 0.00402089843750001 0.16796875 0 0.181640625 0.3428748046875 0.171875 0.337890625 0.2314453125 0.346394921875 0.181640625 0.337890625 0.2373046875 0.337890625 0.2314453125 0.34005625 0.263671875 0.00653906249999998 0.2373046875 0 0.16796875 0.306640625 0.1630859375 0.30915078125 0.2578125 0.3515625 0.2373046875 0.3650224609375 0.2314453125 0.6821953125 0.236328125 0.681640625 0.3037109375 0.3515625 0.2578125 0.354333203125 0.177734375 0.66796875 0.171875 0.66796875 0.2802734375 0 0.263671875 0.000537500000000015 0.1875 0.68359375 0.177734375 0.683621875 0.193359375 0.6837125 0.1875 0.68359375 0.2265625 0.683619921875 0.193359375 0.68359375 0.23046875 0.683624609375 0.2265625 0.68359375 0.2568359375 0.7013359375 0.236328125 0.701171875 0.03515625 0.318359375 0 0.318359375 0.05078125 0.619140625 0 0.619140625 0.0888671875 0.255859375 0.03515625 0.255859375 0.0078125 0.955078125 0 0.955078125 0.0185546875 0.880859375 0.0078125 0.880859375 0.03125 0.927734375 0.0185546875 0.927734375 0.037109375 0.943359375 0.03125 0.943359375 0.078125 0.939453125 0.037109375 0.939453125 0.0546875 0.529296875 0.05078125 0.529296875 0.076171875 0.5703125 0.0546875 0.5703125 0.08203125 0.515625 0.076171875 0.515625 0.1533203125 0.8125 0.078125 0.8125 0.1630859375 0.337890625 0.0888671875 0.337890625 0.1630859375 0.619140625 0.1533203125 0.619140625 0.171875 0.943359375 0.1533203125 0.943359375 0.1630859375 0.306640625 0.16796875 0.306640625 0.236328125 0.337890625 0.16796875 0.337890625 0.181640625 0.66796875 0.171875 0.66796875 0.2314453125 0.68359375 0.181640625 0.68359375 0.2373046875 0.681640625 0.2314453125 0.681640625 0.263671875 0.3515625 0.2373046875 0.3515625 0.16796875 0.552734375 0.1630859375 0.552734375 0.2578125 0.701171875 0.2373046875 0.701171875 0.2314453125 0.958984375 0.236328125 0.958984375 0.3037109375 0.689453125 0.2578125 0.689453125 0.177734375 0.962890625 0.171875 0.962890625 0.2802734375 0.3359375 0.263671875 0.3359375 0.1875 0.96484375 0.177734375 0.96484375 0.193359375 0.98046875 0.1875 0.98046875 0.2265625 0.9453125 0.193359375 0.9453125 0.23046875 0.9921875 0.2265625 0.9921875 0.2568359375 0.974609375 0.236328125 0.974609375 0.304004745702146 0.400846555726674 0.32858669860329 0.498805147057941 0.379513453617615 0.632028831268469 0.464815768266614 0.514478521670948 0.460898325573207 0.492927631578071 0.478526817693549 0.473335913311817 0.498114031160598 0.483131772444944 0.497134670487246 0.500764318884574 0.554035525609023 0.553661958203455 0.555014886282374 0.567376160989828 0.586354427829655 0.588927051082714 0.59614803456318 0.579131191949588 0.645214004298135 0.35186726006104 0.54913872224226 0.255867840556405 0.533468951468622 0.269582043342779 0.52357740866776 0.216684404023898 0.531412294054582 0.216684404023898 0.520639326647706 0.0168488777081074 0.507907637894122 0.00117550309510994 0.433476226719337 0.0109713622282367 0.433476226719337 0.0286039086678577 0.394203863717902 0.0305630804944902 0.386368978331085 0.044277283280864 0.386368978331085 0.105011609906248 0.395183224391258 0.105011609906248 0.403018109778075 0.240194465943399 0.412811716511599 0.238235294116775 0.412811716511599 0.287214589782409 0.398121306411313 0.304847136222039 0.390286421024496 0.29309210526228 0.340339026683517 0.36949980650067 0.335442223316755 0.361663119194167 0.462875227236079 0.143956393040315 0.392435048693746 0.454868464649386 0.464831362772824 0.353000711281062 0.563346439947876 0.420509357859958</float_array>
                    <technique_common>
                        <accessor count="196" source="#geometry0-texcoord-array" stride="2">
                            <param name="S" type="float"/>
                            <param name="T" type="float"/>
                        </accessor>
                    </technique_common>
                </source>
                <vertices id="geometry0-vertex">
                    <input semantic="POSITION" source="#geometry0-position"/>
                    <input semantic="NORMAL" source="#geometry0-normal"/>
                </vertices>
                <triangles count="132" material="material0-symbol">
                    <input offset="0" semantic="VERTEX" source="#geometry0-vertex" set="0"/>
                    <input offset="0" semantic="TEXCOORD" source="#geometry0-texcoord" set="0"/>
                    <p>20 15 18 18 15 17 26 15 20 20 18 19 21 24 20 23 24 22 24 21 22 15 27 14 15 16 17 26 20 24 25 26 24 12 13 8 5 14 27 28 4 27 27 15 26 28 30 4 12 8 11 29 30 28 4 30 1 0 30 31 5 27 4 13 14 8 6 14 5 3 4 2 1 30 0 7 8 6 8 14 6 9 10 8 11 8 10 2 4 1 32 97 33 32 96 97 34 99 35 34 98 99 36 101 37 36 100 101 38 103 39 38 102 103 40 105 41 40 104 105 42 107 43 42 106 107 44 109 45 44 108 109 46 111 47 46 110 111 48 113 49 48 112 113 50 115 51 50 114 115 52 117 53 52 116 117 54 119 55 54 118 119 56 121 57 56 120 121 58 123 59 58 122 123 60 125 61 60 124 125 62 127 63 62 126 127 64 129 65 64 128 129 66 131 67 66 130 131 68 133 69 68 132 133 70 135 71 70 134 135 72 137 73 72 136 137 74 139 75 74 138 139 76 141 77 76 140 141 78 143 79 78 142 143 80 145 81 80 144 145 82 147 83 82 146 147 84 149 85 84 148 149 86 151 87 86 150 151 88 153 89 88 152 153 90 155 91 90 154 155 92 157 93 92 156 157 94 159 95 94 158 159 178 177 192 177 175 192 184 181 192 180 179 178 180 192 181 183 182 184 184 182 181 194 186 192 192 180 178 174 194 175 175 177 176 186 184 192 185 184 186 173 195 174 195 194 174 188 187 194 187 186 194 188 193 190 194 164 193 194 192 175 189 188 190 161 160 193 160 191 190 166 195 168 195 173 172 162 161 193 193 188 194 194 165 164 165 194 166 166 194 195 163 193 164 160 190 193 167 166 168 168 195 171 169 168 170 171 170 168 171 195 172 162 193 163</p>
                </triangles>
            </mesh>
        </geometry>
    </library_geometries>
    <library_visual_scenes>
        <visual_scene id="visual-scene">
            <node>
                <instance_geometry url="#geometry0">
                    <bind_material>
                        <technique_common>
                            <instance_material symbol="material0-symbol" target="#material0"/>
                        </technique_common>
                    </bind_material>
                </instance_geometry>
            </node>
        </visual_scene>
    </library_visual_scenes>
    <scene>
        <instance_visual_scene url="#visual-scene"/>
    </scene>
</COLLADA>
