<?xml version="1.0"?>
<COLLADA xmlns="http://www.collada.org/2005/11/COLLADASchema" version="1.4.1">
    <asset>
        <up_axis>Z_UP</up_axis>
    </asset>
    <library_materials>
        <material id="material0">
            <instance_effect url="#effect0"/>
        </material>
    </library_materials>
    <library_effects>
        <effect id="effect0">
            <profile_COMMON>
                <newparam sid="image0-surface">
                    <surface type="2D">
                        <init_from>image0</init_from>
                    </surface>
                </newparam>
                <newparam sid="image0-sampler">
                    <sampler2D>
                        <source>image0-surface</source>
                    </sampler2D>
                </newparam>
                <technique sid="technique-phong">
                    <phong>
                        <emission>
                            <color>1 1 1 1</color>
                        </emission>
                        <ambient>
                            <color>1 1 1 1</color>
                        </ambient>
                        <diffuse>
                            <texture texture="image0-sampler" texcoord="TEXCOORD"/>
                        </diffuse>
                        <specular>
                            <color>1 1 1 1</color>
                        </specular>
                        <shininess>
                            <float>0</float>
                        </shininess>
                    </phong>
                </technique>
                <extra>
                    <technique profile="GOOGLEEARTH">
                        <double_sided>0</double_sided>
                    </technique>
                </extra>
            </profile_COMMON>
        </effect>
    </library_effects>
    <library_images>
        <image id="image0" height="0" width="0">
            <init_from>8306.png</init_from>
        </image>
    </library_images>
    <library_geometries>
        <geometry id="geometry0">
            <mesh>
                <source id="geometry0-position">
                    <float_array id="geometry0-position-array" count="510">12.3099999999995 -15.4300000000003 0.556329441069465 6.09999999999945 -11.7399999999998 0.490433883664082 6.5 -10.9399999999996 0.475716590879529 4 -9.53999999999996 0.409212398526506 3.29999999999927 -10.04 0.403881311414807 0 -7.84000000000015 0.315964889525276 0.599999999999454 -7.14000000000033 0.295021963118415 -2.30000000000018 -5.55000000000018 0.157168293000723 -2.90000000000055 -6.23999999999978 0.163486766816277 -8.40000000000055 -2.44999999999982 -0.11460781097594 -8.20000000000073 -1.44999999999982 -0.163592910766965 -14.2000000000007 2.55000000000018 -0.708908700928077 -14.2000000000007 3.35000000000036 -0.806365251535681 -18.9099999999999 6.4399999999996 -1.60780763624825 -12.9000000000005 15.4300000000003 -1.60008525849116 -3.70000000000073 9.9399999999996 -0.862984085082644 -3 10.54 -0.8965955734202 2.79999999999927 6.73999999999978 -0.099191427232654 2.39999999999964 5.84000000000015 -0.102323675157095 5.69999999999982 3.64999999999964 0.192825269699824 6.29999999999927 4.23999999999978 0.221103096007937 11.8099999999995 0.75 0.562777566907243 11.3099999999995 -0.350000000000364 0.530664253228679 14.71 -2.14999999999964 0.647079324719016 15.21 -1.35000000000036 0.673840522764294 18.9099999999999 -3.64999999999964 0.743008089033538 15.21 -9.53999999999996 0.547849178306933 15.71 -10.2399999999998 0.52234487532769 12.3099999999995 -15.4300000000003 0.556329441069465 6.09999999999945 -11.7399999999998 0.490433883664082 6.09999999999945 -11.7399999999998 0.490433883664082 6.5 -10.9399999999996 0.475716590879529 6.5 -10.9399999999996 0.475716590879529 4 -9.53999999999996 0.409212398526506 4 -9.53999999999996 0.409212398526506 3.29999999999927 -10.04 0.403881311414807 3.29999999999927 -10.04 0.403881311414807 0 -7.84000000000015 0.315964889525276 0 -7.84000000000015 0.315964889525276 0.599999999999454 -7.14000000000033 0.295021963118415 0.599999999999454 -7.14000000000033 0.295021963118415 -2.30000000000018 -5.55000000000018 0.157168293000723 -2.30000000000018 -5.55000000000018 0.157168293000723 -2.90000000000055 -6.23999999999978 0.163486766816277 -2.90000000000055 -6.23999999999978 0.163486766816277 -8.40000000000055 -2.44999999999982 -0.11460781097594 -8.40000000000055 -2.44999999999982 -0.11460781097594 -8.20000000000073 -1.44999999999982 -0.163592910766965 -8.20000000000073 -1.44999999999982 -0.163592910766965 -14.2000000000007 2.55000000000018 -0.708908700928077 -14.2000000000007 2.55000000000018 -0.708908700928077 -14.2000000000007 3.35000000000036 -0.806365251535681 -14.2000000000007 3.35000000000036 -0.806365251535681 -18.9099999999999 6.4399999999996 -1.60780763624825 -18.9099999999999 6.4399999999996 -1.60780763624825 -12.9000000000005 15.4300000000003 -1.60008525849116 -12.9000000000005 15.4300000000003 -1.60008525849116 -3.70000000000073 9.9399999999996 -0.862984085082644 -3.70000000000073 9.9399999999996 -0.862984085082644 -3 10.54 -0.8965955734202 -3 10.54 -0.8965955734202 2.79999999999927 6.73999999999978 -0.099191427232654 2.79999999999927 6.73999999999978 -0.099191427232654 2.39999999999964 5.84000000000015 -0.102323675157095 2.39999999999964 5.84000000000015 -0.102323675157095 5.69999999999982 3.64999999999964 0.192825269699824 5.69999999999982 3.64999999999964 0.192825269699824 6.29999999999927 4.23999999999978 0.221103096007937 6.29999999999927 4.23999999999978 0.221103096007937 11.8099999999995 0.75 0.562777566907243 11.8099999999995 0.75 0.562777566907243 11.3099999999995 -0.350000000000364 0.530664253228679 11.3099999999995 -0.350000000000364 0.530664253228679 14.71 -2.14999999999964 0.647079324719016 14.71 -2.14999999999964 0.647079324719016 15.21 -1.35000000000036 0.673840522764294 15.21 -1.35000000000036 0.673840522764294 18.9099999999999 -3.64999999999964 0.743008089033538 18.9099999999999 -3.64999999999964 0.743008089033538 15.21 -9.53999999999996 0.547849178306933 15.21 -9.53999999999996 0.547849178306933 15.71 -10.2399999999998 0.52234487532769 15.71 -10.2399999999998 0.52234487532769 12.3099999999995 -15.4300000000003 0.556329441069465 12.3099999999995 -15.4300000000003 19.2778178443865 6.09999999999945 -11.7399999999998 19.2778178443865 6.09999999999945 -11.7399999999998 19.2778178443865 6.5 -10.9399999999996 19.2778178443865 6.5 -10.9399999999996 19.2778178443865 4 -9.53999999999996 19.2778178443865 4 -9.53999999999996 19.2778178443865 3.29999999999927 -10.04 19.2778178443865 3.29999999999927 -10.04 19.2778178443865 0 -7.84000000000015 19.2778178443865 0 -7.84000000000015 19.2778178443865 0.599999999999454 -7.14000000000033 19.2778178443865 0.599999999999454 -7.14000000000033 19.2778178443865 -2.30000000000018 -5.55000000000018 19.2778178443865 -2.30000000000018 -5.55000000000018 19.2778178443865 -2.90000000000055 -6.23999999999978 19.2778178443865 -2.90000000000055 -6.23999999999978 19.2778178443865 -8.40000000000055 -2.44999999999982 19.2778178443865 -8.40000000000055 -2.44999999999982 19.2778178443865 -8.20000000000073 -1.44999999999982 19.2778178443865 -8.20000000000073 -1.44999999999982 19.2778178443865 -14.2000000000007 2.55000000000018 19.2778178443865 -14.2000000000007 2.55000000000018 19.2778178443865 -14.2000000000007 3.35000000000036 19.2778178443865 -14.2000000000007 3.35000000000036 19.2778178443865 -18.9099999999999 6.4399999999996 19.2778178443865 -18.9099999999999 6.4399999999996 19.2778178443865 -12.9000000000005 15.4300000000003 19.2778178443865 -12.9000000000005 15.4300000000003 19.2778178443865 -3.70000000000073 9.9399999999996 19.2778178443865 -3.70000000000073 9.9399999999996 19.2778178443865 -3 10.54 19.2778178443865 -3 10.54 19.2778178443865 2.79999999999927 6.73999999999978 19.2778178443865 2.79999999999927 6.73999999999978 19.2778178443865 2.39999999999964 5.84000000000015 19.2778178443865 2.39999999999964 5.84000000000015 19.2778178443865 5.69999999999982 3.64999999999964 19.2778178443865 5.69999999999982 3.64999999999964 19.2778178443865 6.29999999999927 4.23999999999978 19.2778178443865 6.29999999999927 4.23999999999978 19.2778178443865 11.8099999999995 0.75 19.2778178443865 11.8099999999995 0.75 19.2778178443865 11.3099999999995 -0.350000000000364 19.2778178443865 11.3099999999995 -0.350000000000364 19.2778178443865 14.71 -2.14999999999964 19.2778178443865 14.71 -2.14999999999964 19.2778178443865 15.21 -1.35000000000036 19.2778178443865 15.21 -1.35000000000036 19.2778178443865 18.9099999999999 -3.64999999999964 19.2778178443865 18.9099999999999 -3.64999999999964 19.2778178443865 15.21 -9.53999999999996 19.2778178443865 15.21 -9.53999999999996 19.2778178443865 15.71 -10.2399999999998 19.2778178443865 15.71 -10.2399999999998 19.2778178443865 12.3099999999995 -15.4300000000003 19.2778178443865 12.3099999999995 -15.4300000000003 19.2778178443865 6.09999999999945 -11.7399999999998 19.2778178443865 6.5 -10.9399999999996 19.2778178443865 4 -9.53999999999996 19.2778178443865 3.29999999999927 -10.04 19.2778178443865 0 -7.84000000000015 19.2778178443865 0.599999999999454 -7.14000000000033 19.2778178443865 -2.30000000000018 -5.55000000000018 19.2778178443865 -2.90000000000055 -6.23999999999978 19.2778178443865 -8.40000000000055 -2.44999999999982 19.2778178443865 -8.20000000000073 -1.44999999999982 19.2778178443865 -14.2000000000007 2.55000000000018 19.2778178443865 -14.2000000000007 3.35000000000036 19.2778178443865 -18.9099999999999 6.4399999999996 19.2778178443865 -12.9000000000005 15.4300000000003 19.2778178443865 -3.70000000000073 9.9399999999996 19.2778178443865 -3 10.54 19.2778178443865 2.79999999999927 6.73999999999978 19.2778178443865 2.39999999999964 5.84000000000015 19.2778178443865 5.69999999999982 3.64999999999964 19.2778178443865 6.29999999999927 4.23999999999978 19.2778178443865 11.8099999999995 0.75 19.2778178443865 11.3099999999995 -0.350000000000364 19.2778178443865 14.71 -2.14999999999964 19.2778178443865 15.21 -1.35000000000036 19.2778178443865 18.9099999999999 -3.64999999999964 19.2778178443865 15.21 -9.53999999999996 19.2778178443865 15.71 -10.2399999999998 19.2778178443865 -11.0867089177946 7.24560780289539 20.5449640807531 9.8713214432355 -6.18631860930691 20.4195998115594</float_array>
                    <technique_common>
                        <accessor count="170" source="#geometry0-position-array" stride="3">
                            <param name="X" type="float"/>
                            <param name="Y" type="float"/>
                            <param name="Z" type="float"/>
                        </accessor>
                    </technique_common>
                </source>
                <source id="geometry0-normal">
                    <float_array id="geometry0-normal-array" count="510">-0.00745925539451383 -0.0034191457150872 -0.999966333909067 -0.000246756509790479 -0.0182701665234899 -0.999833056128086 0.0101376844959648 -0.00705447815418007 -0.999923727936803 0.0238865254308165 -0.0108052789905379 -0.999656280852964 0.012464808237383 -0.0259170137832748 -0.999586382936544 0.00425845972916708 -0.0335514588464942 -0.999427918926626 0.0251909054327663 -0.0228336021537945 -0.999421855322446 0.0334361388475425 -0.0385722259747792 -0.998696254124505 0.0276456589849377 -0.0331883653741848 -0.999066689437236 0.0227332403869184 -0.0428334220911673 -0.998823556857501 0.0333732637346566 -0.0748323128320489 -0.996637521982743 0.00960075052496343 -0.120921126455146 -0.992615689361284 0.0523791459723025 -0.0867701781151001 -0.994850421549434 0.117489945528181 -0.0776940139711438 -0.990030177768757 0.0779674141838776 -0.0737165027244113 -0.994226814942929 0.0490512751928855 -0.0868009957708126 -0.995017366449022 0.0780455662825648 -0.0782888972772625 -0.993871087287856 0.107509862947045 -0.0443254980296433 -0.993215424564848 0.0619594200435456 -0.0650855759512267 -0.995954265049839 0.0465958649286846 -0.0270327179065701 -0.998547974578153 0.0585102972766886 -0.00346239009313731 -0.998280800660534 0.0623836649820763 0.000780838567523044 -0.998051936842234 0.0369831912699722 -0.00450793975138099 -0.99930572000899 0.0331904571513706 0.015772552674377 -0.999324581973353 0.0284241427186851 0.0156687840969829 -0.999473139867015 0.0283647756736181 0.015502282464805 -0.999477422826232 0.0114146339712791 0.00824338214278785 -0.999900871477843 -0.0313697187111792 0.0140062694954363 -0.999409708359291 -0.510826591194502 -0.859683775424781 0 -0.510826591194502 -0.859683775424781 0 -0.894427190999713 0.447213595500365 0 -0.894427190999712 0.447213595500365 0 -0.488603368931747 -0.872506015949774 0 -0.488603368931747 -0.872506015949774 0 0.581238193718696 -0.813733471207021 0 0.581238193718696 -0.813733471207021 0 -0.554700196225282 -0.832050294337808 0 -0.554700196225282 -0.832050294337808 0 -0.759256602365506 0.650791373455725 0 -0.759256602365506 0.650791373455725 0 -0.480757623353844 -0.8768535268716 0 -0.480757623353844 -0.8768535268716 0 0.754605522163119 -0.65617871492523 0 0.754605522163119 -0.65617871492523 0 -0.567418043278493 -0.823429878108638 0 -0.567418043278493 -0.823429878108638 0 -0.980580675690955 0.196116135138013 0 -0.980580675690955 0.196116135138013 0 -0.554700196225229 -0.832050294337844 0 -0.95083993331669 -0.309682775126924 0 -0.95083993331669 -0.309682775126924 0 -0.781852778669223 -0.623463096331463 0 -0.781852778669223 -0.623463096331463 0 -0.548540108375236 -0.836124242863275 0 -0.831338274279116 0.555766743984041 0 -0.831338274279115 0.555766743984041 0 0.512435306870278 0.858725833006533 0 0.512435306870278 0.858725833006533 0 -0.650791373455806 0.759256602365436 0 -0.650791373455806 0.759256602365436 0 0.548026257310939 0.83646112957971 0 0.548026257310939 0.83646112957971 0 0.913811548620333 -0.406138466053276 0 0.913811548620333 -0.406138466053276 0 0.552950971173724 0.833213792179436 0 0.552950971173724 0.833213792179436 0 -0.701139951814153 0.713023679810178 0 -0.701139951814153 0.713023679810178 0 0.535088556618184 0.844795973342835 0 0.535088556618184 0.844795973342835 0 0.910366477462656 -0.413802944301071 0 0.910366477462656 -0.413802944301071 0 0.467887720418826 0.883787916347171 0 0.467887720418826 0.883787916347171 0 -0.847998304004871 0.529998940003527 0 -0.847998304004871 0.529998940003527 0 0.52793412112552 0.849285325289107 0 0.52793412112552 0.849285325289107 0 0.846784573207469 -0.531935979773736 0 0.846784573207469 -0.531935979773736 0 0.813733471206664 0.581238193719196 0 0.813733471206664 0.581238193719196 0 0.836486605234709 -0.547987371444737 0 0.836486605234709 -0.547987371444737 0 -0.510826591194502 -0.859683775424781 0 -0.510826591194502 -0.859683775424781 0 -0.894427190999713 0.447213595500365 0 -0.894427190999713 0.447213595500365 0 -0.488603368931747 -0.872506015949774 0 -0.488603368931747 -0.872506015949774 0 0.581238193718696 -0.813733471207021 0 0.581238193718696 -0.813733471207021 0 -0.554700196225282 -0.832050294337808 0 -0.554700196225282 -0.832050294337808 0 -0.759256602365506 0.650791373455725 0 -0.759256602365506 0.650791373455725 0 -0.480757623353844 -0.8768535268716 0 -0.480757623353844 -0.8768535268716 0 0.754605522163119 -0.65617871492523 0 0.754605522163119 -0.65617871492523 0 -0.567418043278493 -0.823429878108638 0 -0.567418043278493 -0.823429878108638 0 -0.980580675690955 0.196116135138013 0 -0.980580675690955 0.196116135138013 0 -0.554700196225229 -0.832050294337844 0 -0.785102741785269 -0.619365550253849 0 -0.785102741785269 -0.619365550253849 0 -0.950170217318032 -0.311731548165731 0 -0.950170217318032 -0.311731548165731 0 -0.548540108375236 -0.836124242863275 0 -0.831338274279116 0.555766743984041 0 -0.831338274279116 0.555766743984041 0 0.512435306870278 0.858725833006533 0 0.512435306870278 0.858725833006533 0 -0.650791373455806 0.759256602365436 0 -0.650791373455806 0.759256602365436 0 0.548026257310939 0.83646112957971 0 0.548026257310939 0.83646112957971 0 0.913811548620333 -0.406138466053276 0 0.913811548620333 -0.406138466053276 0 0.552950971173724 0.833213792179436 0 0.552950971173724 0.833213792179436 0 -0.701139951814153 0.713023679810178 0 -0.701139951814153 0.713023679810178 0 0.535088556618184 0.844795973342835 0 0.535088556618184 0.844795973342835 0 0.910366477462656 -0.413802944301071 0 0.910366477462656 -0.413802944301071 0 0.467887720418826 0.883787916347171 0 0.467887720418826 0.883787916347171 0 -0.847998304004871 0.529998940003527 0 -0.847998304004871 0.529998940003527 0 0.52793412112552 0.849285325289107 0 0.52793412112552 0.849285325289107 0 0.846784573207469 -0.531935979773736 0 0.846784573207469 -0.531935979773736 0 0.813733471206664 0.581238193719196 0 0.813733471206664 0.581238193719196 0 0.836486605234709 -0.547987371444737 0 0.836486605234709 -0.547987371444737 0 0.0108362399487787 -0.0582507552953924 0.998243169478904 0 0 1 -0.0710060698175922 -0.107428711936986 0.991673943340561 -0.0669767023987622 -0.106549976365458 0.992049002757579 0 0 1 0 0 1 -0.0520176215427462 -0.0840631507436561 0.995101780591355 -0.0664292972183545 -0.107736120598352 0.991957699092806 0 0 1 0 0 1 -0.0837940621757498 -0.123069516582125 0.988854109175023 -0.252557641854903 -0.092463262988257 0.963153768895837 -0.259674789583911 -0.104737583649735 0.959999501159124 -0.154983072525511 -0.0470885994000464 0.986794259730514 -0.0333405108963003 0.145698831925659 0.988767040666644 0.0714177840357554 0.112816459921915 0.991045885160778 0 0 1 0 0 1 0.064939227246369 0.0967669544150488 0.993186313486991 0.0741453377255095 0.107665370049125 0.991418497399436 0 0 1 0 0 1 0.0517893037193018 0.0836208019112319 0.995150958150567 0.0532852233465385 0.121769473296295 0.991127075780928 0 0 1 0.0740564590080395 0.0333201203826813 0.996697251153465 0.104243631444172 -0.0581819646460591 0.992848490099701 0 0 1 -0.0810629399563021 -0.0146616613859148 0.996601141606333 0.0238806712893652 -0.0127054908939361 0.999634075069429</float_array>
                    <technique_common>
                        <accessor count="170" source="#geometry0-normal-array" stride="3">
                            <param name="X" type="float"/>
                            <param name="Y" type="float"/>
                            <param name="Z" type="float"/>
                        </accessor>
                    </technique_common>
                </source>
                <source id="geometry0-texcoord">
                    <float_array id="geometry0-texcoord-array" count="340">0 0 0 0 0 0 0 0 0 0 0 0 0 0 0 0 0 0 0 0 0 0 0 0 0 0 0 0 0 0 0 0 0 0 0 0 0 0 0 0 0 0 0 0 0 0 0 0 0 0 0 0 0 0 0 0 0.0390625 0.000710937499999989 0 0 0.0048828125 0.2032890625 0 0.203125 0.015625 0.4089208984375 0 0.408203125 0.0048828125 0.6133451171875 0 0.61328125 0.025390625 0.2040234375 0.0048828125 0.203125 0.009765625 0.613500390625 0.0048828125 0.61328125 0.02734375 0.61474375 0.009765625 0.61328125 0.0205078125 0.3984375 0.015625 0.3984984375 0.0556640625 0.4013421875 0.0205078125 0.3984375 0.044921875 0.000556640624999988 0.0390625 0 0.0830078125 0.00575859375 0.044921875 0 0.0322265625 0.6027587890625 0.02734375 0.6015625 0.0615234375 0.6098875 0.0322265625 0.6015625 0.12109375 0.2109375 0.0556640625 0.21103828125 0.125 0.462890625 0.0615234375 0.471577734375 0.0673828125 0.7094193359375 0.0615234375 0.708984375 0.107421875 0.708984375 0.0673828125 0.7181650390625 0.11328125 0.70903046875 0.107421875 0.708984375 0.1357421875 0.708984375 0.11328125 0.712309375 0.1259765625 0 0.12109375 0.000331054687499988 0.1591796875 0.220703125 0.12109375 0.2246537109375 0.08984375 0.000358593750000007 0.0830078125 0 0.1484375 0.44140625 0.125 0.4428109375 0.1416015625 0.66796875 0.1357421875 0.66829140625 0.1513671875 0 0.1259765625 0.000802148437500008 0.19140625 0.00223437499999999 0.1513671875 0 0.0087890625 0.812737890625 0.0048828125 0.8125 0.1767578125 0.66796875 0.1416015625 0.6683484375 0.0390625 0.203125 0 0.203125 0.0048828125 0.408203125 0 0.408203125 0.015625 0.61328125 0 0.61328125 0.0048828125 0.826171875 0 0.826171875 0.025390625 0.3984375 0.0048828125 0.3984375 0.009765625 0.8125 0.0048828125 0.8125 0.02734375 0.81640625 0.009765625 0.81640625 0.0205078125 0.6015625 0.015625 0.6015625 0.0556640625 0.6015625 0.0205078125 0.6015625 0.044921875 0.22265625 0.0390625 0.22265625 0.0830078125 0.2109375 0.044921875 0.2109375 0.0322265625 0.845703125 0.02734375 0.845703125 0.0615234375 0.818359375 0.0322265625 0.818359375 0.12109375 0.462890625 0.0556640625 0.462890625 0.125 0.708984375 0.0615234375 0.708984375 0.0673828125 0.96484375 0.0615234375 0.96484375 0.107421875 0.94140625 0.0673828125 0.94140625 0.11328125 0.939453125 0.107421875 0.939453125 0.1357421875 0.927734375 0.11328125 0.927734375 0.1259765625 0.220703125 0.12109375 0.220703125 0.1591796875 0.44140625 0.12109375 0.44140625 0.08984375 0.2109375 0.0830078125 0.2109375 0.1484375 0.66796875 0.125 0.66796875 0.1416015625 0.8984375 0.1357421875 0.8984375 0.1513671875 0.216796875 0.1259765625 0.216796875 0.19140625 0.21484375 0.1513671875 0.21484375 0.0087890625 0.982421875 0.0048828125 0.982421875 0.1767578125 0.87890625 0.1416015625 0.87890625 0.482640892975095 0.216215347780898 0.421836349769289 0.288518145159938 0.425752906497527 0.304193548385748 0.401274426946076 0.331625504030901 0.394420452671662 0.321828377014772 0.362108859663753 0.364935735885735 0.367983694756096 0.378651713708312 0.339588658476416 0.409806577619604 0.333713823384064 0.396286542337354 0.279861168370871 0.470548765119609 0.281819446734985 0.490143019151867 0.223071095811502 0.568520035280897 0.223071095811502 0.584195438506707 0.176953640336576 0.644741683466367 0.235799905178259 0.820894027216376 0.325880709927598 0.713321572579268 0.332734684202012 0.72507812499863 0.389524756761372 0.650619959676048 0.385608200033143 0.632985131047023 0.417919793041061 0.590073714716369 0.423794628133404 0.601634324595404 0.477745197064805 0.53325037802283 0.472849501154515 0.511696698587339 0.506140233344494 0.47642704132929 0.511035929254784 0.492102444555082 0.54726407899093 0.447035660280904 0.511035929254784 0.331625504030901 0.515931625165074 0.317909526208324 0.253554548648902 0.660526967406676 0.458762835701371 0.397338389143395</float_array>
                    <technique_common>
                        <accessor count="170" source="#geometry0-texcoord-array" stride="2">
                            <param name="S" type="float"/>
                            <param name="T" type="float"/>
                        </accessor>
                    </technique_common>
                </source>
                <vertices id="geometry0-vertex">
                    <input semantic="POSITION" source="#geometry0-position"/>
                    <input semantic="NORMAL" source="#geometry0-normal"/>
                </vertices>
                <triangles count="112" material="material0-symbol">
                    <input offset="0" semantic="VERTEX" source="#geometry0-vertex" set="0"/>
                    <input offset="0" semantic="TEXCOORD" source="#geometry0-texcoord" set="0"/>
                    <p>2 26 0 2 3 22 2 0 1 0 26 27 3 6 22 22 26 2 4 6 3 6 7 19 6 4 5 18 7 10 9 7 8 26 22 23 23 25 26 15 10 12 10 7 9 24 25 23 22 6 19 12 13 14 12 10 11 18 19 7 22 20 21 20 22 19 18 16 17 15 18 10 16 18 15 14 15 12 28 85 29 28 84 85 30 87 31 30 86 87 32 89 33 32 88 89 34 91 35 34 90 91 36 93 37 36 92 93 38 95 39 38 94 95 40 97 41 40 96 97 42 99 43 42 98 99 44 101 45 44 100 101 46 103 47 46 102 103 48 105 49 48 104 105 50 107 51 50 106 107 52 109 53 52 108 109 54 111 55 54 110 111 56 113 57 56 112 113 58 115 59 58 114 115 60 117 61 60 116 117 62 119 63 62 118 119 64 121 65 64 120 121 66 123 67 66 122 123 68 125 69 68 124 125 70 127 71 70 126 127 72 129 73 72 128 129 74 131 75 74 130 131 76 133 77 76 132 133 78 135 79 78 134 135 80 137 81 80 136 137 82 139 83 82 138 139 140 166 169 142 169 143 142 141 140 140 167 166 143 169 146 166 165 169 144 143 146 169 147 146 146 145 144 169 159 158 142 140 169 147 169 168 149 148 147 169 165 163 150 147 168 150 149 147 164 163 165 161 160 162 162 169 163 152 168 153 151 150 168 155 168 158 159 169 162 160 159 162 158 157 156 168 154 153 168 152 151 158 168 169 156 155 158 154 168 155</p>
                </triangles>
            </mesh>
        </geometry>
    </library_geometries>
    <library_visual_scenes>
        <visual_scene id="visual-scene">
            <node>
                <instance_geometry url="#geometry0">
                    <bind_material>
                        <technique_common>
                            <instance_material symbol="material0-symbol" target="#material0"/>
                        </technique_common>
                    </bind_material>
                </instance_geometry>
            </node>
        </visual_scene>
    </library_visual_scenes>
    <scene>
        <instance_visual_scene url="#visual-scene"/>
    </scene>
</COLLADA>
