<?xml version="1.0"?>
<COLLADA xmlns="http://www.collada.org/2005/11/COLLADASchema" version="1.4.1">
    <asset>
        <up_axis>Z_UP</up_axis>
    </asset>
    <library_materials>
        <material id="material0">
            <instance_effect url="#effect0"/>
        </material>
    </library_materials>
    <library_effects>
        <effect id="effect0">
            <profile_COMMON>
                <newparam sid="image0-surface">
                    <surface type="2D">
                        <init_from>image0</init_from>
                    </surface>
                </newparam>
                <newparam sid="image0-sampler">
                    <sampler2D>
                        <source>image0-surface</source>
                    </sampler2D>
                </newparam>
                <technique sid="technique-phong">
                    <phong>
                        <emission>
                            <color>1 1 1 1</color>
                        </emission>
                        <ambient>
                            <color>1 1 1 1</color>
                        </ambient>
                        <diffuse>
                            <texture texture="image0-sampler" texcoord="TEXCOORD"/>
                        </diffuse>
                        <specular>
                            <color>1 1 1 1</color>
                        </specular>
                        <shininess>
                            <float>0</float>
                        </shininess>
                    </phong>
                </technique>
                <extra>
                    <technique profile="GOOGLEEARTH">
                        <double_sided>0</double_sided>
                    </technique>
                </extra>
            </profile_COMMON>
        </effect>
    </library_effects>
    <library_images>
        <image id="image0" height="0" width="0">
            <init_from>9005.png</init_from>
        </image>
    </library_images>
    <library_geometries>
        <geometry id="geometry0">
            <mesh>
                <source id="geometry0-position">
                    <float_array id="geometry0-position-array" count="504">-12.6349999999998 0.694999999999709 -0.221586298941475 -3.94499999999971 11.605 -0.222421813012261 -0.944999999999709 9.49499999999989 -0.173606085776555 -0.244999999999891 10.4049999999997 -0.183780169487363 3.84500000000025 7.5949999999998 -0.0920861959457397 4.94500000000016 8.39499999999998 -0.0772579908407351 8.34500000000025 5.79500000000007 -0.0175234079360962 7.94500000000016 4.99499999999989 -0.00205457210540771 10.4450000000002 2.99499999999989 0.0398145914077759 9.84500000000025 1.99499999999989 0.0534244775772095 12.6350000000002 -0.105000000000018 0.107702279088699 10.9450000000002 -2.60500000000002 0.138630270957947 12.335 -3.4050000000002 0.157222294805251 11.0350000000003 -5.30500000000029 0.198905348777771 11.7350000000001 -6.00500000000011 0.220237612722485 10.0450000000001 -8.20499999999993 0.275444626808167 9.04500000000007 -8.00500000000011 0.264305233953564 7.74500000000035 -10.3050000000003 0.321738839147656 6.34500000000025 -9.20499999999993 0.283469557758508 4.64500000000044 -11.605 0.335715651512146 1.35500000000047 -9.50500000000011 0.260746407509941 0.855000000000473 -10.105 0.272959780691963 -1.44499999999971 -8.80500000000029 0.215435051917666 -2.04499999999962 -9.30500000000029 0.22297880649603 -5.74499999999989 -6.9050000000002 0.0977658987030736 -5.3449999999998 -5.80500000000029 0.0728874921787792 -10.0349999999999 -2.60500000000002 -0.10060026645624 -9.33499999999958 -1.9050000000002 -0.103944993019468 -12.6349999999998 0.694999999999709 -0.221586298941475 -3.94499999999971 11.605 -0.222421813012261 -3.94499999999971 11.605 -0.222421813012261 -0.944999999999709 9.49499999999989 -0.173606085776555 -0.944999999999709 9.49499999999989 -0.173606085776555 -0.244999999999891 10.4049999999997 -0.183780169487363 -0.244999999999891 10.4049999999997 -0.183780169487363 3.84500000000025 7.5949999999998 -0.0920861959457397 3.84500000000025 7.5949999999998 -0.0920861959457397 4.94500000000016 8.39499999999998 -0.0772579908407351 4.94500000000016 8.39499999999998 -0.0772579908407351 8.34500000000025 5.79500000000007 -0.0175234079360962 8.34500000000025 5.79500000000007 -0.0175234079360962 7.94500000000016 4.99499999999989 -0.00205457210540771 7.94500000000016 4.99499999999989 -0.00205457210540771 10.4450000000002 2.99499999999989 0.0398145914077759 10.4450000000002 2.99499999999989 0.0398145914077759 9.84500000000025 1.99499999999989 0.0534244775772095 9.84500000000025 1.99499999999989 0.0534244775772095 12.6350000000002 -0.105000000000018 0.107702279088699 12.6350000000002 -0.105000000000018 0.107702279088699 10.9450000000002 -2.60500000000002 0.138630270957947 10.9450000000002 -2.60500000000002 0.138630270957947 12.335 -3.4050000000002 0.157222294805251 12.335 -3.4050000000002 0.157222294805251 11.0350000000003 -5.30500000000029 0.198905348777771 11.0350000000003 -5.30500000000029 0.198905348777771 11.7350000000001 -6.00500000000011 0.220237612722485 11.7350000000001 -6.00500000000011 0.220237612722485 10.0450000000001 -8.20499999999993 0.275444626808167 10.0450000000001 -8.20499999999993 0.275444626808167 9.04500000000007 -8.00500000000011 0.264305233953564 9.04500000000007 -8.00500000000011 0.264305233953564 7.74500000000035 -10.3050000000003 0.321738839147656 7.74500000000035 -10.3050000000003 0.321738839147656 6.34500000000025 -9.20499999999993 0.283469557758508 6.34500000000025 -9.20499999999993 0.283469557758508 4.64500000000044 -11.605 0.335715651512146 4.64500000000044 -11.605 0.335715651512146 1.35500000000047 -9.50500000000011 0.260746407509941 1.35500000000047 -9.50500000000011 0.260746407509941 0.855000000000473 -10.105 0.272959780691963 0.855000000000473 -10.105 0.272959780691963 -1.44499999999971 -8.80500000000029 0.215435051917666 -1.44499999999971 -8.80500000000029 0.215435051917666 -2.04499999999962 -9.30500000000029 0.22297880649603 -2.04499999999962 -9.30500000000029 0.22297880649603 -5.74499999999989 -6.9050000000002 0.0977658987030736 -5.74499999999989 -6.9050000000002 0.0977658987030736 -5.3449999999998 -5.80500000000029 0.0728874921787792 -5.3449999999998 -5.80500000000029 0.0728874921787792 -10.0349999999999 -2.60500000000002 -0.10060026645624 -10.0349999999999 -2.60500000000002 -0.10060026645624 -9.33499999999958 -1.9050000000002 -0.103944993019468 -9.33499999999958 -1.9050000000002 -0.103944993019468 -12.6349999999998 0.694999999999709 -0.221586298941475 -12.6349999999998 0.694999999999709 53.4795282304746 -3.94499999999971 11.605 53.5397282304746 -3.94499999999971 11.605 53.5397282304746 -0.944999999999709 9.49499999999989 53.5384282304746 -0.944999999999709 9.49499999999989 53.5384282304746 -0.244999999999891 10.4049999999997 53.5433282304746 -0.244999999999891 10.4049999999997 53.5433282304746 3.84500000000025 7.5949999999998 53.5418282304746 3.84500000000025 7.5949999999998 53.5418282304746 4.94500000000016 8.39499999999998 53.5473282304746 4.94500000000016 8.39499999999998 53.5473282304746 8.34500000000025 5.79500000000007 53.5450282304746 8.34500000000025 5.79500000000007 53.5450282304746 7.94500000000016 4.99499999999989 53.5411282304746 7.94500000000016 4.99499999999989 53.5411282304746 10.4450000000002 2.99499999999989 53.5390282304746 10.4450000000002 2.99499999999989 53.5390282304746 9.84500000000025 1.99499999999989 53.5340282304746 9.84500000000025 1.99499999999989 53.5340282304746 12.6350000000002 -0.105000000000018 53.5322282304746 12.6350000000002 -0.105000000000018 53.5322282304746 10.9450000000002 -2.60500000000002 53.5191282304746 10.9450000000002 -2.60500000000002 53.5191282304746 12.335 -3.4050000000002 53.5191282304746 12.335 -3.4050000000002 53.5191282304746 11.0350000000003 -5.30500000000029 53.5091282304746 11.0350000000003 -5.30500000000029 53.5091282304746 11.7350000000001 -6.00500000000011 53.5080282304746 11.7350000000001 -6.00500000000011 53.5080282304746 10.0450000000001 -8.20499999999993 53.4960282304746 10.0450000000001 -8.20499999999993 53.4960282304746 9.04500000000007 -8.00500000000011 53.4946282304746 9.04500000000007 -8.00500000000011 53.4946282304746 7.74500000000035 -10.3050000000003 53.4830282304746 7.74500000000035 -10.3050000000003 53.4830282304746 6.34500000000025 -9.20499999999993 53.4841282304746 6.34500000000025 -9.20499999999993 53.4841282304746 4.64500000000044 -11.605 53.4713282304746 4.64500000000044 -11.605 53.4713282304746 1.35500000000047 -9.50500000000011 53.4719282304746 1.35500000000047 -9.50500000000011 53.4719282304746 0.855000000000473 -10.105 53.4686282304746 0.855000000000473 -10.105 53.4686282304746 -1.44499999999971 -8.80500000000029 53.4684282304746 -1.44499999999971 -8.80500000000029 53.4684282304746 -2.04499999999962 -9.30500000000029 53.4652282304746 -2.04499999999962 -9.30500000000029 53.4652282304746 -5.74499999999989 -6.9050000000002 53.4661282304746 -5.74499999999989 -6.9050000000002 53.4661282304746 -5.3449999999998 -5.80500000000029 53.4711282304746 -5.3449999999998 -5.80500000000029 53.4711282304746 -10.0349999999999 -2.60500000000002 53.4728282304746 -10.0349999999999 -2.60500000000002 53.4728282304746 -9.33499999999958 -1.9050000000002 53.4770282304746 -9.33499999999958 -1.9050000000002 53.4770282304746 -12.6349999999998 0.694999999999709 53.4795282304746 -12.6349999999998 0.694999999999709 53.4795282304746 -3.94499999999971 11.605 53.5397282304746 -0.944999999999709 9.49499999999989 53.5384282304746 -0.244999999999891 10.4049999999997 53.5433282304746 3.84500000000025 7.5949999999998 53.5418282304746 4.94500000000016 8.39499999999998 53.5473282304746 8.34500000000025 5.79500000000007 53.5450282304746 7.94500000000016 4.99499999999989 53.5411282304746 10.4450000000002 2.99499999999989 53.5390282304746 9.84500000000025 1.99499999999989 53.5340282304746 12.6350000000002 -0.105000000000018 53.5322282304746 10.9450000000002 -2.60500000000002 53.5191282304746 12.335 -3.4050000000002 53.5191282304746 11.0350000000003 -5.30500000000029 53.5091282304746 11.7350000000001 -6.00500000000011 53.5080282304746 10.0450000000001 -8.20499999999993 53.4960282304746 9.04500000000007 -8.00500000000011 53.4946282304746 7.74500000000035 -10.3050000000003 53.4830282304746 6.34500000000025 -9.20499999999993 53.4841282304746 4.64500000000044 -11.605 53.4713282304746 1.35500000000047 -9.50500000000011 53.4719282304746 0.855000000000473 -10.105 53.4686282304746 -1.44499999999971 -8.80500000000029 53.4684282304746 -2.04499999999962 -9.30500000000029 53.4652282304746 -5.74499999999989 -6.9050000000002 53.4661282304746 -5.3449999999998 -5.80500000000029 53.4711282304746 -10.0349999999999 -2.60500000000002 53.4728282304746 -9.33499999999958 -1.9050000000002 53.4770282304746</float_array>
                    <technique_common>
                        <accessor count="168" source="#geometry0-position-array" stride="3">
                            <param name="X" type="float"/>
                            <param name="Y" type="float"/>
                            <param name="Z" type="float"/>
                        </accessor>
                    </technique_common>
                </source>
                <source id="geometry0-normal">
                    <float_array id="geometry0-normal-array" count="504">0.0218576419087534 -0.0174865348181738 -0.999608155524074 0.0148738435530531 -0.0147017708817094 -0.999781289438296 0.0123398756587779 -0.0179685651423372 -0.999762400841046 0.00963987930269302 -0.0185931512481687 -0.999780659671756 0.011761303200823 -0.0156855443046864 -0.999807799252878 0.0100099742990834 -0.0132832625902335 -0.999861668106889 0.00201252986545987 -0.0203382710094297 -0.999791130414692 0.00865776880986677 -0.0175756993635463 -0.999808050493252 0.00395875811890356 -0.0159832958403554 -0.999864422053428 0.00462386362268701 -0.0187528209402995 -0.999813458397105 0.0067212090375962 -0.0169126851333266 -0.999834379500252 0.00254595882163428 -0.0218069129142409 -0.999758959271098 0.000537329485765884 -0.0223006369058521 -0.999751165475998 0.00164999137089835 -0.0250943148142008 -0.999683726431756 0.00304183497503238 -0.0274212272971448 -0.999619339315473 0.0042629066092956 -0.0278376543518233 -0.999603367655106 0.00305182486714063 -0.0258135110372877 -0.999662117424136 0.00534027984912796 -0.0279794193123538 -0.99959423443019 0.00535881931627836 -0.0262260293238147 -0.999641675022326 0.0061210675456543 -0.0260971396097552 -0.999640671359609 0.00635707594199328 -0.0247990266626792 -0.9996722442191 0.0091770259400709 -0.0279943083562779 -0.999565956250286 0.0109359332886599 -0.0260782399723333 -0.999600085415688 0.0135184100792486 -0.0313008291676072 -0.999418586320241 0.0142387885481398 -0.0296729547196829 -0.999458239577265 0.0154528751695784 -0.0233258795242922 -0.999608479352497 0.0200401877461677 -0.0248159371763799 -0.999491150604725 0.0180201226711312 -0.0191835274486503 -0.999653573721189 -0.782196028942134 0.623032400688084 0 -0.782196028942134 0.623032400688084 0 0.57529077729942 0.817948972463581 0 0.57529077729942 0.817948972463581 0 -0.79262398910463 0.609710760849654 0 -0.79262398910463 0.609710760849654 0 0.566272217775632 0.824218281388776 0 0.566272217775632 0.824218281388776 0 -0.588171697675166 0.808736084303102 0 -0.588171697675166 0.808736084303102 0 0.607450107570773 0.794357832977214 0 0.607450107570773 0.794357832977214 0 0.894427190999916 -0.447213595499958 0 0.894427190999916 -0.447213595499958 0 0.624695047554424 0.78086880944303 0 0.624695047554424 0.78086880944303 0 0.857492925712579 -0.514495755427469 0 0.857492925712579 -0.514495755427469 0 0.601373682742813 0.798967892786904 0 0.601373682742813 0.798967892786904 0 0.828464304580025 -0.560041869896115 0 0.828464304580025 -0.560041869896115 0 0.498822531767818 0.866704148946308 0 0.498822531767818 0.866704148946308 0 0.8253072612499 -0.564683915591891 0 0.8253072612499 -0.564683915591891 0 0.707106781186548 0.707106781186548 0 0.707106781186548 0.707106781186548 0 0.793025823823551 -0.60918801920998 0 0.793025823823551 -0.60918801920998 0 -0.196116135138013 -0.980580675690955 0 -0.196116135138013 -0.980580675690955 0 0.870562838720195 -0.492057256667794 0 0.870562838720195 -0.492057256667794 0 -0.617821551932005 -0.786318338822343 0 -0.617821551932005 -0.786318338822343 0 0.816024481101695 -0.578017340780283 0 0.816024481101695 -0.578017340780283 0 -0.538035452921853 -0.842922209577596 0 -0.538035452921853 -0.842922209577596 0 0.768221279597328 -0.640184399664537 0 0.768221279597328 -0.640184399664537 0 -0.492057256667794 -0.870562838720195 0 -0.492057256667794 -0.870562838720195 0 0.640184399664537 -0.768221279597328 0 0.640184399664537 -0.768221279597328 0 -0.544191105099008 -0.838961287027668 0 -0.544191105099008 -0.838961287027668 0 -0.939793423488403 0.341743063086798 0 -0.939793423488403 0.341743063086798 0 -0.563610053289835 -0.826040984352853 0 -0.563610053289834 -0.826040984352853 0 -0.707106781186318 0.707106781186777 0 -0.707106781186318 0.707106781186777 0 -0.618872226603479 -0.785491672227563 0 -0.618872226603479 -0.785491672227563 0 -0.782196028942134 0.623032400688084 0 -0.782196028942134 0.623032400688084 0 0.57529077729942 0.817948972463581 0 0.57529077729942 0.817948972463581 0 -0.79262398910463 0.609710760849654 0 -0.79262398910463 0.609710760849654 0 0.566272217775632 0.824218281388776 0 0.566272217775632 0.824218281388776 0 -0.588171697675166 0.808736084303102 0 -0.588171697675166 0.808736084303102 0 0.607450107570773 0.794357832977214 0 0.607450107570773 0.794357832977214 0 0.894427190999916 -0.447213595499958 0 0.894427190999916 -0.447213595499958 0 0.624695047554424 0.78086880944303 0 0.624695047554424 0.78086880944303 0 0.857492925712579 -0.514495755427469 0 0.857492925712579 -0.514495755427469 0 0.601373682742813 0.798967892786905 0 0.601373682742813 0.798967892786904 0 0.828464304580024 -0.560041869896115 0 0.828464304580025 -0.560041869896115 0 0.498822531767818 0.866704148946308 0 0.498822531767818 0.866704148946308 0 0.8253072612499 -0.564683915591891 0 0.8253072612499 -0.564683915591891 0 0.707106781186548 0.707106781186548 0 0.707106781186548 0.707106781186548 0 0.793025823823551 -0.60918801920998 0 0.793025823823551 -0.60918801920998 0 -0.196116135138013 -0.980580675690955 0 -0.196116135138013 -0.980580675690955 0 0.870562838720195 -0.492057256667794 0 0.870562838720195 -0.492057256667794 0 -0.617821551932005 -0.786318338822343 0 -0.617821551932005 -0.786318338822343 0 0.816024481101695 -0.578017340780283 0 0.816024481101695 -0.578017340780283 0 -0.538035452921853 -0.842922209577596 0 -0.538035452921853 -0.842922209577596 0 0.768221279597328 -0.640184399664537 0 0.768221279597328 -0.640184399664537 0 -0.492057256667794 -0.870562838720195 0 -0.492057256667794 -0.870562838720195 0 0.640184399664537 -0.768221279597328 0 0.640184399664537 -0.768221279597328 0 -0.544191105099008 -0.838961287027668 0 -0.544191105099008 -0.838961287027668 0 -0.939793423488403 0.341743063086798 0 -0.939793423488403 0.341743063086798 0 -0.563610053289834 -0.826040984352853 0 -0.563610053289835 -0.826040984352853 0 -0.707106781186318 0.707106781186777 0 -0.707106781186318 0.707106781186777 0 -0.618872226603479 -0.785491672227563 0 -0.618872226603479 -0.785491672227563 0 -0.00220563802799543 -0.00376099297303323 0.999990495001201 -0.00220808393230583 -0.00376001713790456 0.999990493273046 -0.00219899208592229 -0.00374922146555412 0.999990553841489 -0.00218036619937816 -0.00370736081192256 0.999990750696749 -0.00220852589714674 -0.00375723515628099 0.999990502753572 -0.00222259450354448 -0.00378462464531887 0.999990368298599 -0.00220742573282366 -0.00377124058933458 0.999990452462448 -0.00220118688346812 -0.00376321668280654 0.999990496443092 -0.00213511550373696 -0.00371888472549469 0.999990805546823 -0.0021871418346399 -0.00375869980344346 0.999990544248486 -0.00218641031735637 -0.00376193702192504 0.999990533675078 -0.00219541820247226 -0.00376567548770919 0.999990499868393 -0.00217330183933465 -0.00377611194584276 0.999990508823803 -0.00217225966166097 -0.00377512714411628 0.99999051480652 -0.00219608635304514 -0.0037674999825927 0.9999904915291 -0.00217614787678918 -0.0037743066468186 0.999990509449842 -0.00218478008032001 -0.00377823045884863 0.999990475809945 -0.00219997879230707 -0.00379996336853003 0.999990360139392 -0.00221430357164928 -0.00376852536586156 0.999990447492505 -0.00221871248821712 -0.00376169445918896 0.999990463439372 -0.00220316969736523 -0.00375100622212435 0.999990537953038 -0.00217239388001623 -0.00368962135177514 0.999990833657544 -0.00219502362520975 -0.00375221529569082 0.999990551331191 -0.00219754752469726 -0.00376288220688212 0.999990505706116 -0.00219439184944867 -0.00375574037464033 0.999990539484574 -0.00220543804013671 -0.0037644784575799 0.999990482327204 -0.0022179761471071 -0.00378196618455282 0.999990388610606 -0.00220899300114988 -0.00376686149740585 0.999990465506737</float_array>
                    <technique_common>
                        <accessor count="168" source="#geometry0-normal-array" stride="3">
                            <param name="X" type="float"/>
                            <param name="Y" type="float"/>
                            <param name="Z" type="float"/>
                        </accessor>
                    </technique_common>
                </source>
                <source id="geometry0-texcoord">
                    <float_array id="geometry0-texcoord-array" count="336">0 0 0 0 0 0 0 0 0 0 0 0 0 0 0 0 0 0 0 0 0 0 0 0 0 0 0 0 0 0 0 0 0 0 0 0 0 0 0 0 0 0 0 0 0 0 0 0 0 0 0 0 0 0 0 0 0.0458984375 0 0 0 0.01953125 0.353515625 0 0.3540306640625 0.0234375 0.353588671875 0.01953125 0.353515625 0.0498046875 0.353515625 0.0234375 0.35448515625 0.0546875 0 0.0498046875 0.000115429687499987 0.072265625 0.384765625 0.0498046875 0.385384375 0.076171875 0 0.072265625 0.000140039062499985 0.0927734375 0 0.076171875 0.000443750000000013 0.09765625 0 0.0927734375 0.000134179687499985 0.1162109375 0 0.09765625 0.000566406250000001 0.1298828125 0 0.1162109375 0.000289453125000022 0.1376953125 0 0.1298828125 0.000155859374999983 0.1259765625 0.482421875 0.1162109375 0.4827828125 0.09765625 0.447265625 0.0927734375 0.44747578125 0.1376953125 0.51953125 0.1259765625 0.51998046875 0.142578125 0.000101562499999989 0.1376953125 0 0.1494140625 0.5078125 0.1376953125 0.5083302734375 0.158203125 0.000366406250000018 0.1494140625 0 0.162109375 0.5234375 0.1494140625 0.523896484375 0.1826171875 0.000782031249999976 0.162109375 0 0.1611328125 0 0.158203125 7.96874999999912E-05 0.1962890625 0.000605859374999994 0.1826171875 0 0.0751953125 0.466796875 0.072265625 0.46683671875 0.21875 0.00124882812499998 0.1962890625 0 0.146484375 0.00017773437499998 0.142578125 0 0.248046875 0.00176874999999999 0.21875 0 0.048828125 3.16406249999965E-05 0.0458984375 0 0.26953125 0.00120742187499999 0.248046875 0 0.0458984375 0.3531267578125 0 0.353515625 0.01953125 0.92578125 0 0.92578125 0.0234375 0.7187134765625 0.01953125 0.71875 0.0498046875 0.923828125 0.0234375 0.923828125 0.0546875 0.3847271484375 0.0498046875 0.384765625 0.072265625 0.947265625 0.0498046875 0.947265625 0.076171875 0.466796875 0.072265625 0.4667501953125 0.0927734375 0.5546875 0.076171875 0.5546875 0.09765625 0.447265625 0.0927734375 0.4472208984375 0.1162109375 0.56640625 0.09765625 0.56640625 0.1298828125 0.482421875 0.1162109375 0.482325390625 0.1376953125 0.51953125 0.1298828125 0.51953125 0.1259765625 0.93359375 0.1162109375 0.933503515625 0.09765625 0.97265625 0.0927734375 0.97265625 0.1376953125 0.96875 0.1259765625 0.96866015625 0.142578125 0.5078125 0.1376953125 0.5078125 0.1494140625 0.978515625 0.1376953125 0.978421484375 0.158203125 0.5234375 0.1494140625 0.5234375 0.162109375 0.982421875 0.1494140625 0.982330078125 0.1826171875 0.55859375 0.162109375 0.55859375 0.1611328125 0.3984375 0.158203125 0.39839765625 0.1962890625 0.55078125 0.1826171875 0.55078125 0.0751953125 0.865234375 0.072265625 0.86519453125 0.21875 0.54296875 0.1962890625 0.54296875 0.146484375 0.355433203125 0.142578125 0.35546875 0.248046875 0.552734375 0.21875 0.552734375 0.048828125 0.316374609375 0.0458984375 0.31640625 0.26953125 0.548828125 0.248046875 0.548828125 0.270217535064112 0.242246177574109 0.35541492372061 0.45624664699471 0.384827140748169 0.414858838518314 0.391689991387931 0.43270855686595 0.431788647268839 0.37759019581445 0.44257312684561 0.39328225590029 0.475906972810178 0.342283060621324 0.471985343873169 0.326591000535483 0.496495524729469 0.287360850320892 0.490613081323958 0.267745775213597 0.517966443159588 0.226554117488278 0.501397560900729 0.177516429720039 0.51502522145683 0.161824369634199 0.502279927411557 0.124555726930335 0.509142778051319 0.110825174355232 0.49257389579246 0.0676720091191851 0.48276982344994 0.0715950241406406 0.470024529404667 0.0264803513938572 0.456298828125138 0.0480569340118895 0.439631905142856 0.000980753754378239 0.407376507135966 0.0421724114796972 0.402474470964707 0.0304033664153216 0.379925104576909 0.0559029640548006 0.374042661171398 0.0460954265011528 0.337767593504072 0.093171606758664 0.341689222441081 0.114748189376687 0.295708123154662 0.177516429720039 0.302570973794429 0.191246982295142</float_array>
                    <technique_common>
                        <accessor count="168" source="#geometry0-texcoord-array" stride="2">
                            <param name="S" type="float"/>
                            <param name="T" type="float"/>
                        </accessor>
                    </technique_common>
                </source>
                <vertices id="geometry0-vertex">
                    <input semantic="POSITION" source="#geometry0-position"/>
                    <input semantic="NORMAL" source="#geometry0-normal"/>
                </vertices>
                <triangles count="108" material="material0-symbol">
                    <input offset="0" semantic="VERTEX" source="#geometry0-vertex" set="0"/>
                    <input offset="0" semantic="TEXCOORD" source="#geometry0-texcoord" set="0"/>
                    <p>19 20 18 20 22 9 21 22 20 11 18 20 18 16 17 7 22 25 15 16 13 16 18 11 24 22 23 15 13 14 2 25 27 25 22 24 11 13 16 20 9 11 11 12 13 27 0 1 27 25 26 7 9 22 9 10 11 4 7 25 7 8 9 4 25 2 7 5 6 5 7 4 1 2 27 3 4 2 28 85 29 28 84 85 30 87 31 30 86 87 32 89 33 32 88 89 34 91 35 34 90 91 36 93 37 36 92 93 38 95 39 38 94 95 40 97 41 40 96 97 42 99 43 42 98 99 44 101 45 44 100 101 46 103 47 46 102 103 48 105 49 48 104 105 50 107 51 50 106 107 52 109 53 52 108 109 54 111 55 54 110 111 56 113 57 56 112 113 58 115 59 58 114 115 60 117 61 60 116 117 62 119 63 62 118 119 64 121 65 64 120 121 66 123 67 66 122 123 68 125 69 68 124 125 70 127 71 70 126 127 72 129 73 72 128 129 74 131 75 74 130 131 76 133 77 76 132 133 78 135 79 78 134 135 80 137 81 80 136 137 82 139 83 82 138 139 159 158 160 160 149 162 161 160 162 151 160 158 158 157 156 147 165 162 155 153 156 156 151 158 164 163 162 155 154 153 142 167 165 165 164 162 151 156 153 160 151 149 151 153 152 167 141 140 167 166 165 147 162 149 149 151 150 144 165 147 147 149 148 144 142 165 147 146 145 145 144 147 141 167 142 143 142 144</p>
                </triangles>
            </mesh>
        </geometry>
    </library_geometries>
    <library_visual_scenes>
        <visual_scene id="visual-scene">
            <node>
                <instance_geometry url="#geometry0">
                    <bind_material>
                        <technique_common>
                            <instance_material symbol="material0-symbol" target="#material0"/>
                        </technique_common>
                    </bind_material>
                </instance_geometry>
            </node>
        </visual_scene>
    </library_visual_scenes>
    <scene>
        <instance_visual_scene url="#visual-scene"/>
    </scene>
</COLLADA>
