<?xml version="1.0"?>
<COLLADA xmlns="http://www.collada.org/2005/11/COLLADASchema" version="1.4.1">
    <asset>
        <up_axis>Z_UP</up_axis>
    </asset>
    <library_materials>
        <material id="material0">
            <instance_effect url="#effect0"/>
        </material>
    </library_materials>
    <library_effects>
        <effect id="effect0">
            <profile_COMMON>
                <newparam sid="image0-surface">
                    <surface type="2D">
                        <init_from>image0</init_from>
                    </surface>
                </newparam>
                <newparam sid="image0-sampler">
                    <sampler2D>
                        <source>image0-surface</source>
                    </sampler2D>
                </newparam>
                <technique sid="technique-phong">
                    <phong>
                        <emission>
                            <color>1 1 1 1</color>
                        </emission>
                        <ambient>
                            <color>1 1 1 1</color>
                        </ambient>
                        <diffuse>
                            <texture texture="image0-sampler" texcoord="TEXCOORD"/>
                        </diffuse>
                        <specular>
                            <color>1 1 1 1</color>
                        </specular>
                        <shininess>
                            <float>0</float>
                        </shininess>
                    </phong>
                </technique>
                <extra>
                    <technique profile="GOOGLEEARTH">
                        <double_sided>0</double_sided>
                    </technique>
                </extra>
            </profile_COMMON>
        </effect>
    </library_effects>
    <library_images>
        <image id="image0" height="0" width="0">
            <init_from>8257.png</init_from>
        </image>
    </library_images>
    <library_geometries>
        <geometry id="geometry0">
            <mesh>
                <source id="geometry0-position">
                    <float_array id="geometry0-position-array" count="402">-16.2399999999998 -3.10000000000036 -0.135259771343044 -15.8399999999997 -2.07000000000016 -0.124176263809204 -15.54 -1.30000000000018 -0.119125652314324 -16.3399999999997 -0.600000000000364 -0.129869937896729 -6.9399999999996 15.0899999999997 0.0602803707097337 -5.25999999999976 14.9899999999998 0.0677387714367796 -4.64999999999964 15.79 0.081628465652102 1.65000000000009 11.8999999999996 -0.0236635208148073 2.75 13.0899999999997 -0.0459743022929615 10.6500000000001 7.89999999999964 -0.0928938388842653 10.0500000000002 6.69999999999982 -0.0897858142852783 15.9400000000001 2.79999999999973 0.0082299232508376 15.04 1.19999999999982 0.0509757041927514 16.3400000000001 0.599999999999909 0.118292903895053 5.95000000000027 -15.3000000000002 0.298606395728712 5.15000000000009 -14.8000000000002 0.195989847183228 4.49000000000024 -15.3400000000001 0.132830572129023 3.95000000000027 -15.79 0.0439460277193575 -2.34999999999991 -11.9000000000001 -0.127979278564453 -3.04999999999973 -12.8000000000002 -0.155543565750122 -10.7399999999998 -8.10000000000036 -0.11623616218094 -10.4399999999996 -7.10000000000036 -0.11960372925023 -16.2399999999998 -3.10000000000036 -0.135259771343044 -15.8399999999997 -2.07000000000016 -0.124176263809204 -15.8399999999997 -2.07000000000016 -0.124176263809204 -15.54 -1.30000000000018 -0.119125652314324 -15.54 -1.30000000000018 -0.119125652314324 -16.3399999999997 -0.600000000000364 -0.129869937896729 -16.3399999999997 -0.600000000000364 -0.129869937896729 -6.9399999999996 15.0899999999997 0.0602803707097337 -6.9399999999996 15.0899999999997 0.0602803707097337 -5.25999999999976 14.9899999999998 0.0677387714367796 -5.25999999999976 14.9899999999998 0.0677387714367796 -4.64999999999964 15.79 0.081628465652102 -4.64999999999964 15.79 0.081628465652102 1.65000000000009 11.8999999999996 -0.0236635208148073 1.65000000000009 11.8999999999996 -0.0236635208148073 2.75 13.0899999999997 -0.0459743022929615 2.75 13.0899999999997 -0.0459743022929615 10.6500000000001 7.89999999999964 -0.0928938388842653 10.6500000000001 7.89999999999964 -0.0928938388842653 10.0500000000002 6.69999999999982 -0.0897858142852783 10.0500000000002 6.69999999999982 -0.0897858142852783 15.9400000000001 2.79999999999973 0.0082299232508376 15.9400000000001 2.79999999999973 0.0082299232508376 15.04 1.19999999999982 0.0509757041927514 15.04 1.19999999999982 0.0509757041927514 16.3400000000001 0.599999999999909 0.118292903895053 16.3400000000001 0.599999999999909 0.118292903895053 5.95000000000027 -15.3000000000002 0.298606395728712 5.95000000000027 -15.3000000000002 0.298606395728712 5.15000000000009 -14.8000000000002 0.195989847183228 5.15000000000009 -14.8000000000002 0.195989847183228 4.49000000000024 -15.3400000000001 0.132830572129023 4.49000000000024 -15.3400000000001 0.132830572129023 3.95000000000027 -15.79 0.0439460277193575 3.95000000000027 -15.79 0.0439460277193575 -2.34999999999991 -11.9000000000001 -0.127979278564453 -2.34999999999991 -11.9000000000001 -0.127979278564453 -3.04999999999973 -12.8000000000002 -0.155543565750122 -3.04999999999973 -12.8000000000002 -0.155543565750122 -10.7399999999998 -8.10000000000036 -0.11623616218094 -10.7399999999998 -8.10000000000036 -0.11623616218094 -10.4399999999996 -7.10000000000036 -0.11960372925023 -10.4399999999996 -7.10000000000036 -0.11960372925023 -16.2399999999998 -3.10000000000036 -0.135259771343044 -16.2399999999998 -3.10000000000036 19.4306592853546 -15.8399999999997 -2.07000000000016 19.6956592853546 -15.8399999999997 -2.07000000000016 19.6956592853546 -15.54 -1.30000000000018 19.6478592853546 -15.54 -1.30000000000018 19.6478592853546 -16.3399999999997 -0.600000000000364 19.4252592853546 -16.3399999999997 -0.600000000000364 19.4252592853546 -6.9399999999996 15.0899999999997 19.3229592853546 -6.9399999999996 15.0899999999997 19.3229592853546 -5.25999999999976 14.9899999999998 19.6726592853546 -5.25999999999976 14.9899999999998 19.6726592853546 -4.64999999999964 15.79 19.4360592853546 -4.64999999999964 15.79 19.4360592853546 1.65000000000009 11.8999999999996 19.4422592853546 1.65000000000009 11.8999999999996 19.4422592853546 2.75 13.0899999999997 19.0162592853546 2.75 13.0899999999997 19.0162592853546 10.6500000000001 7.89999999999964 19.0943592853546 10.6500000000001 7.89999999999964 19.0943592853546 10.0500000000002 6.69999999999982 19.4505592853546 10.0500000000002 6.69999999999982 19.4505592853546 15.9400000000001 2.79999999999973 19.5125592853546 15.9400000000001 2.79999999999973 19.5125592853546 15.04 1.19999999999982 19.8486592853546 15.04 1.19999999999982 19.8486592853546 16.3400000000001 0.599999999999909 19.5221592853546 16.3400000000001 0.599999999999909 19.5221592853546 5.95000000000027 -15.3000000000002 19.4675592853546 5.95000000000027 -15.3000000000002 19.4675592853546 5.15000000000009 -14.8000000000002 19.6853592853546 5.15000000000009 -14.8000000000002 19.6853592853546 4.49000000000024 -15.3400000000001 19.7481592853546 4.49000000000024 -15.3400000000001 19.7481592853546 3.95000000000027 -15.79 19.5797592853546 3.95000000000027 -15.79 19.5797592853546 -2.34999999999991 -11.9000000000001 19.5201592853546 -2.34999999999991 -11.9000000000001 19.5201592853546 -3.04999999999973 -12.8000000000002 19.2264592853546 -3.04999999999973 -12.8000000000002 19.2264592853546 -10.7399999999998 -8.10000000000036 19.1392592853546 -10.7399999999998 -8.10000000000036 19.1392592853546 -10.4399999999996 -7.10000000000036 19.3973592853546 -10.4399999999996 -7.10000000000036 19.3973592853546 -16.2399999999998 -3.10000000000036 19.4306592853546 -16.2399999999998 -3.10000000000036 19.4306592853546 -15.8399999999997 -2.07000000000016 19.6956592853546 -15.54 -1.30000000000018 19.6478592853546 -16.3399999999997 -0.600000000000364 19.4252592853546 -6.9399999999996 15.0899999999997 19.3229592853546 -5.25999999999976 14.9899999999998 19.6726592853546 -4.64999999999964 15.79 19.4360592853546 1.65000000000009 11.8999999999996 19.4422592853546 2.75 13.0899999999997 19.0162592853546 10.6500000000001 7.89999999999964 19.0943592853546 10.0500000000002 6.69999999999982 19.4505592853546 15.9400000000001 2.79999999999973 19.5125592853546 15.04 1.19999999999982 19.8486592853546 16.3400000000001 0.599999999999909 19.5221592853546 5.95000000000027 -15.3000000000002 19.4675592853546 5.15000000000009 -14.8000000000002 19.6853592853546 4.49000000000024 -15.3400000000001 19.7481592853546 3.95000000000027 -15.79 19.5797592853546 -2.34999999999991 -11.9000000000001 19.5201592853546 -3.04999999999973 -12.8000000000002 19.2264592853546 -10.7399999999998 -8.10000000000036 19.1392592853546 -10.4399999999996 -7.10000000000036 19.3973592853546 0.300000000000182 -0.350000000000364 22.3891592853546 0.700000000000273 -0.450000000000273 22.3957592853546</float_array>
                    <technique_common>
                        <accessor count="134" source="#geometry0-position-array" stride="3">
                            <param name="X" type="float"/>
                            <param name="Y" type="float"/>
                            <param name="Z" type="float"/>
                        </accessor>
                    </technique_common>
                </source>
                <source id="geometry0-normal">
                    <float_array id="geometry0-normal-array" count="402">0.00798205089614313 0.00766020280501536 -0.999938802205654 0.00654307360563113 0.00611535711635154 -0.99995989449334 0.00455409115270018 0.00680348091440055 -0.999966485889012 0.0157664897041582 0.00267182862537189 -0.999872131391912 0.0103517638576937 0.00551363721464809 -0.99993121802937 -0.00181723514766112 0.0147583938379088 -0.999889437621852 -0.00407345345297167 0.0204643460345989 -0.999782285059274 -0.00379143053146079 0.00681684322775646 -0.999969577388699 -0.00906954030447059 -0.00350519613682544 -0.999952727402005 -0.00575138086474655 0.000285712876130699 -0.9999834198557 -0.00120279584418026 -0.00755563763862571 -0.999970732382719 -0.000763874281203305 -0.0262772007940088 -0.999654402888575 0.0345084351304386 -0.0325776753563525 -0.998873296756513 0.0357182104350772 -0.034666804362801 -0.998760442808278 0.0618460079312722 -0.049032632557423 -0.996880570704161 0.0600097569700406 -0.0162664862036561 -0.99806524360634 0.0724885301531259 0.0686963910068336 -0.995000612491709 0.0850390732783506 0.0938832299892648 -0.991944703671904 0.0247624315838979 0.0161437316582704 -0.999563005472991 0.00922001702123654 0.0234461399328586 -0.999682584527897 0.00332285026688409 0.0104266123552024 -0.999940120417667 0.00304236277442201 0.0033487406235034 -0.999989764930114 -0.932174412802324 0.362009480699944 0 -0.931909856449935 0.362689977048527 0 -0.931909856449935 0.362689977048527 0 -0.931777391985429 0.363030152721274 0 -0.658504607868548 -0.752576694706851 0 -0.658504607868548 -0.752576694706851 0 -0.857830431540112 0.51393282705399 0 -0.857830431540112 0.51393282705399 0 0.0594186399841672 0.99823315173482 0 -0.569298575819668 0.82213084820465 0 -0.569298575819668 0.82213084820465 0 -0.795203484748352 0.606342657120607 0 0.52537786047673 0.85086902853547 0 0.52537786047673 0.85086902853547 0 -0.734330102294373 0.678792531532526 0 -0.734330102294373 0.678792531532526 0 0.549072329261345 0.835774836447905 0 0.549072329261345 0.835774836447905 0 0.894427190999916 -0.447213595499958 0 0.894427190999916 -0.447213595499958 0 0.552084044434349 0.833788467107223 0 0.552084044434349 0.833788467107223 0 0.871575537124516 -0.490261239632618 0 0.871575537124516 -0.490261239632618 0 0.419058177461646 0.907959384500498 0 0.419058177461646 0.907959384500498 0 0.837117982256175 -0.547022379600095 0 0.837117982256175 -0.547022379600095 0 -0.529998940003093 -0.847998304005142 0 -0.529998940003093 -0.847998304005142 0 0.633237790257321 -0.773957299203274 0 0.637874615241669 -0.770140230886747 0 0.637874615241669 -0.770140230886747 0 0.640184399664353 -0.768221279597482 0 -0.525377860476658 -0.850869028535514 0 -0.525377860476658 -0.850869028535514 0 0.789352217376434 -0.613940613514782 0 0.789352217376434 -0.613940613514782 0 -0.521494889956733 -0.853254405056906 0 -0.521494889956733 -0.853254405056906 0 -0.957826285221103 0.287347885566505 0 -0.957826285221103 0.287347885566505 0 -0.567732955803647 -0.823212785915315 0 -0.567732955803648 -0.823212785915315 0 -0.932174412802324 0.362009480699944 0 -0.93204219673987 0.362349752996076 0 -0.93204219673987 0.362349752996076 0 -0.931777391985429 0.363030152721274 0 -0.658504607868548 -0.752576694706851 0 -0.658504607868548 -0.752576694706851 0 -0.857830431540112 0.51393282705399 0 -0.857830431540112 0.51393282705399 0 0.0594186399841672 0.99823315173482 0 -0.251507023072095 0.967855473376791 0 -0.251507023072095 0.967855473376791 0 -0.795203484748352 0.606342657120607 0 0.52537786047673 0.85086902853547 0 0.52537786047673 0.85086902853547 0 -0.734330102294373 0.678792531532526 0 -0.734330102294373 0.678792531532526 0 0.549072329261344 0.835774836447905 0 0.549072329261345 0.835774836447905 0 0.894427190999916 -0.447213595499958 0 0.894427190999916 -0.447213595499958 0 0.552084044434349 0.833788467107223 0 0.552084044434349 0.833788467107223 0 0.871575537124516 -0.490261239632618 0 0.871575537124516 -0.490261239632618 0 0.419058177461646 0.907959384500498 0 0.419058177461646 0.907959384500498 0 0.837117982256175 -0.547022379600095 0 0.837117982256175 -0.547022379600095 0 -0.529998940003093 -0.847998304005142 0 -0.529998940003093 -0.847998304005142 0 0.633237790257321 -0.773957299203274 0 0.635559057892077 -0.772052254663721 0 0.635559057892077 -0.772052254663721 0 0.640184399664353 -0.768221279597482 0 -0.525377860476658 -0.850869028535514 0 -0.525377860476658 -0.850869028535514 0 0.789352217376434 -0.613940613514782 0 0.789352217376434 -0.613940613514782 0 -0.521494889956733 -0.853254405056906 0 -0.521494889956733 -0.853254405056906 0 -0.957826285221103 0.287347885566505 0 -0.957826285221103 0.287347885566505 0 -0.567732955803647 -0.823212785915315 0 -0.567732955803647 -0.823212785915315 0 -0.131520633269523 -0.198789967222822 0.971177054895724 -0.15111636130931 -0.0933736563118585 0.984096136386882 -0.175843292210902 0.11743113465106 0.977388901716709 -0.174926551176282 0.111178333979803 0.978284253040519 -0.18262603674843 0.108072260206513 0.977224701527452 0.0179360446411861 0.174194029800616 0.984547986786044 0.120176763261626 0.196181824072111 0.973175337478144 0.112580278489698 0.217152058158172 0.969623981001322 0.135095670114412 0.219996241361343 0.966100829987854 0.134649392015407 0.219498339363879 0.966276368461105 0.129315661754007 0.204098039426442 0.970371810146712 0.0921423089613347 0.154795869714055 0.983640195202872 0.162292803083533 -0.00350899246902781 0.986736405043992 0.186823193195111 -0.12542721312229 0.974353687678534 0.186841817880516 -0.125437360971383 0.974348810007812 0.189399578390433 -0.125003862506611 0.97391058833137 -0.0258645092478567 -0.179942346645743 0.983337062784166 -0.134031615464082 -0.20220553862476 0.970128056601581 -0.126347989236374 -0.209974458120676 0.96950859333626 -0.138331620927756 -0.208370543845462 0.968217991523111 -0.138336564423682 -0.208381771573204 0.96821486882792 -0.136975837206551 -0.205772852753062 0.968966022671296 -0.0932658802296136 0.0191298558710158 0.995457444695327 0.0730935131266626 -0.00393306210543204 0.997317336338478</float_array>
                    <technique_common>
                        <accessor count="134" source="#geometry0-normal-array" stride="3">
                            <param name="X" type="float"/>
                            <param name="Y" type="float"/>
                            <param name="Z" type="float"/>
                        </accessor>
                    </technique_common>
                </source>
                <source id="geometry0-texcoord">
                    <float_array id="geometry0-texcoord-array" count="268">0 0 0 0 0 0 0 0 0 0 0 0 0 0 0 0 0 0 0 0 0 0 0 0 0 0 0 0 0 0 0 0 0 0 0 0 0 0 0 0 0 0 0 0 0.0078125 0 0 8.32031250000062E-05 0.005859375 0.138671875 0 0.1387134765625 0.009765625 0.2774345703125 0 0.27734375 0.140625 0 0.0078125 0.00136406250000001 0.015625 0.458984375 0 0.45905703125 0.01171875 0.140625 0.005859375 0.140704296875 0.080078125 0.25489765625 0.009765625 0.25390625 0.009765625 0.64075390625 0 0.640625 0.08984375 0.7582484375 0 0.7578125 0.02734375 0.4375 0.015625 0.437533984375 0.09375 0.4375 0.02734375 0.43841796875 0.09765625 0.140625 0.080078125 0.141041796875 0.103515625 0.62109375 0.08984375 0.62173125 0.26953125 0.80859375 0.08984375 0.8102830078125 0.103515625 0.3311443359375 0.09375 0.330078125 0.10546875 0.1412 0.09765625 0.140625 0.109375 0.32105078125 0.103515625 0.3203125 0.18359375 0.4862271484375 0.103515625 0.484375 0.115234375 0.14086015625 0.10546875 0.140625 0.212890625 0.140625 0.115234375 0.14104296875 0.0234375 0.60745078125 0.015625 0.607421875 0.2578125 0.3497734375 0.18359375 0.349609375 0.0078125 0.136813671875 0 0.138671875 0.005859375 0.27734375 0 0.2770109375 0.009765625 0.458984375 0 0.4569318359375 0.140625 0.140625 0.0078125 0.13989375 0.015625 0.637391796875 0 0.640625 0.01171875 0.25390625 0.005859375 0.252535546875 0.080078125 0.437444921875 0.009765625 0.4375 0.009765625 0.7578125 0 0.75524609375 0.08984375 0.9387083984375 0 0.939453125 0.02734375 0.604329296875 0.015625 0.607421875 0.09375 0.62050625 0.02734375 0.62109375 0.09765625 0.3268763671875 0.080078125 0.330078125 0.103515625 0.80859375 0.08984375 0.8055 0.26953125 0.990234375 0.08984375 0.98972578125 0.103515625 0.528996875 0.09375 0.53125 0.10546875 0.3197375 0.09765625 0.3203125 0.109375 0.484375 0.103515625 0.48298046875 0.18359375 0.697265625 0.103515625 0.696626953125 0.115234375 0.30859375 0.10546875 0.306091015625 0.212890625 0.349609375 0.115234375 0.3486689453125 0.0234375 0.7500453125 0.015625 0.751953125 0.2578125 0.5543388671875 0.18359375 0.5546875 0.260947027439289 0.249809000393634 0.268783346036852 0.269989649052943 0.274660584985017 0.285076153390482 0.2589879477899 0.298791157333696 0.443141434832587 0.606203174289531 0.47605397294234 0.60424388801193 0.488004358803623 0.619918178232754 0.611426376715204 0.54370194203401 0.632976252858495 0.567017448737481 0.787743545160327 0.465330490929909 0.775989067263988 0.441819055598683 0.891378858613071 0.365406890772183 0.873747141768557 0.334058310330545 0.899215177210634 0.322302592664932 0.695666801638989 0.0107760745261313 0.679994164443863 0.0205725059141438 0.66706423875789 0.00999236001509101 0.656485208651183 0.00117557176588329 0.533063190739594 0.0773918079646183 0.519349633193865 0.059758231466194 0.368696408155753 0.151844686513508 0.374573647103927 0.171437549289533 0.584978801448437 0.303689373027702 0.592815120046 0.301730086750102</float_array>
                    <technique_common>
                        <accessor count="134" source="#geometry0-texcoord-array" stride="2">
                            <param name="S" type="float"/>
                            <param name="T" type="float"/>
                        </accessor>
                    </technique_common>
                </source>
                <vertices id="geometry0-vertex">
                    <input semantic="POSITION" source="#geometry0-position"/>
                    <input semantic="NORMAL" source="#geometry0-normal"/>
                </vertices>
                <triangles count="88" material="material0-symbol">
                    <input offset="0" semantic="VERTEX" source="#geometry0-vertex" set="0"/>
                    <input offset="0" semantic="TEXCOORD" source="#geometry0-texcoord" set="0"/>
                    <p>15 16 18 12 14 15 15 18 12 17 18 16 7 18 21 20 18 19 2 7 21 21 18 20 1 21 0 2 21 1 3 4 2 14 12 13 18 10 12 10 18 7 10 11 12 2 5 7 10 8 9 8 10 7 4 5 2 6 7 5 22 67 23 22 66 67 24 69 25 24 68 69 26 71 27 26 70 71 28 73 29 28 72 73 30 75 31 30 74 75 32 77 33 32 76 77 34 79 35 34 78 79 36 81 37 36 80 81 38 83 39 38 82 83 40 85 41 40 84 85 42 87 43 42 86 87 44 89 45 44 88 89 46 91 47 46 90 91 48 93 49 48 92 93 50 95 51 50 94 95 52 97 53 52 96 97 54 99 55 54 98 99 56 101 57 56 100 101 58 103 59 58 102 103 60 105 61 60 104 105 62 107 63 62 106 107 64 109 65 64 108 109 133 126 125 122 125 124 122 133 125 127 126 128 132 131 128 130 129 128 111 132 112 131 130 128 111 110 131 111 131 132 113 112 114 128 133 132 128 126 133 112 132 114 133 120 117 124 123 122 133 122 120 118 120 119 120 122 121 117 132 133 118 117 120 115 132 117 114 132 115 116 115 117</p>
                </triangles>
            </mesh>
        </geometry>
    </library_geometries>
    <library_visual_scenes>
        <visual_scene id="visual-scene">
            <node>
                <instance_geometry url="#geometry0">
                    <bind_material>
                        <technique_common>
                            <instance_material symbol="material0-symbol" target="#material0"/>
                        </technique_common>
                    </bind_material>
                </instance_geometry>
            </node>
        </visual_scene>
    </library_visual_scenes>
    <scene>
        <instance_visual_scene url="#visual-scene"/>
    </scene>
</COLLADA>
