<?xml version="1.0"?>
<COLLADA xmlns="http://www.collada.org/2005/11/COLLADASchema" version="1.4.1">
    <asset>
        <up_axis>Z_UP</up_axis>
    </asset>
    <library_materials>
        <material id="material0">
            <instance_effect url="#effect0"/>
        </material>
    </library_materials>
    <library_effects>
        <effect id="effect0">
            <profile_COMMON>
                <newparam sid="image0-surface">
                    <surface type="2D">
                        <init_from>image0</init_from>
                    </surface>
                </newparam>
                <newparam sid="image0-sampler">
                    <sampler2D>
                        <source>image0-surface</source>
                    </sampler2D>
                </newparam>
                <technique sid="technique-phong">
                    <phong>
                        <emission>
                            <color>1 1 1 1</color>
                        </emission>
                        <ambient>
                            <color>1 1 1 1</color>
                        </ambient>
                        <diffuse>
                            <texture texture="image0-sampler" texcoord="TEXCOORD"/>
                        </diffuse>
                        <specular>
                            <color>1 1 1 1</color>
                        </specular>
                        <shininess>
                            <float>0</float>
                        </shininess>
                    </phong>
                </technique>
                <extra>
                    <technique profile="GOOGLEEARTH">
                        <double_sided>0</double_sided>
                    </technique>
                </extra>
            </profile_COMMON>
        </effect>
    </library_effects>
    <library_images>
        <image id="image0" height="0" width="0">
            <init_from>9215.png</init_from>
        </image>
    </library_images>
    <library_geometries>
        <geometry id="geometry0">
            <mesh>
                <source id="geometry0-position">
                    <float_array id="geometry0-position-array" count="1026">-28.9050000000007 9.90000000000009 -0.377347183226448 -28.5050000000001 12.7000000000003 -0.421997785566418 -26.2050000000008 15.5 -0.479532814024424 -23.2050000000008 16.7000000000003 -0.537032222740891 -20.4050000000007 16.3000000000002 -0.344214010236101 -16.6950000000006 13.2000000000003 -0.220862627029419 -15.4950000000008 14 -0.196316719055176 -10.3950000000004 9.80000000000018 -0.118555784227283 -8.09500000000025 12 -0.0924141407012939 -10.1950000000006 13.9000000000001 -0.119270324707031 -10.8950000000004 15.9000000000001 -0.128764152534131 -5.29500000000007 20.3000000000002 0.0251038074457028 -2.59500000000025 20.0999999999999 0.0206470489483763 -0.895000000000437 21.3000000000002 0.0318615436535765 2.5049999999992 21 0.0404882431048463 4.70499999999993 21.7000000000003 0.0460500717144896 10.5049999999992 17.7000000000003 -0.00397682189759507 12.1049999999996 18.4000000000001 -0.00137424468994141 15.2049999999999 22.4000000000001 0.0136148929577757 19.8049999999994 25.5 -0.0324902534466673 28.3049999999994 18 0.0864429473913333 27.7049999999999 16.9000000000001 0.0691325664538454 28.9049999999997 15.9000000000001 0.110788583757312 26.2049999999999 12.9000000000001 0.0711390972137451 26.7049999999999 12.0999999999999 0.0730421543139528 21.3049999999994 6.30000000000018 0.0833163261413574 20.6049999999996 6.70000000000027 0.0798757076245238 15.8049999999994 1.80000000000018 0.129796981811523 15.1049999999996 2.20000000000027 0.120195388795764 12.8049999999994 -0.0999999999999091 0.13205623626709 9.30499999999938 2.5 0.0795485973358154 8.30499999999938 1.5 0.0780520439147949 5.5049999999992 4.09999999999991 0.0394909381866455 3.60499999999956 2.09999999999991 0.0301766395550658 1.60499999999956 4 0.00663208961304917 0.704999999999927 3.30000000000018 -5.96046629652847E-06 -2.4950000000008 5.80000000000018 -0.0331919193267822 -5.09500000000025 2.5 -0.055342435836792 -0.695000000000618 -1.19999999999982 -0.0047309398651123 0.00499999999919964 -0.599999999999909 0.00124669075194106 8.10499999999956 -8.69999999999982 0.111805677412121 -7.09500000000025 -25.5 -0.196110486987891 -10.1950000000006 -22.6999999999998 -0.0846543312072754 -9.59500000000025 -21.6999999999998 -0.0639510154724121 -14.2950000000001 -16.2999999999997 -0.035416841501501 -12.9950000000008 -14.9000000000001 -0.0349304676055908 -17.9950000000008 -9.59999999999991 -0.215194702146619 -17.4950000000008 -8.69999999999982 -0.191122293470471 -20.0050000000001 -6.09999999999991 -0.255250263215203 -19.4050000000007 -5.29999999999973 -0.237695932388306 -21.9050000000007 -3.19999999999982 -0.263398218157818 -21.3050000000003 -2.40000000000009 -0.241307353973752 -24.0050000000001 -0.400000000000091 -0.210311031341917 -23.2050000000008 0.5 -0.215822553635007 -26.3050000000003 3.20000000000027 -0.228431844712759 -25.2050000000008 3.90000000000009 -0.242943382259909 -27.6050000000005 6.20000000000027 -0.305844879148935 -28.9050000000007 9.90000000000009 -0.377347183226448 -28.5050000000001 12.7000000000003 -0.421997785566418 -28.5050000000001 12.7000000000003 -0.421997785566418 -26.2050000000008 15.5 -0.479532814024424 -26.2050000000008 15.5 -0.479532814024424 -23.2050000000008 16.7000000000003 -0.537032222740891 -23.2050000000008 16.7000000000003 -0.537032222740891 -20.4050000000007 16.3000000000002 -0.344214010236101 -20.4050000000007 16.3000000000002 -0.344214010236101 -16.6950000000006 13.2000000000003 -0.220862627029419 -16.6950000000006 13.2000000000003 -0.220862627029419 -15.4950000000008 14 -0.196316719055176 -15.4950000000008 14 -0.196316719055176 -10.3950000000004 9.80000000000018 -0.118555784227283 -10.3950000000004 9.80000000000018 -0.118555784227283 -8.09500000000025 12 -0.0924141407012939 -8.09500000000025 12 -0.0924141407012939 -10.1950000000006 13.9000000000001 -0.119270324707031 -10.1950000000006 13.9000000000001 -0.119270324707031 -10.8950000000004 15.9000000000001 -0.128764152534131 -10.8950000000004 15.9000000000001 -0.128764152534131 -5.29500000000007 20.3000000000002 0.0251038074457028 -5.29500000000007 20.3000000000002 0.0251038074457028 -2.59500000000025 20.0999999999999 0.0206470489483763 -2.59500000000025 20.0999999999999 0.0206470489483763 -0.895000000000437 21.3000000000002 0.0318615436535765 -0.895000000000437 21.3000000000002 0.0318615436535765 2.5049999999992 21 0.0404882431048463 2.5049999999992 21 0.0404882431048463 4.70499999999993 21.7000000000003 0.0460500717144896 4.70499999999993 21.7000000000003 0.0460500717144896 10.5049999999992 17.7000000000003 -0.00397682189759507 10.5049999999992 17.7000000000003 -0.00397682189759507 12.1049999999996 18.4000000000001 -0.00137424468994141 12.1049999999996 18.4000000000001 -0.00137424468994141 15.2049999999999 22.4000000000001 0.0136148929577757 15.2049999999999 22.4000000000001 0.0136148929577757 19.8049999999994 25.5 -0.0324902534466673 19.8049999999994 25.5 -0.0324902534466673 28.3049999999994 18 0.0864429473913333 28.3049999999994 18 0.0864429473913333 27.7049999999999 16.9000000000001 0.0691325664538454 27.7049999999999 16.9000000000001 0.0691325664538454 28.9049999999997 15.9000000000001 0.110788583757312 28.9049999999997 15.9000000000001 0.110788583757312 26.2049999999999 12.9000000000001 0.0711390972137451 26.2049999999999 12.9000000000001 0.0711390972137451 26.7049999999999 12.0999999999999 0.0730421543139528 26.7049999999999 12.0999999999999 0.0730421543139528 21.3049999999994 6.30000000000018 0.0833163261413574 21.3049999999994 6.30000000000018 0.0833163261413574 20.6049999999996 6.70000000000027 0.0798757076245238 20.6049999999996 6.70000000000027 0.0798757076245238 15.8049999999994 1.80000000000018 0.129796981811523 15.8049999999994 1.80000000000018 0.129796981811523 15.1049999999996 2.20000000000027 0.120195388795764 15.1049999999996 2.20000000000027 0.120195388795764 12.8049999999994 -0.0999999999999091 0.13205623626709 12.8049999999994 -0.0999999999999091 0.13205623626709 9.30499999999938 2.5 0.0795485973358154 9.30499999999938 2.5 0.0795485973358154 8.30499999999938 1.5 0.0780520439147949 8.30499999999938 1.5 0.0780520439147949 5.5049999999992 4.09999999999991 0.0394909381866455 5.5049999999992 4.09999999999991 0.0394909381866455 3.60499999999956 2.09999999999991 0.0301766395550658 3.60499999999956 2.09999999999991 0.0301766395550658 1.60499999999956 4 0.00663208961304917 1.60499999999956 4 0.00663208961304917 0.704999999999927 3.30000000000018 -5.96046629652847E-06 0.704999999999927 3.30000000000018 -5.96046629652847E-06 -2.4950000000008 5.80000000000018 -0.0331919193267822 -2.4950000000008 5.80000000000018 -0.0331919193267822 -5.09500000000025 2.5 -0.055342435836792 -5.09500000000025 2.5 -0.055342435836792 -0.695000000000618 -1.19999999999982 -0.0047309398651123 -0.695000000000618 -1.19999999999982 -0.0047309398651123 0.00499999999919964 -0.599999999999909 0.00124669075194106 0.00499999999919964 -0.599999999999909 0.00124669075194106 8.10499999999956 -8.69999999999982 0.111805677412121 8.10499999999956 -8.69999999999982 0.111805677412121 -7.09500000000025 -25.5 -0.196110486987891 -7.09500000000025 -25.5 -0.196110486987891 -10.1950000000006 -22.6999999999998 -0.0846543312072754 -10.1950000000006 -22.6999999999998 -0.0846543312072754 -9.59500000000025 -21.6999999999998 -0.0639510154724121 -9.59500000000025 -21.6999999999998 -0.0639510154724121 -14.2950000000001 -16.2999999999997 -0.035416841501501 -14.2950000000001 -16.2999999999997 -0.035416841501501 -12.9950000000008 -14.9000000000001 -0.0349304676055908 -12.9950000000008 -14.9000000000001 -0.0349304676055908 -17.9950000000008 -9.59999999999991 -0.215194702146619 -17.9950000000008 -9.59999999999991 -0.215194702146619 -17.4950000000008 -8.69999999999982 -0.191122293470471 -17.4950000000008 -8.69999999999982 -0.191122293470471 -20.0050000000001 -6.09999999999991 -0.255250263215203 -20.0050000000001 -6.09999999999991 -0.255250263215203 -19.4050000000007 -5.29999999999973 -0.237695932388306 -19.4050000000007 -5.29999999999973 -0.237695932388306 -21.9050000000007 -3.19999999999982 -0.263398218157818 -21.9050000000007 -3.19999999999982 -0.263398218157818 -21.3050000000003 -2.40000000000009 -0.241307353973752 -21.3050000000003 -2.40000000000009 -0.241307353973752 -24.0050000000001 -0.400000000000091 -0.210311031341917 -24.0050000000001 -0.400000000000091 -0.210311031341917 -23.2050000000008 0.5 -0.215822553635007 -23.2050000000008 0.5 -0.215822553635007 -26.3050000000003 3.20000000000027 -0.228431844712759 -26.3050000000003 3.20000000000027 -0.228431844712759 -25.2050000000008 3.90000000000009 -0.242943382259909 -25.2050000000008 3.90000000000009 -0.242943382259909 -27.6050000000005 6.20000000000027 -0.305844879148935 -27.6050000000005 6.20000000000027 -0.305844879148935 -28.9050000000007 9.90000000000009 -0.377347183226448 -28.9050000000007 9.90000000000009 27.990032152937 -28.5050000000001 12.7000000000003 27.990032152937 -28.5050000000001 12.7000000000003 27.990032152937 -26.2050000000008 15.5 27.990032152937 -26.2050000000008 15.5 27.990032152937 -23.2050000000008 16.7000000000003 27.990032152937 -23.2050000000008 16.7000000000003 27.990032152937 -20.4050000000007 16.3000000000002 27.990032152937 -20.4050000000007 16.3000000000002 27.990032152937 -16.6950000000006 13.2000000000003 27.990032152937 -16.6950000000006 13.2000000000003 27.990032152937 -15.4950000000008 14 27.990032152937 -15.4950000000008 14 27.990032152937 -10.3950000000004 9.80000000000018 27.990032152937 -10.3950000000004 9.80000000000018 27.990032152937 -8.09500000000025 12 27.990032152937 -8.09500000000025 12 27.990032152937 -10.1950000000006 13.9000000000001 27.990032152937 -10.1950000000006 13.9000000000001 27.990032152937 -10.8950000000004 15.9000000000001 27.990032152937 -10.8950000000004 15.9000000000001 27.990032152937 -5.29500000000007 20.3000000000002 27.990032152937 -5.29500000000007 20.3000000000002 27.990032152937 -2.59500000000025 20.0999999999999 27.990032152937 -2.59500000000025 20.0999999999999 27.990032152937 -0.895000000000437 21.3000000000002 27.990032152937 -0.895000000000437 21.3000000000002 27.990032152937 2.5049999999992 21 27.990032152937 2.5049999999992 21 27.990032152937 4.70499999999993 21.7000000000003 27.990032152937 4.70499999999993 21.7000000000003 27.990032152937 10.5049999999992 17.7000000000003 27.990032152937 10.5049999999992 17.7000000000003 27.990032152937 12.1049999999996 18.4000000000001 27.990032152937 12.1049999999996 18.4000000000001 27.990032152937 15.2049999999999 22.4000000000001 27.990032152937 15.2049999999999 22.4000000000001 27.990032152937 19.8049999999994 25.5 27.990032152937 19.8049999999994 25.5 27.990032152937 28.3049999999994 18 27.990032152937 28.3049999999994 18 27.990032152937 27.7049999999999 16.9000000000001 27.990032152937 27.7049999999999 16.9000000000001 27.990032152937 28.9049999999997 15.9000000000001 27.990032152937 28.9049999999997 15.9000000000001 27.990032152937 26.2049999999999 12.9000000000001 27.990032152937 26.2049999999999 12.9000000000001 27.990032152937 26.7049999999999 12.0999999999999 27.990032152937 26.7049999999999 12.0999999999999 27.990032152937 21.3049999999994 6.30000000000018 27.990032152937 21.3049999999994 6.30000000000018 27.990032152937 20.6049999999996 6.70000000000027 27.990032152937 20.6049999999996 6.70000000000027 27.990032152937 15.8049999999994 1.80000000000018 27.990032152937 15.8049999999994 1.80000000000018 27.990032152937 15.1049999999996 2.20000000000027 27.990032152937 15.1049999999996 2.20000000000027 27.990032152937 12.8049999999994 -0.0999999999999091 27.990032152937 12.8049999999994 -0.0999999999999091 27.990032152937 9.30499999999938 2.5 27.990032152937 9.30499999999938 2.5 27.990032152937 8.30499999999938 1.5 27.990032152937 8.30499999999938 1.5 27.990032152937 5.5049999999992 4.09999999999991 27.990032152937 5.5049999999992 4.09999999999991 27.990032152937 3.60499999999956 2.09999999999991 27.990032152937 3.60499999999956 2.09999999999991 27.990032152937 1.60499999999956 4 27.990032152937 1.60499999999956 4 27.990032152937 0.704999999999927 3.30000000000018 27.990032152937 0.704999999999927 3.30000000000018 27.990032152937 -2.4950000000008 5.80000000000018 27.990032152937 -2.4950000000008 5.80000000000018 27.990032152937 -5.09500000000025 2.5 27.990032152937 -5.09500000000025 2.5 27.990032152937 -0.695000000000618 -1.19999999999982 27.990032152937 -0.695000000000618 -1.19999999999982 27.990032152937 0.00499999999919964 -0.599999999999909 27.990032152937 0.00499999999919964 -0.599999999999909 27.990032152937 8.10499999999956 -8.69999999999982 27.990032152937 8.10499999999956 -8.69999999999982 27.990032152937 -7.09500000000025 -25.5 27.990032152937 -7.09500000000025 -25.5 27.990032152937 -10.1950000000006 -22.6999999999998 27.990032152937 -10.1950000000006 -22.6999999999998 27.990032152937 -9.59500000000025 -21.6999999999998 27.990032152937 -9.59500000000025 -21.6999999999998 27.990032152937 -14.2950000000001 -16.2999999999997 27.990032152937 -14.2950000000001 -16.2999999999997 27.990032152937 -12.9950000000008 -14.9000000000001 27.990032152937 -12.9950000000008 -14.9000000000001 27.990032152937 -17.9950000000008 -9.59999999999991 27.990032152937 -17.9950000000008 -9.59999999999991 27.990032152937 -17.4950000000008 -8.69999999999982 27.990032152937 -17.4950000000008 -8.69999999999982 27.990032152937 -20.0050000000001 -6.09999999999991 27.990032152937 -20.0050000000001 -6.09999999999991 27.990032152937 -19.4050000000007 -5.29999999999973 27.990032152937 -19.4050000000007 -5.29999999999973 27.990032152937 -21.9050000000007 -3.19999999999982 27.990032152937 -21.9050000000007 -3.19999999999982 27.990032152937 -21.3050000000003 -2.40000000000009 27.990032152937 -21.3050000000003 -2.40000000000009 27.990032152937 -24.0050000000001 -0.400000000000091 27.990032152937 -24.0050000000001 -0.400000000000091 27.990032152937 -23.2050000000008 0.5 27.990032152937 -23.2050000000008 0.5 27.990032152937 -26.3050000000003 3.20000000000027 27.990032152937 -26.3050000000003 3.20000000000027 27.990032152937 -25.2050000000008 3.90000000000009 27.990032152937 -25.2050000000008 3.90000000000009 27.990032152937 -27.6050000000005 6.20000000000027 27.990032152937 -27.6050000000005 6.20000000000027 27.990032152937 -28.9050000000007 9.90000000000009 27.990032152937 -28.9050000000007 9.90000000000009 27.990032152937 -28.5050000000001 12.7000000000003 27.990032152937 -26.2050000000008 15.5 27.990032152937 -23.2050000000008 16.7000000000003 27.990032152937 -20.4050000000007 16.3000000000002 27.990032152937 -16.6950000000006 13.2000000000003 27.990032152937 -15.4950000000008 14 27.990032152937 -10.3950000000004 9.80000000000018 27.990032152937 -8.09500000000025 12 27.990032152937 -10.1950000000006 13.9000000000001 27.990032152937 -10.8950000000004 15.9000000000001 27.990032152937 -5.29500000000007 20.3000000000002 27.990032152937 -2.59500000000025 20.0999999999999 27.990032152937 -0.895000000000437 21.3000000000002 27.990032152937 2.5049999999992 21 27.990032152937 4.70499999999993 21.7000000000003 27.990032152937 10.5049999999992 17.7000000000003 27.990032152937 12.1049999999996 18.4000000000001 27.990032152937 15.2049999999999 22.4000000000001 27.990032152937 19.8049999999994 25.5 27.990032152937 28.3049999999994 18 27.990032152937 27.7049999999999 16.9000000000001 27.990032152937 28.9049999999997 15.9000000000001 27.990032152937 26.2049999999999 12.9000000000001 27.990032152937 26.7049999999999 12.0999999999999 27.990032152937 21.3049999999994 6.30000000000018 27.990032152937 20.6049999999996 6.70000000000027 27.990032152937 15.8049999999994 1.80000000000018 27.990032152937 15.1049999999996 2.20000000000027 27.990032152937 12.8049999999994 -0.0999999999999091 27.990032152937 9.30499999999938 2.5 27.990032152937 8.30499999999938 1.5 27.990032152937 5.5049999999992 4.09999999999991 27.990032152937 3.60499999999956 2.09999999999991 27.990032152937 1.60499999999956 4 27.990032152937 0.704999999999927 3.30000000000018 27.990032152937 -2.4950000000008 5.80000000000018 27.990032152937 -5.09500000000025 2.5 27.990032152937 -0.695000000000618 -1.19999999999982 27.990032152937 0.00499999999919964 -0.599999999999909 27.990032152937 8.10499999999956 -8.69999999999982 27.990032152937 -7.09500000000025 -25.5 27.990032152937 -10.1950000000006 -22.6999999999998 27.990032152937 -9.59500000000025 -21.6999999999998 27.990032152937 -14.2950000000001 -16.2999999999997 27.990032152937 -12.9950000000008 -14.9000000000001 27.990032152937 -17.9950000000008 -9.59999999999991 27.990032152937 -17.4950000000008 -8.69999999999982 27.990032152937 -20.0050000000001 -6.09999999999991 27.990032152937 -19.4050000000007 -5.29999999999973 27.990032152937 -21.9050000000007 -3.19999999999982 27.990032152937 -21.3050000000003 -2.40000000000009 27.990032152937 -24.0050000000001 -0.400000000000091 27.990032152937 -23.2050000000008 0.5 27.990032152937 -26.3050000000003 3.20000000000027 27.990032152937 -25.2050000000008 3.90000000000009 27.990032152937 -27.6050000000005 6.20000000000027 27.990032152937</float_array>
                    <technique_common>
                        <accessor count="342" source="#geometry0-position-array" stride="3">
                            <param name="X" type="float"/>
                            <param name="Y" type="float"/>
                            <param name="Z" type="float"/>
                        </accessor>
                    </technique_common>
                </source>
                <source id="geometry0-normal">
                    <float_array id="geometry0-normal-array" count="1026">0.01379123146447 -0.0196394375812383 -0.999712005742747 -0.00678036052280001 -0.0149758658264116 -0.999864865946359 0.0220341945803534 -0.0689798254343729 -0.997374692857323 0.0450627623571431 -0.15990718662833 -0.986102955635646 0.0302412704693738 -0.070131208820997 -0.997079274235356 0.0145015876489931 -0.00846314597879852 -0.999859029621576 0.0181220840566403 0.00349403294847821 -0.999829676396535 0.0107003643502876 0.000802411463468772 -0.999942427512011 0.0112197641823218 0.00653717629483969 -0.999915687554597 0.0220382707703158 0.00567956433786614 -0.999740995043409 0.0244678975163635 0.0038183059806057 -0.999693324240273 0.014497396676653 0.00857207509733471 -0.999858162450117 0.00512018530242886 0.00678096154058515 -0.999963900479939 0.00298826738478535 0.005111869628254 -0.999982469369809 0.00299642041400212 0.00365935380340209 -0.999988815234673 -0.00099305775966657 0.0110660176945069 -0.999938276639449 0.00176838680186447 -0.00244188620034774 -0.999995454989623 0.00400248262929153 -0.00301089301079475 -0.99998745724938 0.00247414502011322 -0.00500918110959547 -0.99998439323373 0.00877295378839105 -0.00375719266300999 -0.999954458355539 0.0188161971808897 0.0054703081324498 -0.999807994793293 0.0118226964245473 -0.00491796538411545 -0.999918015372127 0.0261194677265558 -0.0102962353452195 -0.999605802775973 0.00776930765755546 -0.00375990033508585 -0.999962749810208 0.00159103384684268 -0.00306274427338181 -0.999994044086671 0.00254754521489526 -0.00414324042448632 -0.999988171716127 0.00242576885586036 -0.0063860123070973 -0.999976666973921 0.0050609053762886 -0.0151443378633228 -0.999872510006878 0.00438548126041366 -0.010232539960083 -0.999938029419864 0.00640923050710975 -0.0115656698693644 -0.999912574700798 0.00723232706350113 -0.00751933890173534 -0.999945575012824 0.00786110611544955 -0.00636462924920623 -0.999948845944212 0.00535034433183182 -0.0030744240447199 -0.999980960684914 0.00851294855550276 -0.00343034796956199 -0.999957880322816 0.00902856641458054 -0.000590033253945442 -0.999959067586897 0.00886941123112209 -0.00192099054015283 -0.999958820822017 0.00974122505220329 0.0010456947739863 -0.999952006376767 0.0116603248289784 -0.000329385658858403 -0.99993196185039 0.011892363767615 -0.00537428033574015 -0.999914840771399 0.0108971464437176 -0.00275124907361338 -0.99993683941933 0.00347806788858178 0.00658965145800751 -0.999972239383386 -0.0108536997590996 0.0276228959125974 -0.99955948938667 -0.0111848191528571 0.0274051357206298 -0.999561833183246 -0.00487084681351527 0.0162249004192039 -0.999856503433221 -0.00274420055390619 0.0028955933897342 -0.999992042419459 0.0136343986163681 -0.000911348404609926 -0.999906631950431 0.0405008659040175 0.00422445490792626 -0.999170572946259 0.0222489377468412 -0.00249534444884993 -0.999749347599297 0.0271602449575824 0.00156460804205434 -0.999629868048929 0.0182635553995511 0.00350004991818135 -0.999827081146904 0.0205317608553644 0.012206880846606 -0.999714678723972 0.00662830775138537 0.00579168071621429 -0.999961260235032 -0.00965702290672382 0.00246041079826168 -0.999950342910728 0.000939350033847552 -0.00208411804513647 -0.99999738703333 -0.00590508339069365 -0.0114496308151611 -0.999917014528879 0.0053847514493383 -0.00896253278400022 -0.999945337234953 0.0158220953900654 -0.01252201573808 -0.999796409485113 -0.999861591985175 -0.0166372134948128 0 -0.873814171799666 0.486260005719229 0 -0.873814171799666 0.486260005719229 0 -0.519652948384694 0.854377441904393 0 -0.519652948384694 0.854377441904393 0 -0.0304317469367649 0.9995368471339 0 -0.0304317469367649 0.9995368471339 0 0.491226027466948 0.871032140588992 0 0.491226027466948 0.871032140588992 0 0.641201079690635 0.767372905049145 0 -0.554700196225156 0.832050294337892 0 -0.554700196225156 0.832050294337892 0 0.635707252861056 0.771930235617085 0 0.635707252861056 0.771930235617086 0 -0.691222645967306 0.722641857147755 0 -0.691222645967306 0.722641857147755 0 -0.67091332396908 -0.741535779123813 0 -0.87693997983159 -0.480599908211571 0 -0.87693997983159 -0.480599908211571 0 -0.943858356366044 -0.33035042472803 0 -0.617821551931887 0.786318338822436 0 -0.166676349448161 0.986011660445572 0 -0.166676349448161 0.986011660445572 0 -0.379564366229698 0.925165332191305 0 -0.379564366229698 0.925165332191305 0 -0.141275393161598 0.989970334548988 0 -0.141275393161598 0.989970334548988 0 -0.175890093138857 0.984409810564484 0 -0.175890093138857 0.984409810564484 0 0.304931871043314 0.952374167027867 0 0.304931871043314 0.952374167027867 0 -0.0877424881423116 0.996143190397142 0 -0.0877424881423116 0.996143190397142 0 -0.679216665666422 0.733937818265953 0 -0.679216665666422 0.733937818265953 0 -0.643269994933069 0.765639414880666 0 -0.643269994933069 0.765639414880666 0 -0.558853462072337 0.829266427591135 0 0.661621637086846 0.749837855365093 0 0.661621637086846 0.749837855365093 0 0.877895572914551 -0.478852130680268 0 0.877895572914551 -0.478852130680268 0 0.640184399664537 0.768221279597328 0 0.640184399664537 0.768221279597328 0 0.743294146247189 -0.668964731622425 0 0.743294146247189 -0.668964731622425 0 0.847998304005142 0.529998940003093 0 0.847998304005142 0.529998940003093 0 0.731893974431299 -0.681418527918897 0 0.731893974431299 -0.681418527918897 0 -0.496138938357016 -0.868243142124355 0 -0.496138938357016 -0.868243142124355 0 0.714358581375112 -0.69977983481645 0 0.714358581375112 -0.69977983481645 0 -0.496138938357016 -0.868243142124355 0 -0.496138938357016 -0.868243142124355 0 0.707106781186548 -0.707106781186548 0 0.707106781186548 -0.707106781186548 0 -0.59632400133758 -0.802743847954463 0 -0.59632400133758 -0.802743847954463 0 0.707106781186548 -0.707106781186548 0 0.707106781186548 -0.707106781186548 0 -0.680451099367241 -0.732793491626333 0 -0.680451099367241 -0.732793491626333 0 0.72499943359448 -0.688749461914624 0 0.72499943359448 -0.688749461914624 0 -0.68874946191471 -0.724999433594397 0 -0.68874946191471 -0.724999433594397 0 0.613940613514976 -0.789352217376283 0 0.613940613514976 -0.789352217376283 0 -0.615644041972228 -0.788024373724631 0 -0.615644041972228 -0.788024373724631 0 0.785491672227615 -0.618872226603412 0 0.785491672227615 -0.618872226603412 0 0.643599935875084 0.76536208590548 0 0.643599935875084 0.76536208590548 0 -0.650791373456009 0.759256602365262 0 -0.650791373456009 0.759256602365262 0 0.707106781186528 0.707106781186567 0 0.707106781186528 0.707106781186567 0 0.741535779123779 -0.670913323969118 0 0.741535779123779 -0.670913323969118 0 -0.670286257968751 -0.742102642751156 0 -0.670286257968751 -0.742102642751156 0 -0.857492925712407 0.514495755427756 0 -0.857492925712407 0.514495755427756 0 -0.754304719431163 -0.656524478023383 0 -0.754304719431163 -0.656524478023383 0 -0.732793491626401 0.680451099367168 0 -0.732793491626401 0.680451099367168 0 -0.727393652509474 -0.686220426895707 0 -0.727393652509474 -0.686220426895707 0 -0.874157276121559 0.485642931178595 0 -0.874157276121559 0.485642931178595 0 -0.719449138392129 -0.694545129755312 0 -0.719449138392129 -0.694545129755312 0 -0.800000000000327 0.599999999999564 0 -0.800000000000327 0.599999999999563 0 -0.643192086423257 -0.765704864789625 0 -0.643192086423257 -0.765704864789625 0 -0.799999999999727 0.600000000000364 0 -0.799999999999727 0.600000000000364 0 -0.595227550625763 -0.803557193344727 0 -0.595227550625763 -0.803557193344727 0 -0.747409318683993 0.664363838829545 0 -0.747409318683993 0.664363838829545 0 -0.656780744804305 -0.754081595886216 0 -0.656780744804305 -0.754081595886216 0 -0.53687549219325 0.84366148773205 0 -0.53687549219325 0.84366148773205 0 -0.691905363235698 -0.721988205115344 0 -0.880989400796844 -0.473136001255049 0 -0.880989400796844 -0.473136001255049 0 -0.999861591985175 -0.0166372134948128 0 -0.983961075664091 -0.178383299604994 0 -0.948679122051384 0.316240293738503 0 -0.948679122051384 0.316240293738503 0 -0.657267049094482 0.753657764621736 0 -0.657267049094482 0.753657764621736 0 -0.206672569630188 0.978410163971356 0 -0.206672569630188 0.978410163971356 0 0.318799595772685 0.947822144568891 0 0.318799595772685 0.947822144568891 0 0.641201079690635 0.767372905049145 0 -0.554700196225156 0.832050294337892 0 -0.554700196225156 0.832050294337892 0 0.635707252861056 0.771930235617086 0 0.635707252861056 0.771930235617085 0 -0.691222645967306 0.722641857147755 0 -0.691222645967306 0.722641857147755 0 -0.67091332396908 -0.741535779123813 0 -0.783391319895616 -0.621528792504583 0 -0.783391319895616 -0.621528792504583 0 -0.943858356366044 -0.33035042472803 0 -0.617821551931887 0.786318338822436 0 -0.411931093105288 0.911214999071615 0 -0.411931093105288 0.911214999071615 0 -0.150820816407594 0.988561116642844 0 -0.150820816407594 0.988561116642844 0 -0.375471985645235 0.926833743448967 0 -0.375471985645235 0.926833743448967 0 -0.0432220537666551 0.999065490379981 0 -0.0432220537666551 0.999065490379981 0 -0.0141698659451905 0.99989960240971 0 -0.0141698659451905 0.99989960240971 0 0.275581290680332 0.96127777058817 0 0.275581290680332 0.96127777058817 0 -0.545681285545256 0.837992801046451 0 -0.545681285545256 0.837992801046451 0 -0.721334513208497 0.69258683214039 0 -0.721334513208497 0.69258683214039 0 -0.558853462072337 0.829266427591135 0 0.661621637086846 0.749837855365093 0 0.661621637086846 0.749837855365093 0 0.877895572914551 -0.478852130680268 0 0.877895572914551 -0.478852130680268 0 0.640184399664537 0.768221279597328 0 0.640184399664537 0.768221279597328 0 0.743294146247189 -0.668964731622425 0 0.743294146247189 -0.668964731622425 0 0.847998304005142 0.529998940003093 0 0.847998304005142 0.529998940003093 0 0.731893974431299 -0.681418527918897 0 0.731893974431299 -0.681418527918897 0 -0.496138938357016 -0.868243142124355 0 -0.496138938357016 -0.868243142124355 0 0.714358581375112 -0.69977983481645 0 0.714358581375112 -0.69977983481645 0 -0.496138938357016 -0.868243142124355 0 -0.496138938357016 -0.868243142124355 0 0.707106781186548 -0.707106781186548 0 0.707106781186548 -0.707106781186548 0 -0.59632400133758 -0.802743847954463 0 -0.59632400133758 -0.802743847954463 0 0.707106781186548 -0.707106781186548 0 0.707106781186548 -0.707106781186548 0 -0.680451099367241 -0.732793491626333 0 -0.680451099367241 -0.732793491626333 0 0.72499943359448 -0.688749461914624 0 0.72499943359448 -0.688749461914624 0 -0.68874946191471 -0.724999433594397 0 -0.68874946191471 -0.724999433594397 0 0.613940613514976 -0.789352217376283 0 0.613940613514976 -0.789352217376283 0 -0.615644041972228 -0.788024373724631 0 -0.615644041972228 -0.788024373724631 0 0.785491672227615 -0.618872226603412 0 0.785491672227615 -0.618872226603412 0 0.643599935875084 0.76536208590548 0 0.643599935875084 0.76536208590548 0 -0.650791373456009 0.759256602365262 0 -0.650791373456009 0.759256602365262 0 0.707106781186528 0.707106781186567 0 0.707106781186528 0.707106781186567 0 0.741535779123779 -0.670913323969118 0 0.741535779123779 -0.670913323969118 0 -0.670286257968751 -0.742102642751156 0 -0.670286257968751 -0.742102642751156 0 -0.857492925712407 0.514495755427756 0 -0.857492925712407 0.514495755427756 0 -0.754304719431163 -0.656524478023383 0 -0.754304719431163 -0.656524478023383 0 -0.732793491626401 0.680451099367168 0 -0.732793491626401 0.680451099367168 0 -0.727393652509474 -0.686220426895707 0 -0.727393652509474 -0.686220426895707 0 -0.874157276121559 0.485642931178595 0 -0.874157276121559 0.485642931178595 0 -0.719449138392129 -0.694545129755312 0 -0.719449138392129 -0.694545129755312 0 -0.800000000000327 0.599999999999564 0 -0.800000000000327 0.599999999999564 0 -0.643192086423257 -0.765704864789625 0 -0.643192086423257 -0.765704864789625 0 -0.799999999999727 0.600000000000364 0 -0.799999999999727 0.600000000000364 0 -0.595227550625763 -0.803557193344727 0 -0.595227550625763 -0.803557193344727 0 -0.747409318683993 0.664363838829545 0 -0.747409318683993 0.664363838829545 0 -0.656780744804305 -0.754081595886216 0 -0.656780744804305 -0.754081595886216 0 -0.53687549219325 0.84366148773205 0 -0.53687549219325 0.84366148773205 0 -0.691905363235698 -0.721988205115344 0 -0.795052186552418 -0.606541029657696 0 -0.795052186552418 -0.606541029657696 0 -0.983961075664091 -0.178383299604994 0 0 0 1 0 0 1 0 0 1 0 0 1 0 0 1 0 0 1 0 0 1 0 0 1 0 0 1 0 0 1 0 0 1 0 0 1 0 0 1 0 0 1 0 0 1 0 0 1 0 0 1 0 0 1 0 0 1 0 0 1 0 0 1 0 0 1 0 0 1 0 0 1 0 0 1 0 0 1 0 0 1 0 0 1 0 0 1 0 0 1 0 0 1 0 0 1 0 0 1 0 0 1 0 0 1 0 0 1 0 0 1 0 0 1 0 0 1 0 0 1 0 0 1 0 0 1 0 0 1 0 0 1 0 0 1 0 0 1 0 0 1 0 0 1 0 0 1 0 0 1 0 0 1 0 0 1 0 0 1 0 0 1 0 0 1 0 0 1 0 0 1</float_array>
                    <technique_common>
                        <accessor count="342" source="#geometry0-normal-array" stride="3">
                            <param name="X" type="float"/>
                            <param name="Y" type="float"/>
                            <param name="Z" type="float"/>
                        </accessor>
                    </technique_common>
                </source>
                <source id="geometry0-texcoord">
                    <float_array id="geometry0-texcoord-array" count="684">0 0 0 0 0 0 0 0 0 0 0 0 0 0 0 0 0 0 0 0 0 0 0 0 0 0 0 0 0 0 0 0 0 0 0 0 0 0 0 0 0 0 0 0 0 0 0 0 0 0 0 0 0 0 0 0 0 0 0 0 0 0 0 0 0 0 0 0 0 0 0 0 0 0 0 0 0 0 0 0 0 0 0 0 0 0 0 0 0 0 0 0 0 0 0 0 0 0 0 0 0 0 0 0 0 0 0 0 0 0 0 0 0 0 0.0185546875 0.000296875000000009 0 0 0.0244140625 0.1859296875 0 0.185546875 0.0224609375 0.377349609375 0 0.376953125 0.0361328125 0 0.0185546875 0.00120195312500001 0.0263671875 0.5751953125 0 0.57587421875 0.0322265625 0.376953125 0.0224609375 0.37712451171875 0.060546875 0.1767578125 0.0244140625 0.177187109375 0.0224609375 0.7294921875 0 0.72967060546875 0.05078125 0.00014453125 0.0361328125 0 0.0625 4.65820312499949E-05 0.05078125 0 0.0732421875 0.7294921875 0.0224609375 0.73059326171875 0.0498046875 0.3301142578125 0.0322265625 0.330078125 0.046875 0.5107421875 0.0322265625 0.510820703125 0.0693359375 0.5107421875 0.046875 0.510797265625 0.0771484375 0.1552734375 0.060546875 0.1553134765625 0.099609375 0.000263671875000003 0.0625 0 0.08203125 0.35546875 0.0693359375 0.3554890625 0.1123046875 0.146484375 0.0771484375 0.14658154296875 0.11328125 0.5589171875 0.0732421875 0.55859375 0.1435546875 0.3408203125 0.08203125 0.3414560546875 0.0322265625 0.5674607421875 0.0263671875 0.5673828125 0.0576171875 0.330078125 0.0498046875 0.3302861328125 0.119140625 0.000188671874999994 0.099609375 0 0.0625 0.35546875 0.0576171875 0.35548310546875 0.150390625 0.134765625 0.1123046875 0.134819140625 0.0732421875 0.5586072265625 0.0693359375 0.55859375 0.15234375 0 0.119140625 0.000242578125000003 0.06640625 0.3555091796875 0.0625 0.35546875 0.0888671875 0.7607421875 0.0732421875 0.760795703125 0.111328125 0.76101494140625 0.0888671875 0.7607421875 0.1181640625 0.7607556640625 0.111328125 0.7607421875 0.1328125 0.492387109375 0.11328125 0.4921875 0.130859375 0.63480400390625 0.1181640625 0.634765625 0.1328125 0.7628140625 0.1181640625 0.7626953125 0.138671875 0.4922162109375 0.1328125 0.4921875 0.1533203125 0.6359109375 0.1328125 0.6357421875 0.1591796875 0.492296875 0.138671875 0.4921875 0.1748046875 0.2685546875 0.1435546875 0.26882890625 0.138671875 0.7763671875 0.1328125 0.776402734375 0.2001953125 0.7763671875 0.138671875 0.77696484375 0.2626953125 0.63038583984375 0.1533203125 0.62890625 0.1796875 0.4208984375 0.1591796875 0.42144921875 0.2080078125 0.7646484375 0.2001953125 0.7647796875 0.2451171875 0.7646484375 0.2080078125 0.76479296875 0.2578125 0.7646484375 0.2451171875 0.7646484375 0.294921875 0.7655671875 0.2578125 0.7646484375 0.1591796875 0 0.15234375 0.000167871093750002 0.177734375 0.000332421874999995 0.1591796875 0 0.181640625 0.14453125 0.1748046875 0.1446466796875 0.1943359375 0.000129199218750002 0.177734375 0 0.1865234375 0.3369140625 0.1796875 0.33706796875 0.1982421875 0.1435546875 0.181640625 0.1437072265625 0.1943359375 0.2822630859375 0.1865234375 0.2822265625 0.21484375 5.62499999999938E-05 0.1943359375 0 0.203125 0.2823212890625 0.1943359375 0.2822265625 0.21484375 0.140934375 0.1982421875 0.140625 0.20703125 0.47204833984375 0.1865234375 0.4716796875 0.0185546875 0.185546875 0 0.185546875 0.0244140625 0.376953125 0 0.376953125 0.0224609375 0.5751953125 0 0.5751953125 0.0361328125 0.1767578125 0.0185546875 0.1767578125 0.0263671875 0.7294921875 0 0.7294921875 0.0322265625 0.5673828125 0.0224609375 0.5673828125 0.060546875 0.330078125 0.0244140625 0.330078125 0.0224609375 0.927734375 0 0.927734375 0.05078125 0.14453125 0.0361328125 0.14453125 0.0625 0.1552734375 0.05078125 0.1552734375 0.0732421875 0.9296875 0.0224609375 0.9296875 0.0498046875 0.5107421875 0.0322265625 0.5107421875 0.046875 0.70703125 0.0322265625 0.70703125 0.0693359375 0.6943359375 0.046875 0.6943359375 0.0771484375 0.35546875 0.060546875 0.35546875 0.099609375 0.146484375 0.0625 0.146484375 0.08203125 0.55859375 0.0693359375 0.55859375 0.1123046875 0.3408203125 0.0771484375 0.3408203125 0.11328125 0.7607421875 0.0732421875 0.7607421875 0.1435546875 0.4921875 0.08203125 0.4921875 0.0322265625 0.697265625 0.0263671875 0.697265625 0.0576171875 0.46875 0.0498046875 0.46875 0.119140625 0.134765625 0.099609375 0.134765625 0.0625 0.4990234375 0.0576171875 0.4990234375 0.150390625 0.2685546875 0.1123046875 0.2685546875 0.0732421875 0.693359375 0.0693359375 0.693359375 0.15234375 0.134765625 0.119140625 0.134765625 0.06640625 0.490234375 0.0625 0.490234375 0.0888671875 0.89453125 0.0732421875 0.89453125 0.111328125 0.904296875 0.0888671875 0.904296875 0.1181640625 0.8955078125 0.111328125 0.8955078125 0.1328125 0.634765625 0.11328125 0.634765625 0.130859375 0.7626953125 0.1181640625 0.7626953125 0.1328125 0.9111328125 0.1181640625 0.9111328125 0.138671875 0.6357421875 0.1328125 0.6357421875 0.1533203125 0.7763671875 0.1328125 0.7763671875 0.1591796875 0.62890625 0.138671875 0.62890625 0.1748046875 0.4208984375 0.1435546875 0.4208984375 0.138671875 0.9541015625 0.1328125 0.9541015625 0.2001953125 0.92578125 0.138671875 0.92578125 0.2626953125 0.7646484375 0.1533203125 0.7646484375 0.1796875 0.55859375 0.1591796875 0.55859375 0.2080078125 0.9521484375 0.2001953125 0.9521484375 0.2451171875 0.9091796875 0.2080078125 0.9091796875 0.2578125 0.9501953125 0.2451171875 0.9501953125 0.294921875 0.908203125 0.2578125 0.908203125 0.1591796875 0.1865234375 0.15234375 0.1865234375 0.177734375 0.14453125 0.1591796875 0.14453125 0.181640625 0.3369140625 0.1748046875 0.3369140625 0.1943359375 0.1435546875 0.177734375 0.1435546875 0.1865234375 0.529296875 0.1796875 0.529296875 0.1982421875 0.2822265625 0.181640625 0.2822265625 0.1943359375 0.46484375 0.1865234375 0.46484375 0.21484375 0.140625 0.1943359375 0.140625 0.203125 0.4716796875 0.1943359375 0.4716796875 0.21484375 0.28125 0.1982421875 0.28125 0.20703125 0.619140625 0.1865234375 0.619140625 0.215235049654719 0.346868884539557 0.219148046200493 0.374266144813531 0.241647776338655 0.401663405087501 0.27099525043192 0.413405088062063 0.298386226252301 0.409491193737209 0.334679269214305 0.379158512719598 0.346418258851609 0.386986301369301 0.396308964810163 0.345890410958345 0.418808694948334 0.367416829745035 0.398265463083045 0.386007827788089 0.391417719127952 0.405577299412355 0.446199670768716 0.448630136985741 0.472612397452652 0.446673189823312 0.489242632772167 0.458414872797874 0.522503103411196 0.455479452054232 0.54402458441293 0.462328767122728 0.600763034326568 0.423189823874196 0.616415020509646 0.430039138942687 0.646740743739356 0.469178082191219 0.691740204015689 0.499510763208831 0.774891380613272 0.426125244617833 0.769021885794624 0.415362035224488 0.780760875431928 0.405577299412355 0.754348148747992 0.376223091975956 0.759239394430203 0.368395303326248 0.706413941062322 0.311643835615879 0.699566197107228 0.315557729940733 0.652610238558003 0.267612524461281 0.64576249460291 0.271526418786135 0.623262764464739 0.249021526418227 0.589024044689264 0.274461839529772 0.579241553324842 0.264677103717639 0.55185057750446 0.290117416829184 0.533263843912063 0.270547945204918 0.51369886118322 0.289138943247971 0.504894618955245 0.28228962817948 0.473590646589089 0.306751467709813 0.448156169041598 0.274461839529772 0.491199131045049 0.238258317024882 0.498046875000142 0.24412915851216 0.57728505505196 0.164872798433884 0.428591186312755 0.000489236790047783 0.398265463083045 0.027886497064022 0.404134957901702 0.037671232876155 0.358157248488922 0.0905088062616741 0.370874487262663 0.104207436398657 0.321962030440556 0.156066536202963 0.326853276122766 0.164872798433884 0.302299222798075 0.190313111545429 0.308168717616723 0.198140900195137 0.283712489205669 0.218688845400616 0.289581984024326 0.226516634050319 0.263169257340389 0.246086105674585 0.27099525043192 0.254892367905506 0.240669527202218 0.281311154598268 0.251430267703077 0.288160469666759 0.227952288428469 0.310665362034667</float_array>
                    <technique_common>
                        <accessor count="342" source="#geometry0-texcoord-array" stride="2">
                            <param name="S" type="float"/>
                            <param name="T" type="float"/>
                        </accessor>
                    </technique_common>
                </source>
                <vertices id="geometry0-vertex">
                    <input semantic="POSITION" source="#geometry0-position"/>
                    <input semantic="NORMAL" source="#geometry0-normal"/>
                </vertices>
                <triangles count="224" material="material0-symbol">
                    <input offset="0" semantic="VERTEX" source="#geometry0-vertex" set="0"/>
                    <input offset="0" semantic="TEXCOORD" source="#geometry0-texcoord" set="0"/>
                    <p>43 40 41 40 43 45 43 41 42 38 45 47 45 43 44 37 47 49 47 45 46 38 40 45 37 49 51 49 47 48 7 51 53 51 49 50 37 38 47 39 40 38 28 29 30 5 53 55 53 51 52 30 31 32 32 33 34 16 26 28 28 26 27 51 7 37 30 32 16 34 35 36 55 56 5 55 53 54 32 34 14 16 32 14 12 14 36 26 17 23 26 24 25 5 7 53 7 36 37 0 5 56 8 9 11 8 36 7 24 26 23 0 2 4 18 21 23 5 0 4 6 7 5 2 0 1 10 11 9 22 23 21 3 4 2 19 20 21 16 28 30 17 26 16 12 36 8 11 12 8 14 34 36 13 14 12 15 16 14 18 23 17 19 21 18 57 172 58 57 171 172 59 174 60 59 173 174 61 176 62 61 175 176 63 178 64 63 177 178 65 180 66 65 179 180 67 182 68 67 181 182 69 184 70 69 183 184 71 186 72 71 185 186 73 188 74 73 187 188 75 190 76 75 189 190 77 192 78 77 191 192 79 194 80 79 193 194 81 196 82 81 195 196 83 198 84 83 197 198 85 200 86 85 199 200 87 202 88 87 201 202 89 204 90 89 203 204 91 206 92 91 205 206 93 208 94 93 207 208 95 210 96 95 209 210 97 212 98 97 211 212 99 214 100 99 213 214 101 216 102 101 215 216 103 218 104 103 217 218 105 220 106 105 219 220 107 222 108 107 221 222 109 224 110 109 223 224 111 226 112 111 225 226 113 228 114 113 227 228 115 230 116 115 229 230 117 232 118 117 231 232 119 234 120 119 233 234 121 236 122 121 235 236 123 238 124 123 237 238 125 240 126 125 239 240 127 242 128 127 241 242 129 244 130 129 243 244 131 246 132 131 245 246 133 248 134 133 247 248 135 250 136 135 249 250 137 252 138 137 251 252 139 254 140 139 253 254 141 256 142 141 255 256 143 258 144 143 257 258 145 260 146 145 259 260 147 262 148 147 261 262 149 264 150 149 263 264 151 266 152 151 265 266 153 268 154 153 267 268 155 270 156 155 269 270 157 272 158 157 271 272 159 274 160 159 273 274 161 276 162 161 275 276 163 278 164 163 277 278 165 280 166 165 279 280 167 282 168 167 281 282 169 284 170 169 283 284 328 326 325 325 330 328 328 327 326 323 332 330 330 329 328 322 334 332 332 331 330 323 330 325 322 336 334 334 333 332 292 338 336 336 335 334 322 332 323 324 323 325 313 315 314 290 340 338 338 337 336 315 317 316 317 319 318 301 313 311 313 312 311 336 322 292 315 301 317 319 321 320 340 290 341 340 339 338 317 299 319 301 299 317 297 321 299 311 308 302 311 310 309 290 338 292 292 322 321 285 341 290 293 296 294 293 292 321 309 308 311 285 289 287 303 308 306 290 289 285 291 290 292 287 286 285 295 294 296 307 306 308 288 287 289 304 306 305 301 315 313 302 301 311 297 293 321 296 293 297 299 321 319 298 297 299 300 299 301 303 302 308 304 303 306</p>
                </triangles>
            </mesh>
        </geometry>
    </library_geometries>
    <library_visual_scenes>
        <visual_scene id="visual-scene">
            <node>
                <instance_geometry url="#geometry0">
                    <bind_material>
                        <technique_common>
                            <instance_material symbol="material0-symbol" target="#material0"/>
                        </technique_common>
                    </bind_material>
                </instance_geometry>
            </node>
        </visual_scene>
    </library_visual_scenes>
    <scene>
        <instance_visual_scene url="#visual-scene"/>
    </scene>
</COLLADA>
