<?xml version="1.0"?>
<COLLADA xmlns="http://www.collada.org/2005/11/COLLADASchema" version="1.4.1">
    <asset>
        <up_axis>Z_UP</up_axis>
    </asset>
    <library_materials>
        <material id="material0">
            <instance_effect url="#effect0"/>
        </material>
    </library_materials>
    <library_effects>
        <effect id="effect0">
            <profile_COMMON>
                <newparam sid="image0-surface">
                    <surface type="2D">
                        <init_from>image0</init_from>
                    </surface>
                </newparam>
                <newparam sid="image0-sampler">
                    <sampler2D>
                        <source>image0-surface</source>
                    </sampler2D>
                </newparam>
                <technique sid="technique-phong">
                    <phong>
                        <emission>
                            <color>1 1 1 1</color>
                        </emission>
                        <ambient>
                            <color>1 1 1 1</color>
                        </ambient>
                        <diffuse>
                            <texture texture="image0-sampler" texcoord="TEXCOORD"/>
                        </diffuse>
                        <specular>
                            <color>1 1 1 1</color>
                        </specular>
                        <shininess>
                            <float>0</float>
                        </shininess>
                    </phong>
                </technique>
                <extra>
                    <technique profile="GOOGLEEARTH">
                        <double_sided>0</double_sided>
                    </technique>
                </extra>
            </profile_COMMON>
        </effect>
    </library_effects>
    <library_images>
        <image id="image0" height="0" width="0">
            <init_from>9997.png</init_from>
        </image>
    </library_images>
    <library_geometries>
        <geometry id="geometry0">
            <mesh>
                <source id="geometry0-position">
                    <float_array id="geometry0-position-array" count="474">-17.2550000000001 -8.19499999999971 -0.538927006722588 -14.3549999999996 -2.20499999999993 -0.490730690953569 -13.5549999999994 -2.30500000000029 -0.455414700505571 -7.05499999999938 10.7950000000001 -0.40831439494832 -7.85499999999956 10.9949999999999 -0.489953923217399 -4.55499999999938 17.4949999999999 -0.114207911492485 -0.755000000000109 15.8950000000004 0.17969043256744 -0.954999999999927 15.1949999999997 0.152084898949397 12.9549999999999 7.99499999999989 0.585719084730954 14.0550000000003 8.49499999999989 0.61562116145069 17.2550000000001 6.89500000000044 0.459904932971767 13.5550000000003 -1.50500000000011 0.117870783804392 12.6550000000007 -1.50500000000011 0.127236676216853 8.94500000000062 -9.89499999999953 0.162516379359658 9.24499999999989 -10.5950000000003 0.200532126431426 5.54500000000007 -17.4949999999999 0.162814259529114 -1.45499999999993 -14.3949999999995 -0.00406644344184315 -2.15499999999975 -14.8949999999995 -0.0122649431195896 -4.65499999999975 -13.8949999999995 -0.0791230916966015 -4.65499999999975 -13.1949999999997 -0.0847894430171436 -6.35499999999956 -12.3949999999995 -0.128297066688901 -7.35499999999956 -12.9949999999999 -0.138355040549868 -9.45499999999993 -11.9949999999999 -0.19490134715852 -9.25500000000011 -11.0950000000003 -0.209465050695144 -13.4549999999999 -8.89499999999953 -0.394312071799504 -13.8549999999996 -9.59500000000025 -0.400902533530825 -17.2550000000001 -8.19499999999971 -0.538927006722588 -14.3549999999996 -2.20499999999993 -0.490730690953569 -14.3549999999996 -2.20499999999993 -0.490730690953569 -13.5549999999994 -2.30500000000029 -0.455414700505571 -13.5549999999994 -2.30500000000029 -0.455414700505571 -7.05499999999938 10.7950000000001 -0.40831439494832 -7.05499999999938 10.7950000000001 -0.40831439494832 -7.85499999999956 10.9949999999999 -0.489953923217399 -7.85499999999956 10.9949999999999 -0.489953923217399 -4.55499999999938 17.4949999999999 -0.114207911492485 -4.55499999999938 17.4949999999999 -0.114207911492485 -0.755000000000109 15.8950000000004 0.17969043256744 -0.755000000000109 15.8950000000004 0.17969043256744 -0.954999999999927 15.1949999999997 0.152084898949397 -0.954999999999927 15.1949999999997 0.152084898949397 12.9549999999999 7.99499999999989 0.585719084730954 12.9549999999999 7.99499999999989 0.585719084730954 14.0550000000003 8.49499999999989 0.61562116145069 14.0550000000003 8.49499999999989 0.61562116145069 17.2550000000001 6.89500000000044 0.459904932971767 17.2550000000001 6.89500000000044 0.459904932971767 13.5550000000003 -1.50500000000011 0.117870783804392 13.5550000000003 -1.50500000000011 0.117870783804392 12.6550000000007 -1.50500000000011 0.127236676216853 12.6550000000007 -1.50500000000011 0.127236676216853 8.94500000000062 -9.89499999999953 0.162516379359658 8.94500000000062 -9.89499999999953 0.162516379359658 9.24499999999989 -10.5950000000003 0.200532126431426 9.24499999999989 -10.5950000000003 0.200532126431426 5.54500000000007 -17.4949999999999 0.162814259529114 5.54500000000007 -17.4949999999999 0.162814259529114 -1.45499999999993 -14.3949999999995 -0.00406644344184315 -1.45499999999993 -14.3949999999995 -0.00406644344184315 -2.15499999999975 -14.8949999999995 -0.0122649431195896 -2.15499999999975 -14.8949999999995 -0.0122649431195896 -4.65499999999975 -13.8949999999995 -0.0791230916966015 -4.65499999999975 -13.8949999999995 -0.0791230916966015 -4.65499999999975 -13.1949999999997 -0.0847894430171436 -4.65499999999975 -13.1949999999997 -0.0847894430171436 -6.35499999999956 -12.3949999999995 -0.128297066688901 -6.35499999999956 -12.3949999999995 -0.128297066688901 -7.35499999999956 -12.9949999999999 -0.138355040549868 -7.35499999999956 -12.9949999999999 -0.138355040549868 -9.45499999999993 -11.9949999999999 -0.19490134715852 -9.45499999999993 -11.9949999999999 -0.19490134715852 -9.25500000000011 -11.0950000000003 -0.209465050695144 -9.25500000000011 -11.0950000000003 -0.209465050695144 -13.4549999999999 -8.89499999999953 -0.394312071799504 -13.4549999999999 -8.89499999999953 -0.394312071799504 -13.8549999999996 -9.59500000000025 -0.400902533530825 -13.8549999999996 -9.59500000000025 -0.400902533530825 -17.2550000000001 -8.19499999999971 -0.538927006722588 -17.2550000000001 -8.19499999999971 16.7785305234916 -14.3549999999996 -2.20499999999993 16.8161305234916 -14.3549999999996 -2.20499999999993 16.8161305234916 -13.5549999999994 -2.30500000000029 16.9797305234916 -13.5549999999994 -2.30500000000029 16.9797305234916 -7.05499999999938 10.7950000000001 17.0314305234916 -7.05499999999938 10.7950000000001 17.0314305234916 -7.85499999999956 10.9949999999999 16.8586305234916 -7.85499999999956 10.9949999999999 16.8586305234916 -4.55499999999938 17.4949999999999 16.8443305234916 -4.55499999999938 17.4949999999999 16.8443305234916 -0.755000000000109 15.8950000000004 16.8058305234916 -0.755000000000109 15.8950000000004 16.8058305234916 -0.954999999999927 15.1949999999997 16.9597305234916 -0.954999999999927 15.1949999999997 16.9597305234916 12.9549999999999 7.99499999999989 17.0800305234916 12.9549999999999 7.99499999999989 17.0800305234916 14.0550000000003 8.49499999999989 16.8823305234916 14.0550000000003 8.49499999999989 16.8823305234916 17.2550000000001 6.89500000000044 16.8510305234916 17.2550000000001 6.89500000000044 16.8510305234916 13.5550000000003 -1.50500000000011 16.8222305234916 13.5550000000003 -1.50500000000011 16.8222305234916 12.6550000000007 -1.50500000000011 17.0011305234916 12.6550000000007 -1.50500000000011 17.0011305234916 8.94500000000062 -9.89499999999953 16.9723305234916 8.94500000000062 -9.89499999999953 16.9723305234916 9.24499999999989 -10.5950000000003 16.8489305234916 9.24499999999989 -10.5950000000003 16.8489305234916 5.54500000000007 -17.4949999999999 16.9566305234916 5.54500000000007 -17.4949999999999 16.9566305234916 -1.45499999999993 -14.3949999999995 17.0901305234916 -1.45499999999993 -14.3949999999995 17.0901305234916 -2.15499999999975 -14.8949999999995 16.9216305234916 -2.15499999999975 -14.8949999999995 16.9216305234916 -4.65499999999975 -13.8949999999995 16.8761305234916 -4.65499999999975 -13.8949999999995 16.8761305234916 -4.65499999999975 -13.1949999999997 17.0159305234916 -4.65499999999975 -13.1949999999997 17.0159305234916 -6.35499999999956 -12.3949999999995 17.0089305234916 -6.35499999999956 -12.3949999999995 17.0089305234916 -7.35499999999956 -12.9949999999999 16.7910305234916 -7.35499999999956 -12.9949999999999 16.7910305234916 -9.45499999999993 -11.9949999999999 16.7847305234916 -9.45499999999993 -11.9949999999999 16.7847305234916 -9.25500000000011 -11.0950000000003 16.9840305234916 -9.25500000000011 -11.0950000000003 16.9840305234916 -13.4549999999999 -8.89499999999953 17.0114305234916 -13.4549999999999 -8.89499999999953 17.0114305234916 -13.8549999999996 -9.59500000000025 16.8324305234916 -13.8549999999996 -9.59500000000025 16.8324305234916 -17.2550000000001 -8.19499999999971 16.7785305234916 -17.2550000000001 -8.19499999999971 16.7785305234916 -14.3549999999996 -2.20499999999993 16.8161305234916 -13.5549999999994 -2.30500000000029 16.9797305234916 -7.05499999999938 10.7950000000001 17.0314305234916 -7.85499999999956 10.9949999999999 16.8586305234916 -4.55499999999938 17.4949999999999 16.8443305234916 -0.755000000000109 15.8950000000004 16.8058305234916 -0.954999999999927 15.1949999999997 16.9597305234916 12.9549999999999 7.99499999999989 17.0800305234916 14.0550000000003 8.49499999999989 16.8823305234916 17.2550000000001 6.89500000000044 16.8510305234916 13.5550000000003 -1.50500000000011 16.8222305234916 12.6550000000007 -1.50500000000011 17.0011305234916 8.94500000000062 -9.89499999999953 16.9723305234916 9.24499999999989 -10.5950000000003 16.8489305234916 5.54500000000007 -17.4949999999999 16.9566305234916 -1.45499999999993 -14.3949999999995 17.0901305234916 -2.15499999999975 -14.8949999999995 16.9216305234916 -4.65499999999975 -13.8949999999995 16.8761305234916 -4.65499999999975 -13.1949999999997 17.0159305234916 -6.35499999999956 -12.3949999999995 17.0089305234916 -7.35499999999956 -12.9949999999999 16.7910305234916 -9.45499999999993 -11.9949999999999 16.7847305234916 -9.25500000000011 -11.0950000000003 16.9840305234916 -13.4549999999999 -8.89499999999953 17.0114305234916 -13.8549999999996 -9.59500000000025 16.8324305234916 1.09500000000025 1.04500000000007 19.5137305234916 -0.505000000000109 -2.75500000000011 19.5152305234916</float_array>
                    <technique_common>
                        <accessor count="158" source="#geometry0-position-array" stride="3">
                            <param name="X" type="float"/>
                            <param name="Y" type="float"/>
                            <param name="Z" type="float"/>
                        </accessor>
                    </technique_common>
                </source>
                <source id="geometry0-normal">
                    <float_array id="geometry0-normal-array" count="474">0.0361257438508149 -0.0103356880263395 -0.999293802734835 0.0396511891732852 -0.0090661820329133 -0.999172451351863 0.0330003977783025 -0.0116861686842335 -0.99938701572912 0.0578897714009964 0.0151749764527438 -0.998207640952923 0.10283040371526 0.00529361857628564 -0.994684817253247 0.0894973642902298 0.0112765467033183 -0.995923220574533 0.0835550414375659 0.0154209988323248 -0.996383835600207 0.0740228206827455 0.0258012238998094 -0.996922724619838 0.0152491127054779 0.0542480410592599 -0.998411044912329 -0.00890455486433615 0.0792039170207081 -0.996818663765504 -0.012910223976323 0.0636676588327444 -0.99788764664948 -0.0136532115862586 0.0483227539196236 -0.998738454885464 0.0217329946223343 0.0174723741336621 -0.999611120929974 0.028915993225521 -0.0144011179245895 -0.999478100379545 0.0618129057552065 -0.0276922467973534 -0.997703515153381 0.0408566084843399 -0.0183171118782188 -0.998997107581197 0.0204637213013485 -0.0109108136830823 -0.999731058962996 0.022032973186877 -0.0102474425227367 -0.999704725413604 0.0234980842891212 -0.00809228736178426 -0.999691129759585 0.021427436310943 -0.0105692069805588 -0.999714537674102 0.0219628224297613 -0.0136676688529275 -0.999665358637102 0.0188448555954038 -0.018568365660753 -0.999649982350961 0.0173756905980139 -0.0200374651045377 -0.999648230813433 0.0242269148590282 -0.016025337980498 -0.999578033541666 0.0386785802961618 -0.00948694368050386 -0.999206667975087 0.0359757408489897 -0.0111493010752422 -0.999290467860021 -0.900064208196546 0.435757296121965 0 -0.900064208196546 0.435757296121965 0 0.124034734589625 0.992277876713616 0 0.124034734589625 0.992277876713616 0 -0.895790627967083 0.444476265785182 0 -0.895790627967083 0.444476265785182 0 -0.242535625036073 -0.970142500145397 0 -0.242535625036073 -0.970142500145397 0 -0.891666769258171 0.45269235977725 0 -0.891666769258171 0.45269235977725 0 0.388057000058083 0.921635375138086 0 0.388057000058083 0.921635375138086 0 0.961523947640965 -0.274721127896883 0 0.961523947640965 -0.274721127896883 0 0.4596834295094 0.888082847843869 0 -0.134588314891863 0.990901602327178 0 -0.134588314891863 0.990901602327178 0 0.175303014231039 0.98451452665845 0 0.175303014231039 0.98451452665845 0 0.447213595499856 0.894427190999967 0 0.915154313980794 -0.403103685920066 0 0.915154313980794 -0.403103685920066 0 0 -1 0 0 -1 0 0.914574108312958 -0.404418348252842 0 0.990439351562818 0.137948870513046 0 0.990439351562818 0.137948870513046 0 0.979521023580185 -0.20134190911091 0 0.979521023580185 -0.20134190911091 0 0.881290022866801 -0.472575809363359 0 -0.404926158272088 -0.914349389646544 0 0.285619762579263 -0.958343023778107 0 0.285619762579263 -0.958343023778107 0 -0.0603771442904843 -0.998175636071792 0 -0.0603771442904843 -0.998175636071792 0 -0.371390676354104 -0.928476690885259 0 -1 0 0 -1 0 0 -0.425797036329996 -0.904818702200939 0 0.22437358800356 -0.974503203179142 0 0.22437358800356 -0.974503203179142 0 -0.128605285892426 -0.991695860856809 0 -0.128605285892426 -0.991695860856809 0 -0.429933580392287 -0.902860518823959 0 -0.976187060183976 0.216930457818552 0 -0.976187060183976 0.216930457818552 0 -0.464006994670694 -0.885831535280084 0 -0.464006994670694 -0.885831535280084 0 0.868243142124876 -0.496138938356105 0 0.868243142124876 -0.496138938356105 0 -0.38074980525437 -0.924678098474685 0 -0.38074980525437 -0.924678098474685 0 -0.900064208196546 0.435757296121965 0 -0.900064208196546 0.435757296121965 0 0.124034734589625 0.992277876713616 0 0.124034734589625 0.992277876713616 0 -0.895790627967083 0.444476265785182 0 -0.895790627967083 0.444476265785182 0 -0.242535625036073 -0.970142500145397 0 -0.242535625036073 -0.970142500145397 0 -0.891666769258171 0.45269235977725 0 -0.891666769258171 0.45269235977725 0 0.388057000058083 0.921635375138086 0 0.388057000058083 0.921635375138086 0 0.961523947640965 -0.274721127896883 0 0.961523947640965 -0.274721127896883 0 0.4596834295094 0.888082847843869 0 0.184938412076772 0.982750112560931 0 0.184938412076772 0.982750112560931 0 -0.138744385097365 0.990328226197736 0 -0.138744385097365 0.990328226197736 0 0.447213595499856 0.894427190999967 0 0.915154313980794 -0.403103685920065 0 0.915154313980794 -0.403103685920066 0 0 -1 0 0 -1 0 0.914574108312958 -0.404418348252842 0 0.988794802303111 -0.149281073610659 0 0.988794802303111 -0.149281073610659 0 0.993347860524878 0.115152194901562 0 0.993347860524878 0.115152194901562 0 0.881290022866801 -0.472575809363359 0 -0.404926158272088 -0.914349389646544 0 -0.0861945636996209 -0.996278323155047 0 -0.0861945636996209 -0.996278323155047 0 0.295670187603089 -0.95529008168344 0 0.295670187603089 -0.95529008168344 0 -0.371390676354104 -0.928476690885259 0 -1 0 0 -1 0 0 -0.425797036329996 -0.904818702200939 0 -0.125392327253753 -0.99210723425741 0 -0.125392327253753 -0.99210723425741 0 0.223070049281447 -0.974802417474214 0 0.223070049281447 -0.974802417474214 0 -0.429933580392287 -0.902860518823959 0 -0.976187060183976 0.216930457818552 0 -0.976187060183976 0.216930457818552 0 -0.464006994670694 -0.885831535280084 0 -0.464006994670694 -0.885831535280084 0 0.868243142124876 -0.496138938356105 0 0.868243142124876 -0.496138938356105 0 -0.380749805254369 -0.924678098474685 0 -0.38074980525437 -0.924678098474685 0 -0.143622780452859 -0.0558478886392108 0.988055418622626 -0.189346201668373 0.0855299638652462 0.978178225680254 -0.188460783086086 0.0848376467043576 0.978409478153317 -0.18669292648524 0.0943653396768298 0.977875725165552 -0.186897037930064 0.0970368540114304 0.977575238115478 -0.0482519902295634 0.144439894181659 0.988336411556145 0.0896398973489375 0.189366292902449 0.977806267067079 0.0896564148556969 0.189438716778541 0.977790723959132 0.094606950426553 0.180242242643248 0.979061928019837 0.0968140532796081 0.174458941507995 0.979893421151241 0.14679329570228 0.0439759622202785 0.988189173733281 0.194191630465121 -0.0888862579622938 0.97692826952789 0.194182714700865 -0.0870539725105179 0.977095020548943 0.194893155855818 -0.0893152325350068 0.976749428992808 0.194300678666483 -0.0889420606763085 0.976901507887257 0.107817666662246 -0.12661532430998 0.986075002423947 -0.0869236295493683 -0.196186048728743 0.976706361661563 -0.0957387376555371 -0.194938856324934 0.976131618382916 -0.0957443535848771 -0.194946994336826 0.976129442315747 -0.0958590755454348 -0.195218142042038 0.97606399106474 -0.0959257166927592 -0.195292851035987 0.976042498670635 -0.0957432345963775 -0.19489843203549 0.976139249399967 -0.0957320250860841 -0.194887554801567 0.976142520514491 -0.0958802053060484 -0.195188536003964 0.976067836599024 -0.0958772112871274 -0.195381350107856 0.976029553028921 -0.0957312801632568 -0.194908926254716 0.976138326501187 0.0131784103949966 0.0829556197609671 0.996466103111157 -0.0312939092411595 -0.117558050657648 0.992572816457302</float_array>
                    <technique_common>
                        <accessor count="158" source="#geometry0-normal-array" stride="3">
                            <param name="X" type="float"/>
                            <param name="Y" type="float"/>
                            <param name="Z" type="float"/>
                        </accessor>
                    </technique_common>
                </source>
                <source id="geometry0-texcoord">
                    <float_array id="geometry0-texcoord-array" count="316">0 0 0 0 0 0 0 0 0 0 0 0 0 0 0 0 0 0 0 0 0 0 0 0 0 0 0 0 0 0 0 0 0 0 0 0 0 0 0 0 0 0 0 0 0 0 0 0 0 0 0 0 0.046875 0 0 0.000683593750000006 0.0048828125 0.244140625 0 0.2445625 0.1025390625 0.455078125 0 0.4557373046875 0.0087890625 0.24491171875 0.0048828125 0.244140625 0.05078125 0.69921875 0 0.7044318359375 0.0322265625 0.244140625 0.0087890625 0.247451953125 0.0361328125 0.244428125 0.0322265625 0.244140625 0.123046875 0.244140625 0.0361328125 0.248940625 0.0546875 0 0.046875 0.000383203125000005 0.07421875 0.00168847656249999 0.0546875 0 0.125 0.0037453125 0.07421875 0 0.0556640625 0.69921875 0.05078125 0.699327734375 0.1064453125 0.69921875 0.0556640625 0.6996083984375 0.1064453125 0.431640625 0.1025390625 0.4320359375 0.1474609375 0.43202734375 0.1064453125 0.431640625 0.162109375 0.185297265625 0.123046875 0.18359375 0.12890625 7.71484374999915E-05 0.125 0 0.142578125 0.000670312500000003 0.12890625 0 0.111328125 0.607493359375 0.1064453125 0.607421875 0.1513671875 0.000400390624999991 0.142578125 0 0.1572265625 0.000103125000000008 0.1513671875 0 0.1689453125 0.000560742187499995 0.1572265625 0 0.1171875 0.6075953125 0.111328125 0.607421875 0.134765625 0.826040625 0.111328125 0.82421875 0.12109375 0.6074890625 0.1171875 0.607421875 0.1396484375 0.6087951171875 0.12109375 0.607421875 0.046875 0.243603515625 0 0.244140625 0.0048828125 0.4530953125 0 0.455078125 0.1025390625 0.698486328125 0 0.69921875 0.0087890625 0.408203125 0.0048828125 0.40657890625 0.05078125 0.939453125 0 0.9392609375 0.0322265625 0.435546875 0.0087890625 0.435106640625 0.0361328125 0.422175 0.0322265625 0.423828125 0.123046875 0.430309375 0.0361328125 0.431640625 0.0546875 0.212890625 0.046875 0.2103359375 0.07421875 0.177734375 0.0546875 0.1773966796875 0.125 0.18359375 0.07421875 0.183281640625 0.0556640625 0.878933984375 0.05078125 0.880859375 0.1064453125 0.884765625 0.0556640625 0.8844501953125 0.1064453125 0.603515625 0.1025390625 0.6022609375 0.1474609375 0.606296875 0.1064453125 0.607421875 0.162109375 0.356066015625 0.123046875 0.357421875 0.12890625 0.154296875 0.125 0.1527693359375 0.142578125 0.171875 0.12890625 0.1714109375 0.111328125 0.84374921875 0.1064453125 0.845703125 0.1513671875 0.16015625 0.142578125 0.1600921875 0.1572265625 0.171875 0.1513671875 0.1696921875 0.1689453125 0.169921875 0.1572265625 0.16985390625 0.1171875 0.82170390625 0.111328125 0.82421875 0.134765625 0.99581875 0.111328125 0.99609375 0.12109375 0.775390625 0.1171875 0.773660546875 0.1396484375 0.78125 0.12109375 0.7807111328125 0.162599067467639 0.35325520833206 0.191001230581806 0.470580706907553 0.198836310061577 0.468622017448857 0.262496330834699 0.72521033653718 0.254661251354929 0.729127715454556 0.286980954208977 0.856442530269369 0.324197581737873 0.825103498930349 0.322238811867932 0.811392672719508 0.458471256322413 0.670367031693872 0.469244490607098 0.68016047898732 0.500584808526172 0.648821447648299 0.464347565932243 0.484291533118376 0.455533101517506 0.484291533118376 0.419197920430078 0.319957487534343 0.422136075234984 0.306246661323503 0.385898832641055 0.171097088673939 0.317341887193077 0.231816461893319 0.31048619264828 0.222023014599871 0.286001569274003 0.241609909186766 0.286001569274003 0.255320735397588 0.269352025379496 0.270990251067107 0.259558176029784 0.259238114314964 0.238991092395387 0.278825008901858 0.240949862265328 0.296453214030056 0.199815694996543 0.339544382121238 0.195898155256662 0.325833555910397 0.342316203034842 0.53423811431496 0.3266460440753 0.459807914884758</float_array>
                    <technique_common>
                        <accessor count="158" source="#geometry0-texcoord-array" stride="2">
                            <param name="S" type="float"/>
                            <param name="T" type="float"/>
                        </accessor>
                    </technique_common>
                </source>
                <vertices id="geometry0-vertex">
                    <input semantic="POSITION" source="#geometry0-position"/>
                    <input semantic="NORMAL" source="#geometry0-normal"/>
                </vertices>
                <triangles count="104" material="material0-symbol">
                    <input offset="0" semantic="VERTEX" source="#geometry0-vertex" set="0"/>
                    <input offset="0" semantic="TEXCOORD" source="#geometry0-texcoord" set="0"/>
                    <p>16 13 15 16 19 13 17 19 16 19 20 13 19 17 18 3 12 20 21 23 20 2 20 23 23 21 22 15 13 14 13 20 12 24 0 1 0 24 25 24 1 2 2 23 24 8 12 3 10 11 8 8 11 12 9 10 8 3 20 2 4 5 3 7 5 6 7 8 3 5 7 3 26 79 27 26 78 79 28 81 29 28 80 81 30 83 31 30 82 83 32 85 33 32 84 85 34 87 35 34 86 87 36 89 37 36 88 89 38 91 39 38 90 91 40 93 41 40 92 93 42 95 43 42 94 95 44 97 45 44 96 97 46 99 47 46 98 99 48 101 49 48 100 101 50 103 51 50 102 103 52 105 53 52 104 105 54 107 55 54 106 107 56 109 57 56 108 109 58 111 59 58 110 111 60 113 61 60 112 113 62 115 63 62 114 115 64 117 65 64 116 117 66 119 67 66 118 119 68 121 69 68 120 121 70 123 71 70 122 123 72 125 73 72 124 125 74 127 75 74 126 127 76 129 77 76 128 129 145 143 157 146 157 149 147 146 149 149 157 150 149 148 147 150 157 153 151 150 153 130 157 132 153 152 151 145 144 143 157 143 142 154 153 157 130 155 154 157 156 132 146 145 157 132 131 130 157 130 154 142 141 140 138 156 140 137 156 138 156 157 142 140 156 142 139 138 140 133 132 156 134 133 135 137 136 135 135 156 137 133 156 135</p>
                </triangles>
            </mesh>
        </geometry>
    </library_geometries>
    <library_visual_scenes>
        <visual_scene id="visual-scene">
            <node>
                <instance_geometry url="#geometry0">
                    <bind_material>
                        <technique_common>
                            <instance_material symbol="material0-symbol" target="#material0"/>
                        </technique_common>
                    </bind_material>
                </instance_geometry>
            </node>
        </visual_scene>
    </library_visual_scenes>
    <scene>
        <instance_visual_scene url="#visual-scene"/>
    </scene>
</COLLADA>
