<?xml version="1.0"?>
<COLLADA xmlns="http://www.collada.org/2005/11/COLLADASchema" version="1.4.1">
    <asset>
        <up_axis>Z_UP</up_axis>
    </asset>
    <library_materials>
        <material id="material0">
            <instance_effect url="#effect0"/>
        </material>
    </library_materials>
    <library_effects>
        <effect id="effect0">
            <profile_COMMON>
                <newparam sid="image0-surface">
                    <surface type="2D">
                        <init_from>image0</init_from>
                    </surface>
                </newparam>
                <newparam sid="image0-sampler">
                    <sampler2D>
                        <source>image0-surface</source>
                    </sampler2D>
                </newparam>
                <technique sid="technique-phong">
                    <phong>
                        <emission>
                            <color>1 1 1 1</color>
                        </emission>
                        <ambient>
                            <color>1 1 1 1</color>
                        </ambient>
                        <diffuse>
                            <texture texture="image0-sampler" texcoord="TEXCOORD"/>
                        </diffuse>
                        <specular>
                            <color>1 1 1 1</color>
                        </specular>
                        <shininess>
                            <float>0</float>
                        </shininess>
                    </phong>
                </technique>
                <extra>
                    <technique profile="GOOGLEEARTH">
                        <double_sided>0</double_sided>
                    </technique>
                </extra>
            </profile_COMMON>
        </effect>
    </library_effects>
    <library_images>
        <image id="image0" height="0" width="0">
            <init_from>9711.png</init_from>
        </image>
    </library_images>
    <library_geometries>
        <geometry id="geometry0">
            <mesh>
                <source id="geometry0-position">
                    <float_array id="geometry0-position-array" count="654">-18.3949999999995 -5 -0.528109216691519 -16.8949999999995 -1.5 -0.532431030274893 -15.8949999999995 -1.59999999999945 -0.495194578174051 -13.6949999999997 2.40000000000055 -0.459461116790408 -14.494999999999 2.70000000000073 -0.488713645936514 -13.494999999999 4.90000000000055 -0.483209991452895 -12.5949999999993 4.5 -0.448322200776602 -11.5949999999993 6.60000000000036 -0.44053401947167 -12.3949999999995 7.10000000000036 -0.473953151702517 -10.994999999999 10 -0.465962553023928 -10.0949999999993 9.30000000000018 -0.422223234178091 -8.09499999999935 13.6000000000004 -0.392852210998171 -9.39499999999953 13.9000000000005 -0.440695190432962 -7.69499999999971 17.4000000000005 -0.380470895777762 -1.5049999999992 14.7000000000007 -0.151314067843487 -1.60499999999956 13.7000000000007 -0.152511644362676 11.9950000000008 7 0.323102998730974 12.3950000000004 7.70000000000073 0.35044641494278 18.3950000000004 5.10000000000036 0.392672109601335 16.4950000000008 0.900000000000546 0.394966793059211 15.1950000000006 1.20000000000073 0.37351942062196 13.795000000001 -1.89999999999964 0.370441007613408 14.5950000000003 -2.29999999999927 0.390330314638049 13.4950000000008 -4.79999999999927 0.39186997413708 12.4950000000008 -4.69999999999982 0.368291139602661 11.3950000000004 -7 0.365833950041633 12.1950000000006 -7.29999999999927 0.393913078307378 10.9950000000008 -9.69999999999982 0.37406916618238 9.89500000000044 -9.69999999999982 0.339047574996584 8.19500000000062 -13.5 0.309819841382705 9.4950000000008 -14.0999999999995 0.351210355758667 7.59500000000025 -17.3999999999996 0.299191951757166 1.39500000000044 -14.6999999999998 0.167057704920808 1.69500000000062 -13.5 0.170042467118037 -11.494999999999 -7.19999999999982 -0.242796087264651 -11.994999999999 -7.69999999999982 -0.245498800275527 -18.3949999999995 -5 -0.528109216691519 -16.8949999999995 -1.5 -0.532431030274893 -16.8949999999995 -1.5 -0.532431030274893 -15.8949999999995 -1.59999999999945 -0.495194578174051 -15.8949999999995 -1.59999999999945 -0.495194578174051 -13.6949999999997 2.40000000000055 -0.459461116790408 -13.6949999999997 2.40000000000055 -0.459461116790408 -14.494999999999 2.70000000000073 -0.488713645936514 -14.494999999999 2.70000000000073 -0.488713645936514 -13.494999999999 4.90000000000055 -0.483209991452895 -13.494999999999 4.90000000000055 -0.483209991452895 -12.5949999999993 4.5 -0.448322200776602 -12.5949999999993 4.5 -0.448322200776602 -11.5949999999993 6.60000000000036 -0.44053401947167 -11.5949999999993 6.60000000000036 -0.44053401947167 -12.3949999999995 7.10000000000036 -0.473953151702517 -12.3949999999995 7.10000000000036 -0.473953151702517 -10.994999999999 10 -0.465962553023928 -10.994999999999 10 -0.465962553023928 -10.0949999999993 9.30000000000018 -0.422223234178091 -10.0949999999993 9.30000000000018 -0.422223234178091 -8.09499999999935 13.6000000000004 -0.392852210998171 -8.09499999999935 13.6000000000004 -0.392852210998171 -9.39499999999953 13.9000000000005 -0.440695190432962 -9.39499999999953 13.9000000000005 -0.440695190432962 -7.69499999999971 17.4000000000005 -0.380470895777762 -7.69499999999971 17.4000000000005 -0.380470895777762 -1.5049999999992 14.7000000000007 -0.151314067843487 -1.5049999999992 14.7000000000007 -0.151314067843487 -1.60499999999956 13.7000000000007 -0.152511644362676 -1.60499999999956 13.7000000000007 -0.152511644362676 11.9950000000008 7 0.323102998730974 11.9950000000008 7 0.323102998730974 12.3950000000004 7.70000000000073 0.35044641494278 12.3950000000004 7.70000000000073 0.35044641494278 18.3950000000004 5.10000000000036 0.392672109601335 18.3950000000004 5.10000000000036 0.392672109601335 16.4950000000008 0.900000000000546 0.394966793059211 16.4950000000008 0.900000000000546 0.394966793059211 15.1950000000006 1.20000000000073 0.37351942062196 15.1950000000006 1.20000000000073 0.37351942062196 13.795000000001 -1.89999999999964 0.370441007613408 13.795000000001 -1.89999999999964 0.370441007613408 14.5950000000003 -2.29999999999927 0.390330314638049 14.5950000000003 -2.29999999999927 0.390330314638049 13.4950000000008 -4.79999999999927 0.39186997413708 13.4950000000008 -4.79999999999927 0.39186997413708 12.4950000000008 -4.69999999999982 0.368291139602661 12.4950000000008 -4.69999999999982 0.368291139602661 11.3950000000004 -7 0.365833950041633 11.3950000000004 -7 0.365833950041633 12.1950000000006 -7.29999999999927 0.393913078307378 12.1950000000006 -7.29999999999927 0.393913078307378 10.9950000000008 -9.69999999999982 0.37406916618238 10.9950000000008 -9.69999999999982 0.37406916618238 9.89500000000044 -9.69999999999982 0.339047574996584 9.89500000000044 -9.69999999999982 0.339047574996584 8.19500000000062 -13.5 0.309819841382705 8.19500000000062 -13.5 0.309819841382705 9.4950000000008 -14.0999999999995 0.351210355758667 9.4950000000008 -14.0999999999995 0.351210355758667 7.59500000000025 -17.3999999999996 0.299191951757166 7.59500000000025 -17.3999999999996 0.299191951757166 1.39500000000044 -14.6999999999998 0.167057704920808 1.39500000000044 -14.6999999999998 0.167057704920808 1.69500000000062 -13.5 0.170042467118037 1.69500000000062 -13.5 0.170042467118037 -11.494999999999 -7.19999999999982 -0.242796087264651 -11.494999999999 -7.19999999999982 -0.242796087264651 -11.994999999999 -7.69999999999982 -0.245498800275527 -11.994999999999 -7.69999999999982 -0.245498800275527 -18.3949999999995 -5 -0.528109216691519 -18.3949999999995 -5 18.1138870006547 -16.8949999999995 -1.5 18.1138870006547 -16.8949999999995 -1.5 18.1138870006547 -15.8949999999995 -1.59999999999945 18.1138870006547 -15.8949999999995 -1.59999999999945 18.1138870006547 -13.6949999999997 2.40000000000055 18.1138870006547 -13.6949999999997 2.40000000000055 18.1138870006547 -14.494999999999 2.70000000000073 18.1138870006547 -14.494999999999 2.70000000000073 18.1138870006547 -13.494999999999 4.90000000000055 18.1138870006547 -13.494999999999 4.90000000000055 18.1138870006547 -12.5949999999993 4.5 18.1138870006547 -12.5949999999993 4.5 18.1138870006547 -11.5949999999993 6.60000000000036 18.1138870006547 -11.5949999999993 6.60000000000036 18.1138870006547 -12.3949999999995 7.10000000000036 18.1138870006547 -12.3949999999995 7.10000000000036 18.1138870006547 -10.994999999999 10 18.1138870006547 -10.994999999999 10 18.1138870006547 -10.0949999999993 9.30000000000018 18.1138870006547 -10.0949999999993 9.30000000000018 18.1138870006547 -8.09499999999935 13.6000000000004 18.1138870006547 -8.09499999999935 13.6000000000004 18.1138870006547 -9.39499999999953 13.9000000000005 18.1138870006547 -9.39499999999953 13.9000000000005 18.1138870006547 -7.69499999999971 17.4000000000005 18.1138870006547 -7.69499999999971 17.4000000000005 18.1138870006547 -1.5049999999992 14.7000000000007 18.1138870006547 -1.5049999999992 14.7000000000007 18.1138870006547 -1.60499999999956 13.7000000000007 18.1138870006547 -1.60499999999956 13.7000000000007 18.1138870006547 11.9950000000008 7 18.1138870006547 11.9950000000008 7 18.1138870006547 12.3950000000004 7.70000000000073 18.1138870006547 12.3950000000004 7.70000000000073 18.1138870006547 18.3950000000004 5.10000000000036 18.1138870006547 18.3950000000004 5.10000000000036 18.1138870006547 16.4950000000008 0.900000000000546 18.1138870006547 16.4950000000008 0.900000000000546 18.1138870006547 15.1950000000006 1.20000000000073 18.1138870006547 15.1950000000006 1.20000000000073 18.1138870006547 13.795000000001 -1.89999999999964 18.1138870006547 13.795000000001 -1.89999999999964 18.1138870006547 14.5950000000003 -2.29999999999927 18.1138870006547 14.5950000000003 -2.29999999999927 18.1138870006547 13.4950000000008 -4.79999999999927 18.1138870006547 13.4950000000008 -4.79999999999927 18.1138870006547 12.4950000000008 -4.69999999999982 18.1138870006547 12.4950000000008 -4.69999999999982 18.1138870006547 11.3950000000004 -7 18.1138870006547 11.3950000000004 -7 18.1138870006547 12.1950000000006 -7.29999999999927 18.1138870006547 12.1950000000006 -7.29999999999927 18.1138870006547 10.9950000000008 -9.69999999999982 18.1138870006547 10.9950000000008 -9.69999999999982 18.1138870006547 9.89500000000044 -9.69999999999982 18.1138870006547 9.89500000000044 -9.69999999999982 18.1138870006547 8.19500000000062 -13.5 18.1138870006547 8.19500000000062 -13.5 18.1138870006547 9.4950000000008 -14.0999999999995 18.1138870006547 9.4950000000008 -14.0999999999995 18.1138870006547 7.59500000000025 -17.3999999999996 18.1138870006547 7.59500000000025 -17.3999999999996 18.1138870006547 1.39500000000044 -14.6999999999998 18.1138870006547 1.39500000000044 -14.6999999999998 18.1138870006547 1.69500000000062 -13.5 18.1138870006547 1.69500000000062 -13.5 18.1138870006547 -11.494999999999 -7.19999999999982 18.1138870006547 -11.494999999999 -7.19999999999982 18.1138870006547 -11.994999999999 -7.69999999999982 18.1138870006547 -11.994999999999 -7.69999999999982 18.1138870006547 -18.3949999999995 -5 18.1138870006547 -18.3949999999995 -5 18.1138870006547 -16.8949999999995 -1.5 18.1138870006547 -15.8949999999995 -1.59999999999945 18.1138870006547 -13.6949999999997 2.40000000000055 18.1138870006547 -14.494999999999 2.70000000000073 18.1138870006547 -13.494999999999 4.90000000000055 18.1138870006547 -12.5949999999993 4.5 18.1138870006547 -11.5949999999993 6.60000000000036 18.1138870006547 -12.3949999999995 7.10000000000036 18.1138870006547 -10.994999999999 10 18.1138870006547 -10.0949999999993 9.30000000000018 18.1138870006547 -8.09499999999935 13.6000000000004 18.1138870006547 -9.39499999999953 13.9000000000005 18.1138870006547 -7.69499999999971 17.4000000000005 18.1138870006547 -1.5049999999992 14.7000000000007 18.1138870006547 -1.60499999999956 13.7000000000007 18.1138870006547 11.9950000000008 7 18.1138870006547 12.3950000000004 7.70000000000073 18.1138870006547 18.3950000000004 5.10000000000036 18.1138870006547 16.4950000000008 0.900000000000546 18.1138870006547 15.1950000000006 1.20000000000073 18.1138870006547 13.795000000001 -1.89999999999964 18.1138870006547 14.5950000000003 -2.29999999999927 18.1138870006547 13.4950000000008 -4.79999999999927 18.1138870006547 12.4950000000008 -4.69999999999982 18.1138870006547 11.3950000000004 -7 18.1138870006547 12.1950000000006 -7.29999999999927 18.1138870006547 10.9950000000008 -9.69999999999982 18.1138870006547 9.89500000000044 -9.69999999999982 18.1138870006547 8.19500000000062 -13.5 18.1138870006547 9.4950000000008 -14.0999999999995 18.1138870006547 7.59500000000025 -17.3999999999996 18.1138870006547 1.39500000000044 -14.6999999999998 18.1138870006547 1.69500000000062 -13.5 18.1138870006547 -11.494999999999 -7.19999999999982 18.1138870006547 -11.994999999999 -7.69999999999982 18.1138870006547 -1.79436024726965 0.896667771372449 19.8889409418188 1.42373738841161 -0.977668974448534 19.9106023580383</float_array>
                    <technique_common>
                        <accessor count="218" source="#geometry0-position-array" stride="3">
                            <param name="X" type="float"/>
                            <param name="Y" type="float"/>
                            <param name="Z" type="float"/>
                        </accessor>
                    </technique_common>
                </source>
                <source id="geometry0-normal">
                    <float_array id="geometry0-normal-array" count="654">0.0361751036063528 -0.0169262890178417 -0.999202112997743 0.0355604402608624 -0.016474043908041 -0.999231735367612 0.0352488105732289 -0.0174979477397552 -0.999225371564428 0.0356856802434603 -0.0128958196138417 -0.999279855727138 0.0320233046967883 -0.0120558514064115 -0.999414410744193 0.0326792522349579 -0.0121081194990818 -0.999392545457269 0.0315243292208998 -0.0128539792740593 -0.999420327932144 0.0324662855793241 -0.0107643950637889 -0.999414862857058 0.0354963665106638 -0.0136132372315803 -0.999277082563499 0.0368614049708336 -0.0150419667024269 -0.999207173743913 0.0369501920249965 -0.0132338041305513 -0.999229478016712 0.0368952724863356 -0.00354498742949321 -0.999312849878497 0.0366389566006142 -0.000600679701583361 -0.999328387489875 0.0366841479340789 -0.000605442095252472 -0.999326726716653 0.0368874613713761 -0.00155900508212241 -0.999318209929514 0.0358579465632787 -0.00693066315534813 -0.999332864253194 0.0163329803618933 0.00311865670910485 -0.999861744309096 0.0191970712828846 0.0280696752771693 -0.999421615627756 0.014645979409567 0.00586583540542611 -0.999875535885408 0.0148222866463507 -0.00725159896660235 -0.999863847796789 0.0114626787878401 -0.0046136330393395 -0.999923657778525 0.0153764667740751 -0.00650815798165419 -0.999860594357649 0.0201210082213383 -0.00946895512088929 -0.999752711382708 0.0213601238122535 -0.00959694052028495 -0.999725784324569 0.0249978938510061 -0.0063743341795194 -0.999667181199214 0.0279697471885041 -0.00924731939584943 -0.999565995983358 0.0321504067336097 -0.00781143340359486 -0.999452516558463 0.0319855675679631 -0.00778702949899994 -0.999457995935265 0.0249602815972897 -0.00391674813472472 -0.999680770759663 0.023742012131226 -0.00184085089828341 -0.999716423856251 0.0308875380544483 -0.00202813487213199 -0.9995208085187 0.0259847457900763 -0.00127347566357569 -0.999661528341448 0.0212902478973324 -0.0017034294232537 -0.999771885818295 0.022805507722396 -0.00413893011949582 -0.999731352951877 0.0318014617682202 -0.014988437904935 -0.999381815803437 0.0325194043937109 -0.02011270529781 -0.999268716323833 -0.919145030018058 0.393919298579168 0 -0.919145030018058 0.393919298579168 0 0.0995037190204613 0.995037190210043 0 0.0995037190204613 0.995037190210043 0 -0.876215908676664 0.481918749772125 0 -0.876215908676664 0.481918749772125 0 -0.351123441588858 -0.93632917756887 0 -0.351123441588858 -0.93632917756887 0 -0.910366477462592 0.413802944301212 0 -0.910366477462592 0.413802944301212 0 0.406138466054047 0.913811548619991 0 0.406138466054047 0.913811548619991 0 -0.902860518823959 0.429933580392287 0 -0.902860518823959 0.429933580392287 0 -0.529998940003093 -0.847998304005142 0 -0.529998940003093 -0.847998304005142 0 -0.900551636364491 0.434749065831357 0 -0.900551636364491 0.434749065831357 0 0.613940613514976 0.789352217376283 0 0.613940613514976 0.789352217376283 0 -0.906721111888514 0.42173074971557 0 -0.906721111888514 0.42173074971557 0 -0.224859506698858 -0.974391195694597 0 -0.224859506698858 -0.974391195694597 0 -0.899508158576016 0.436903962736875 0 -0.899508158576016 0.436903962736875 0 0.399808751787452 0.916598582801741 0 0.399808751787452 0.916598582801741 0 0.995037190209953 -0.0995037190213573 0 0.995037190209953 -0.0995037190213573 0 0.44192904797688 0.897050007833593 0 0.44192904797688 0.897050007833593 0 -0.868243142124876 0.496138938356105 0 -0.868243142124876 0.496138938356105 0 0.397607437634347 0.917555625309904 0 0.397607437634347 0.917555625309904 0 0.911107922838379 -0.412167869855396 0 0.911107922838379 -0.412167869855396 0 -0.224859506698858 -0.974391195694597 0 -0.224859506698858 -0.974391195694597 0 0.911370599658733 -0.411586722426369 0 0.911370599658733 -0.411586722426369 0 0.447213595499958 0.894427190999916 0 0.447213595499958 0.894427190999916 0 0.915315032422839 -0.40273861426585 0 0.915315032422839 -0.40273861426585 0 -0.0995037190204613 -0.995037190210043 0 -0.0995037190204613 -0.995037190210043 0 0.902134221635604 -0.431455497304093 0 0.902134221635604 -0.431455497304093 0 0.351123441587575 0.936329177569351 0 0.351123441587575 0.936329177569351 0 0.894427190999984 -0.447213595499822 0 0.894427190999984 -0.447213595499822 0 0 -1 0 0 -1 0 0.912818251894944 -0.408366060058201 0 0.912818251894944 -0.408366060058201 0 0.419058177461384 0.907959384500619 0 0.419058177461384 0.907959384500619 0 0.866622456874119 -0.498964444867033 0 0.866622456874119 -0.498964444867033 0 -0.399266767279945 -0.916834798939167 0 -0.399266767279945 -0.916834798939167 0 -0.970142500145289 0.242535625036506 0 -0.970142500145289 0.242535625036506 0 -0.430995502195585 -0.902354075231655 0 -0.430995502195585 -0.902354075231655 0 0.707106781186548 -0.707106781186548 0 0.707106781186548 -0.707106781186548 0 -0.388700505404245 -0.92136416095835 0 -0.388700505404245 -0.92136416095835 0 -0.919145030018058 0.393919298579168 0 -0.919145030018058 0.393919298579168 0 0.0995037190204613 0.995037190210043 0 0.0995037190204613 0.995037190210043 0 -0.876215908676664 0.481918749772125 0 -0.876215908676664 0.481918749772125 0 -0.351123441588858 -0.93632917756887 0 -0.351123441588858 -0.93632917756887 0 -0.910366477462592 0.413802944301212 0 -0.910366477462592 0.413802944301212 0 0.406138466054047 0.913811548619991 0 0.406138466054047 0.913811548619991 0 -0.902860518823959 0.429933580392287 0 -0.902860518823959 0.429933580392287 0 -0.529998940003093 -0.847998304005142 0 -0.529998940003093 -0.847998304005142 0 -0.900551636364491 0.434749065831357 0 -0.900551636364491 0.434749065831357 0 0.613940613514976 0.789352217376283 0 0.613940613514976 0.789352217376283 0 -0.906721111888514 0.42173074971557 0 -0.906721111888514 0.42173074971557 0 -0.224859506698858 -0.974391195694597 0 -0.224859506698858 -0.974391195694597 0 -0.899508158576016 0.436903962736875 0 -0.899508158576016 0.436903962736875 0 0.399808751787452 0.916598582801741 0 0.399808751787452 0.916598582801741 0 0.995037190209953 -0.0995037190213573 0 0.995037190209953 -0.0995037190213573 0 0.44192904797688 0.897050007833593 0 0.44192904797688 0.897050007833593 0 -0.868243142124876 0.496138938356105 0 -0.868243142124876 0.496138938356105 0 0.397607437634347 0.917555625309904 0 0.397607437634347 0.917555625309904 0 0.911107922838379 -0.412167869855396 0 0.911107922838379 -0.412167869855396 0 -0.224859506698858 -0.974391195694597 0 -0.224859506698858 -0.974391195694597 0 0.911370599658733 -0.411586722426369 0 0.911370599658733 -0.411586722426369 0 0.447213595499958 0.894427190999916 0 0.447213595499958 0.894427190999916 0 0.915315032422839 -0.40273861426585 0 0.915315032422839 -0.40273861426585 0 -0.0995037190204613 -0.995037190210043 0 -0.0995037190204613 -0.995037190210043 0 0.902134221635604 -0.431455497304093 0 0.902134221635604 -0.431455497304093 0 0.351123441587575 0.936329177569351 0 0.351123441587575 0.936329177569351 0 0.894427190999984 -0.447213595499822 0 0.894427190999984 -0.447213595499822 0 0 -1 0 0 -1 0 0.912818251894944 -0.408366060058201 0 0.912818251894944 -0.408366060058201 0 0.419058177461384 0.907959384500619 0 0.419058177461384 0.907959384500619 0 0.866622456874119 -0.498964444867033 0 0.866622456874119 -0.498964444867033 0 -0.399266767279945 -0.916834798939167 0 -0.399266767279945 -0.916834798939167 0 -0.970142500145289 0.242535625036506 0 -0.970142500145289 0.242535625036506 0 -0.430995502195585 -0.902354075231655 0 -0.430995502195585 -0.902354075231655 0 0.707106781186548 -0.707106781186548 0 0.707106781186548 -0.707106781186548 0 -0.388700505404245 -0.92136416095835 0 -0.388700505404245 -0.92136416095835 0 -0.0483791098342386 -0.0130140646019061 0.998744259484972 0 0 1 -0.09369153056591 0.0603566363904915 0.993770080825461 -0.0691935060264861 0.0371488323386826 0.996911341584413 0 0 1 0 0 1 -0.0930141088523142 0.046491832367501 0.994578747549696 -0.0920207781454481 0.0474063217162014 0.994627979221802 0 0 1 0 0 1 -0.0699093512127018 0.035582752872987 0.996918527418865 -0.123883622566463 0.0303431715030139 0.991832717751814 0 0 1 -0.0362708851277417 0.040203825118741 0.998532961568056 0 0 1 0.0499503444890192 0.090815598068052 0.994614241921445 0.0460589959591715 0.106781700668821 0.993215101221033 0 0 1 0.0489574513275784 0.00972166377136209 0.998753551789942 0 0 1 0.0956844535466769 -0.061374472378586 0.9935178204188 0.0696003178946647 -0.0318731960518752 0.997065642333743 0 0 1 0 0 1 0.0925356181267167 -0.0436082439778256 0.994753979853851 0.0680746128000197 -0.0351416522996898 0.997061137225684 0 0 1 0 0 1 0.0924976995473919 -0.0462021029824915 0.994640408016101 0.115664712989403 -0.031881723930572 0.992776525633183 0 0 1 0.0270614474251002 -0.0439645621784174 0.99866650856816 0 0 1 -0.054556025968139 -0.0958120278870506 0.993903262567708 -0.0492656074982872 -0.105922327559744 0.993153241167822 0 0 1 -0.0818039017088524 0.0511395593198879 0.995335555045521 0.0771450385351919 -0.0507040655945514 0.995729752875542</float_array>
                    <technique_common>
                        <accessor count="218" source="#geometry0-normal-array" stride="3">
                            <param name="X" type="float"/>
                            <param name="Y" type="float"/>
                            <param name="Z" type="float"/>
                        </accessor>
                    </technique_common>
                </source>
                <source id="geometry0-texcoord">
                    <float_array id="geometry0-texcoord-array" count="436">0 0 0 0 0 0 0 0 0 0 0 0 0 0 0 0 0 0 0 0 0 0 0 0 0 0 0 0 0 0 0 0 0 0 0 0 0 0 0 0 0 0 0 0 0 0 0 0 0 0 0 0 0 0 0 0 0 0 0 0 0 0 0 0 0 0 0 0 0 0 0 0 0.0263671875 5.15624999999943E-05 0 0 0.005859375 0.2578125 0 0.25824609375 0.0302734375 0.474609375 0 0.475076953125 0.009765625 0.258084375 0.005859375 0.2578125 0.0166015625 0.720703125 0 0.720779296875 0.0146484375 0.2578125 0.009765625 0.258161328125 0.0322265625 0.720703125 0.0166015625 0.72080234375 0.0185546875 0.25808671875 0.0146484375 0.2578125 0.0478515625 0 0.0263671875 9.84374999999892E-05 0.0234375 0.2578125 0.0185546875 0.2581921875 0.0625 0.24609375 0.0302734375 0.24649375 0.0302734375 0.258305078125 0.0234375 0.2578125 0.05859375 0.49609375 0.0322265625 0.49689375 0.0869140625 0 0.0478515625 0.00263984374999999 0.0380859375 0.7461150390625 0.0322265625 0.74609375 0.1240234375 0.74609375 0.0380859375 0.7514765625 0.0634765625 0.49609375 0.05859375 0.496416015625 0.1005859375 0.212890625 0.0625 0.2133828125 0.11328125 0 0.0869140625 2.01171874999978E-05 0.0703125 0.41818671875 0.0634765625 0.41796875 0.0888671875 0.418007421875 0.0703125 0.41796875 0.09375 0.41796875 0.0888671875 0.4181814453125 0.109375 0.41796875 0.09375 0.4179888671875 0.10546875 0.2013953125 0.1005859375 0.201171875 0.119140625 0.2011908203125 0.10546875 0.201171875 0.1181640625 0 0.11328125 0.000321875000000009 0.1328125 0.000212695312499998 0.1181640625 0 0.115234375 0.391 0.109375 0.390625 0.1376953125 0.39093125 0.115234375 0.390625 0.126953125 0.193359375 0.119140625 0.1938041015625 0.1474609375 0.193914453125 0.126953125 0.193359375 0.16796875 0.00137304687499999 0.1328125 0 0.1328125 0.58203125 0.1240234375 0.58208203125 0.2080078125 0.58625 0.1328125 0.58203125 0.1123046875 0.5781400390625 0.109375 0.578125 0.173828125 0.3877046875 0.1376953125 0.384765625 0.0263671875 0.2578125 0 0.2578125 0.005859375 0.474609375 0 0.474609375 0.0302734375 0.720703125 0 0.720703125 0.009765625 0.427734375 0.005859375 0.427734375 0.0166015625 0.974609375 0 0.974609375 0.0146484375 0.44140625 0.009765625 0.44140625 0.0322265625 0.96875 0.0166015625 0.96875 0.0185546875 0.41015625 0.0146484375 0.41015625 0.0478515625 0.24609375 0.0263671875 0.24609375 0.0234375 0.416015625 0.0185546875 0.416015625 0.0625 0.49609375 0.0302734375 0.49609375 0.0302734375 0.447265625 0.0234375 0.447265625 0.05859375 0.74609375 0.0322265625 0.74609375 0.0869140625 0.212890625 0.0478515625 0.212890625 0.0380859375 0.958984375 0.0322265625 0.958984375 0.1240234375 0.953125 0.0380859375 0.953125 0.0634765625 0.7109375 0.05859375 0.7109375 0.1005859375 0.41796875 0.0625 0.41796875 0.11328125 0.201171875 0.0869140625 0.201171875 0.0703125 0.599609375 0.0634765625 0.599609375 0.0888671875 0.611328125 0.0703125 0.611328125 0.09375 0.611328125 0.0888671875 0.611328125 0.109375 0.619140625 0.09375 0.619140625 0.10546875 0.373046875 0.1005859375 0.373046875 0.119140625 0.390625 0.10546875 0.390625 0.1181640625 0.201171875 0.11328125 0.201171875 0.1328125 0.193359375 0.1181640625 0.193359375 0.115234375 0.578125 0.109375 0.578125 0.1376953125 0.58203125 0.115234375 0.58203125 0.126953125 0.38671875 0.119140625 0.38671875 0.1474609375 0.384765625 0.126953125 0.384765625 0.16796875 0.185546875 0.1328125 0.185546875 0.1328125 0.8359375 0.1240234375 0.8359375 0.2080078125 0.76953125 0.1328125 0.76953125 0.1123046875 0.728515625 0.109375 0.728515625 0.173828125 0.578125 0.1376953125 0.578125 0.208497417005582 0.243860807663466 0.223185552168184 0.312416054798136 0.232977642276584 0.310457333451442 0.254520240515065 0.388806187319635 0.246686568428351 0.394682351359753 0.256478658536752 0.437774220987256 0.265291539634309 0.429939335600426 0.27508362974271 0.471072483881235 0.267249957655988 0.480866090614759 0.280958883807754 0.537669009669193 0.289771764905312 0.523957960242262 0.309355945122114 0.608182978150574 0.296626227981191 0.614059142190692 0.31327278116547 0.682614389325361 0.373885818936477 0.629728912964334 0.372906609925634 0.610141699497286 0.50607903539989 0.478907369268047 0.509995871443247 0.492618418694995 0.568748412093652 0.441691663680662 0.550143440887694 0.359425367119063 0.537413723746771 0.365301531159181 0.523704797595013 0.304581169411324 0.531538469681727 0.296746284024511 0.520767170562491 0.24777825035689 0.51097508045409 0.249736971703585 0.500203781334846 0.20468638072937 0.508037453421568 0.198810216689269 0.496286945291489 0.151800904368342 0.485515646172244 0.151800904368342 0.468869092987965 0.077369493193555 0.481598810128888 0.0656171651133366 0.46299383892292 0.000979360672073342 0.402282880250836 0.0538648370331005 0.405220507283358 0.077369493193555 0.276062838753554 0.200768938035963 0.271166793699353 0.190975331302439 0.371052377321416 0.359360098045603 0.402564279347639 0.322647064096075</float_array>
                    <technique_common>
                        <accessor count="218" source="#geometry0-texcoord-array" stride="2">
                            <param name="S" type="float"/>
                            <param name="T" type="float"/>
                        </accessor>
                    </technique_common>
                </source>
                <vertices id="geometry0-vertex">
                    <input semantic="POSITION" source="#geometry0-position"/>
                    <input semantic="NORMAL" source="#geometry0-normal"/>
                </vertices>
                <triangles count="144" material="material0-symbol">
                    <input offset="0" semantic="VERTEX" source="#geometry0-vertex" set="0"/>
                    <input offset="0" semantic="TEXCOORD" source="#geometry0-texcoord" set="0"/>
                    <p>29 31 32 31 29 30 33 34 25 33 29 32 33 28 29 25 28 33 27 28 25 27 25 26 6 25 34 7 24 25 35 2 34 23 24 21 15 16 24 23 21 22 16 21 24 2 35 0 1 2 0 19 20 18 20 21 16 3 34 2 4 5 3 3 5 6 6 34 3 7 25 6 16 18 20 8 10 7 17 18 16 10 8 9 7 15 24 13 11 12 11 15 10 15 11 14 15 7 10 13 14 11 36 109 37 36 108 109 38 111 39 38 110 111 40 113 41 40 112 113 42 115 43 42 114 115 44 117 45 44 116 117 46 119 47 46 118 119 48 121 49 48 120 121 50 123 51 50 122 123 52 125 53 52 124 125 54 127 55 54 126 127 56 129 57 56 128 129 58 131 59 58 130 131 60 133 61 60 132 133 62 135 63 62 134 135 64 137 65 64 136 137 66 139 67 66 138 139 68 141 69 68 140 141 70 143 71 70 142 143 72 145 73 72 144 145 74 147 75 74 146 147 76 149 77 76 148 149 78 151 79 78 150 151 80 153 81 80 152 153 82 155 83 82 154 155 84 157 85 84 156 157 86 159 87 86 158 159 88 161 89 88 160 161 90 163 91 90 162 163 92 165 93 92 164 165 94 167 95 94 166 167 96 169 97 96 168 169 98 171 99 98 170 171 100 173 101 100 172 173 102 175 103 102 174 175 104 177 105 104 176 177 106 179 107 106 178 179 217 211 209 211 210 209 213 217 214 217 213 211 209 208 217 217 208 205 207 205 208 207 206 205 183 182 216 217 205 204 216 180 214 203 201 204 201 217 204 203 202 201 201 200 217 215 214 180 181 180 182 217 216 214 211 213 212 195 194 193 216 217 196 199 198 200 217 200 198 216 182 180 184 183 185 183 186 185 186 183 216 187 186 216 217 198 196 188 187 190 197 196 198 190 189 188 190 187 216 193 192 191 190 216 191 195 193 216 195 216 196 191 216 193</p>
                </triangles>
            </mesh>
        </geometry>
    </library_geometries>
    <library_visual_scenes>
        <visual_scene id="visual-scene">
            <node>
                <instance_geometry url="#geometry0">
                    <bind_material>
                        <technique_common>
                            <instance_material symbol="material0-symbol" target="#material0"/>
                        </technique_common>
                    </bind_material>
                </instance_geometry>
            </node>
        </visual_scene>
    </library_visual_scenes>
    <scene>
        <instance_visual_scene url="#visual-scene"/>
    </scene>
</COLLADA>
