<?xml version="1.0"?>
<COLLADA xmlns="http://www.collada.org/2005/11/COLLADASchema" version="1.4.1">
    <asset>
        <up_axis>Z_UP</up_axis>
    </asset>
    <library_materials>
        <material id="material0">
            <instance_effect url="#effect0"/>
        </material>
    </library_materials>
    <library_effects>
        <effect id="effect0">
            <profile_COMMON>
                <newparam sid="image0-surface">
                    <surface type="2D">
                        <init_from>image0</init_from>
                    </surface>
                </newparam>
                <newparam sid="image0-sampler">
                    <sampler2D>
                        <source>image0-surface</source>
                    </sampler2D>
                </newparam>
                <technique sid="technique-phong">
                    <phong>
                        <emission>
                            <color>1 1 1 1</color>
                        </emission>
                        <ambient>
                            <color>1 1 1 1</color>
                        </ambient>
                        <diffuse>
                            <texture texture="image0-sampler" texcoord="TEXCOORD"/>
                        </diffuse>
                        <specular>
                            <color>1 1 1 1</color>
                        </specular>
                        <shininess>
                            <float>0</float>
                        </shininess>
                    </phong>
                </technique>
                <extra>
                    <technique profile="GOOGLEEARTH">
                        <double_sided>0</double_sided>
                    </technique>
                </extra>
            </profile_COMMON>
        </effect>
    </library_effects>
    <library_images>
        <image id="image0" height="0" width="0">
            <init_from>7968.png</init_from>
        </image>
    </library_images>
    <library_geometries>
        <geometry id="geometry0">
            <mesh>
                <source id="geometry0-position">
                    <float_array id="geometry0-position-array" count="633">-12.1000000000004 38.6500000000001 -1.51176471711187 29.6999999999998 15.25 0.0356882095293258 26.8000000000002 9.34999999999991 0.0282886505119677 28.6000000000004 8.45000000000027 0.0768405914241157 24.1000000000004 0.550000000000182 0.0723093032829638 16.8999999999996 4.45000000000027 0.110818290717361 18.3000000000002 7.84999999999991 0.0432195663452148 5.5 14.75 -0.158064842220483 0.5 5.05000000000018 -0.00496349334935076 18.3999999999996 -5.04999999999973 0.112673950194221 15.5 -11.0499999999997 0.107595062256223 16.8999999999996 -11.6500000000001 0.142459869381128 13.1000000000004 -19.8499999999999 0.0335443496678636 5.39999999999964 -15.8499999999999 0.184960556029182 6.89999999999964 -13.0499999999997 0.109370613097781 -6 -5.54999999999973 0.0315168380766409 -10.3999999999996 -14.1500000000001 0.00568904876672605 7.89999999999964 -24.5499999999997 0.0797918319694872 4.80000000000018 -30.4499999999998 0.0601524353041896 6.5 -31.4499999999998 0.0940912246660446 2.19999999999982 -38.6500000000001 0.219113731383914 -5.30000000000018 -34.75 0.255313301086062 -3.69999999999982 -31.5499999999997 0.155255317687988 -17.5 -24.5499999999997 -0.0113189697258349 -19.6999999999998 -27.6500000000001 0.00352745057170978 -23.6000000000004 -25.4499999999998 -0.144982337949841 -23.3999999999996 -24.5499999999997 -0.16666145324416 -29.6999999999998 -20.8499999999999 -0.306692504878811 -6.19999999999982 21.25 -0.594658470150534 -12.3000000000002 24.8499999999999 -1.02509126662699 -13.8999999999996 21.8499999999999 -0.846015548699143 -21.6000000000004 25.8499999999999 -1.52979297637285 -17.6999999999998 33.8499999999999 -1.59700832367344 -15.3999999999996 32.8499999999999 -1.52895135879407 -12.1000000000004 38.6500000000001 -1.51176471711187 29.6999999999998 15.25 0.0356882095293258 29.6999999999998 15.25 0.0356882095293258 26.8000000000002 9.34999999999991 0.0282886505119677 26.8000000000002 9.34999999999991 0.0282886505119677 28.6000000000004 8.45000000000027 0.0768405914241157 28.6000000000004 8.45000000000027 0.0768405914241157 24.1000000000004 0.550000000000182 0.0723093032829638 24.1000000000004 0.550000000000182 0.0723093032829638 16.8999999999996 4.45000000000027 0.110818290717361 16.8999999999996 4.45000000000027 0.110818290717361 18.3000000000002 7.84999999999991 0.0432195663452148 18.3000000000002 7.84999999999991 0.0432195663452148 5.5 14.75 -0.158064842220483 5.5 14.75 -0.158064842220483 0.5 5.05000000000018 -0.00496349334935076 0.5 5.05000000000018 -0.00496349334935076 18.3999999999996 -5.04999999999973 0.112673950194221 18.3999999999996 -5.04999999999973 0.112673950194221 15.5 -11.0499999999997 0.107595062256223 15.5 -11.0499999999997 0.107595062256223 16.8999999999996 -11.6500000000001 0.142459869381128 16.8999999999996 -11.6500000000001 0.142459869381128 13.1000000000004 -19.8499999999999 0.0335443496678636 13.1000000000004 -19.8499999999999 0.0335443496678636 5.39999999999964 -15.8499999999999 0.184960556029182 5.39999999999964 -15.8499999999999 0.184960556029182 6.89999999999964 -13.0499999999997 0.109370613097781 6.89999999999964 -13.0499999999997 0.109370613097781 -6 -5.54999999999973 0.0315168380766409 -6 -5.54999999999973 0.0315168380766409 -10.3999999999996 -14.1500000000001 0.00568904876672605 -10.3999999999996 -14.1500000000001 0.00568904876672605 7.89999999999964 -24.5499999999997 0.0797918319694872 7.89999999999964 -24.5499999999997 0.0797918319694872 4.80000000000018 -30.4499999999998 0.0601524353041896 4.80000000000018 -30.4499999999998 0.0601524353041896 6.5 -31.4499999999998 0.0940912246660446 6.5 -31.4499999999998 0.0940912246660446 2.19999999999982 -38.6500000000001 0.219113731383914 2.19999999999982 -38.6500000000001 0.219113731383914 -5.30000000000018 -34.75 0.255313301086062 -5.30000000000018 -34.75 0.255313301086062 -3.69999999999982 -31.5499999999997 0.155255317687988 -3.69999999999982 -31.5499999999997 0.155255317687988 -17.5 -24.5499999999997 -0.0113189697258349 -17.5 -24.5499999999997 -0.0113189697258349 -19.6999999999998 -27.6500000000001 0.00352745057170978 -19.6999999999998 -27.6500000000001 0.00352745057170978 -23.6000000000004 -25.4499999999998 -0.144982337949841 -23.6000000000004 -25.4499999999998 -0.144982337949841 -23.3999999999996 -24.5499999999997 -0.16666145324416 -23.3999999999996 -24.5499999999997 -0.16666145324416 -29.6999999999998 -20.8499999999999 -0.306692504878811 -29.6999999999998 -20.8499999999999 -0.306692504878811 -6.19999999999982 21.25 -0.594658470150534 -6.19999999999982 21.25 -0.594658470150534 -12.3000000000002 24.8499999999999 -1.02509126662699 -12.3000000000002 24.8499999999999 -1.02509126662699 -13.8999999999996 21.8499999999999 -0.846015548699143 -13.8999999999996 21.8499999999999 -0.846015548699143 -21.6000000000004 25.8499999999999 -1.52979297637285 -21.6000000000004 25.8499999999999 -1.52979297637285 -17.6999999999998 33.8499999999999 -1.59700832367344 -17.6999999999998 33.8499999999999 -1.59700832367344 -15.3999999999996 32.8499999999999 -1.52895135879407 -15.3999999999996 32.8499999999999 -1.52895135879407 -12.1000000000004 38.6500000000001 -1.51176471711187 -12.1000000000004 38.6500000000001 11.6860034637433 29.6999999999998 15.25 11.6860034637433 29.6999999999998 15.25 11.6860034637433 26.8000000000002 9.34999999999991 11.6860034637433 26.8000000000002 9.34999999999991 11.6860034637433 28.6000000000004 8.45000000000027 11.6860034637433 28.6000000000004 8.45000000000027 11.6860034637433 24.1000000000004 0.550000000000182 11.6860034637433 24.1000000000004 0.550000000000182 11.6860034637433 16.8999999999996 4.45000000000027 11.6860034637433 16.8999999999996 4.45000000000027 11.6860034637433 18.3000000000002 7.84999999999991 11.6860034637433 18.3000000000002 7.84999999999991 11.6860034637433 5.5 14.75 11.6860034637433 5.5 14.75 11.6860034637433 0.5 5.05000000000018 11.6860034637433 0.5 5.05000000000018 11.6860034637433 18.3999999999996 -5.04999999999973 11.6860034637433 18.3999999999996 -5.04999999999973 11.6860034637433 15.5 -11.0499999999997 11.6860034637433 15.5 -11.0499999999997 11.6860034637433 16.8999999999996 -11.6500000000001 11.6860034637433 16.8999999999996 -11.6500000000001 11.6860034637433 13.1000000000004 -19.8499999999999 11.6860034637433 13.1000000000004 -19.8499999999999 11.6860034637433 5.39999999999964 -15.8499999999999 11.6860034637433 5.39999999999964 -15.8499999999999 11.6860034637433 6.89999999999964 -13.0499999999997 11.6860034637433 6.89999999999964 -13.0499999999997 11.6860034637433 -6 -5.54999999999973 11.6860034637433 -6 -5.54999999999973 11.6860034637433 -10.3999999999996 -14.1500000000001 11.6860034637433 -10.3999999999996 -14.1500000000001 11.6860034637433 7.89999999999964 -24.5499999999997 11.6860034637433 7.89999999999964 -24.5499999999997 11.6860034637433 4.80000000000018 -30.4499999999998 11.6860034637433 4.80000000000018 -30.4499999999998 11.6860034637433 6.5 -31.4499999999998 11.6860034637433 6.5 -31.4499999999998 11.6860034637433 2.19999999999982 -38.6500000000001 11.6860034637433 2.19999999999982 -38.6500000000001 11.6860034637433 -5.30000000000018 -34.75 11.6860034637433 -5.30000000000018 -34.75 11.6860034637433 -3.69999999999982 -31.5499999999997 11.6860034637433 -3.69999999999982 -31.5499999999997 11.6860034637433 -17.5 -24.5499999999997 11.6860034637433 -17.5 -24.5499999999997 11.6860034637433 -19.6999999999998 -27.6500000000001 11.6860034637433 -19.6999999999998 -27.6500000000001 11.6860034637433 -23.6000000000004 -25.4499999999998 11.6860034637433 -23.6000000000004 -25.4499999999998 11.6860034637433 -23.3999999999996 -24.5499999999997 11.6860034637433 -23.3999999999996 -24.5499999999997 11.6860034637433 -29.6999999999998 -20.8499999999999 11.6860034637433 -29.6999999999998 -20.8499999999999 11.6860034637433 -6.19999999999982 21.25 11.6860034637433 -6.19999999999982 21.25 11.6860034637433 -12.3000000000002 24.8499999999999 11.6860034637433 -12.3000000000002 24.8499999999999 11.6860034637433 -13.8999999999996 21.8499999999999 11.6860034637433 -13.8999999999996 21.8499999999999 11.6860034637433 -21.6000000000004 25.8499999999999 11.6860034637433 -21.6000000000004 25.8499999999999 11.6860034637433 -17.6999999999998 33.8499999999999 11.6860034637433 -17.6999999999998 33.8499999999999 11.6860034637433 -15.3999999999996 32.8499999999999 11.6860034637433 -15.3999999999996 32.8499999999999 11.6860034637433 -12.1000000000004 38.6500000000001 11.6860034637433 -12.1000000000004 38.6500000000001 11.6860034637433 29.6999999999998 15.25 11.6860034637433 26.8000000000002 9.34999999999991 11.6860034637433 28.6000000000004 8.45000000000027 11.6860034637433 24.1000000000004 0.550000000000182 11.6860034637433 16.8999999999996 4.45000000000027 11.6860034637433 18.3000000000002 7.84999999999991 11.6860034637433 5.5 14.75 11.6860034637433 0.5 5.05000000000018 11.6860034637433 18.3999999999996 -5.04999999999973 11.6860034637433 15.5 -11.0499999999997 11.6860034637433 16.8999999999996 -11.6500000000001 11.6860034637433 13.1000000000004 -19.8499999999999 11.6860034637433 5.39999999999964 -15.8499999999999 11.6860034637433 6.89999999999964 -13.0499999999997 11.6860034637433 -6 -5.54999999999973 11.6860034637433 -10.3999999999996 -14.1500000000001 11.6860034637433 7.89999999999964 -24.5499999999997 11.6860034637433 4.80000000000018 -30.4499999999998 11.6860034637433 6.5 -31.4499999999998 11.6860034637433 2.19999999999982 -38.6500000000001 11.6860034637433 -5.30000000000018 -34.75 11.6860034637433 -3.69999999999982 -31.5499999999997 11.6860034637433 -17.5 -24.5499999999997 11.6860034637433 -19.6999999999998 -27.6500000000001 11.6860034637433 -23.6000000000004 -25.4499999999998 11.6860034637433 -23.3999999999996 -24.5499999999997 11.6860034637433 -29.6999999999998 -20.8499999999999 11.6860034637433 -6.19999999999982 21.25 11.6860034637433 -12.3000000000002 24.8499999999999 11.6860034637433 -13.8999999999996 21.8499999999999 11.6860034637433 -21.6000000000004 25.8499999999999 11.6860034637433 -17.6999999999998 33.8499999999999 11.6860034637433 -15.3999999999996 32.8499999999999 11.6860034637433 -0.669080871003644 -26.2796312519044 12.7774155008319 0.499588210277579 -32.6644700297875 11.9457650185983 -19.336953125 -15.7276464843749 12.7117214202863 -20.9824609375 -18.8150488281249 12.7117214202863 2.32613454052444 23.6149203280647 12.7800799018229 -10.0016957790976 30.7652583745512 12.6677054703409 21.3650916072493 13.2407840631518 12.8035596832057</float_array>
                    <technique_common>
                        <accessor count="211" source="#geometry0-position-array" stride="3">
                            <param name="X" type="float"/>
                            <param name="Y" type="float"/>
                            <param name="Z" type="float"/>
                        </accessor>
                    </technique_common>
                </source>
                <source id="geometry0-normal">
                    <float_array id="geometry0-normal-array" count="633">0.0342343172141364 -0.0428346516337094 -0.998495470267292 0.00505188741413055 -0.020468401959419 -0.999777736776921 0.00604093340447246 -0.00463667097105627 -0.999971003782564 0.0212110346652064 -0.011508821198364 -0.999708777116144 0.00237065683253108 -0.0102279271028691 -0.999944883227751 -0.0131760225945814 -0.0144527539989477 -0.999808736874425 -0.00199395731712246 -0.0076608825354494 -0.99996866701562 0.0123471210729446 -0.0350554022650181 -0.999309095011773 0.0152479199583875 -0.0151435391844351 -0.99976906041241 0.00165144399665614 -0.00196103496517716 -0.999996713531895 0.00758522309723855 0.00385474405429157 -0.999963802014273 0.0255178767140464 0.00145268373665991 -0.999673310475962 -0.00104525242899969 -0.000791999219913214 -0.999999140091928 -0.0263429930408426 -0.0128724842075255 -0.999570080518608 -0.00447559580257454 -0.00260327516119742 -0.999986595910489 0.0206649468980792 -0.0144813132703294 -0.999681575070615 0.0143336907450298 -0.00862549899766299 -0.999860063247186 -0.00676802810643808 0.000435339404999477 -0.99997700187312 -0.00476795687625917 -0.00943534891701536 -0.999944118827667 0.00721315929745611 -0.0216675676395137 -0.999739209416904 -0.00618856993076586 -0.0203583228030411 -0.999773594517708 -0.0167282181544105 -0.0228914407480424 -0.999597993524325 -0.00594696547469844 -0.00868879051974527 -0.999944567724105 0.0207382145649566 -0.014899982127908 -0.999673905325755 0.0240310791948274 -0.026182709755451 -0.999368286940602 0.0217489857728103 -0.028905248777858 -0.999345519933393 0.0232021900000913 -0.0187909590527121 -0.999554179740688 0.0220107850222069 -0.0120042599788018 -0.999685662138388 0.0285173864909856 -0.0317335012133067 -0.999089457240176 0.0531326548204634 -0.0498123333105913 -0.997344299849297 0.0450512718969329 -0.0834502234665882 -0.995493065321826 0.0386490971381298 -0.0486741298724729 -0.998066669301989 0.0213922220193534 -0.018827214392249 -0.999593871947654 0.0465396814480405 -0.0328963581900401 -0.99837462290893 0.48847623187755 0.872577200533402 0 0.48847623187755 0.872577200533402 0 0.897448694974317 -0.44111885007206 0 0.897448694974317 -0.44111885007206 0 0.447213595499777 0.894427191000006 0 0.447213595499777 0.894427191000006 0 0.868919194272227 -0.494953971420883 0 0.868919194272227 -0.494953971420883 0 -0.476283148540724 -0.87929196653679 0 -0.476283148540724 -0.87929196653679 0 -0.924678098474649 0.380749805254456 0 -0.924678098474649 0.380749805254456 0 -0.47450986523092 -0.8802501847762 0 -0.47450986523092 -0.8802501847762 0 0.88886148155655 -0.458176021420911 0 0.88886148155655 -0.458176021420911 0 0.491415824742308 0.870925075533388 0 0.491415824742308 0.870925075533388 0 0.900348952841965 -0.435168660540229 0 0.900348952841965 -0.435168660540229 0 0.393919298579456 0.919145030017934 0 0.393919298579456 0.919145030017934 0 0.907310606533808 -0.420461012783889 0 0.907310606533808 -0.420461012783889 0 -0.460989828227567 -0.88740541933815 0 -0.460989828227567 -0.88740541933815 0 -0.881479970028795 0.472221412515395 0 -0.881479970028795 0.472221412515395 0 -0.502620457374541 -0.864507186684187 0 -0.502620457374541 -0.864507186684187 0 0.890248162977362 -0.455475804313942 0 0.890248162977362 -0.455475804313942 0 0.494091029217207 0.869410176411043 0 0.494091029217207 0.869410176411043 0 0.885243475438259 -0.465127927772556 0 0.885243475438259 -0.465127927772556 0 0.507020126563434 0.861934215157746 0 0.507020126563434 0.861934215157746 0 0.858543269066821 -0.51274111902602 0 0.858543269066821 -0.51274111902602 0 -0.461352736641998 -0.887216801234591 0 -0.461352736641998 -0.887216801234591 0 -0.89442719099989 0.447213595500009 0 -0.89442719099989 0.447213595500009 0 -0.452376137444676 -0.891827242390944 0 -0.452376137444676 -0.891827242390944 0 0.815507144735272 -0.578747005941045 0 0.815507144735272 -0.578747005941045 0 -0.491321186931903 -0.870978467742932 0 -0.491321186931903 -0.870978467742932 0 -0.97618706018379 0.216930457819387 0 -0.97618706018379 0.216930457819387 0 -0.506421854575834 -0.862285860494055 0 -0.506421854575834 -0.862285860494055 0 -0.873177174510074 0.487402935890423 0 -0.873177174510074 0.487402935890423 0 -0.508253584541114 -0.861207462694738 0 -0.508253584541114 -0.861207462694738 0 0.882352941176537 -0.470588235293993 0 0.882352941176537 -0.470588235293993 0 -0.460989828227567 -0.88740541933815 0 -0.460989828227567 -0.88740541933815 0 -0.898876404494358 0.438202247191061 0 -0.898876404494358 0.438202247191061 0 0.398726111414423 0.917070056253247 0 0.398726111414423 0.917070056253247 0 -0.869163832024097 0.494524249254965 0 -0.869163832024097 0.494524249254965 0 0.48847623187755 0.872577200533402 0 0.48847623187755 0.872577200533402 0 0.897448694974317 -0.44111885007206 0 0.897448694974317 -0.44111885007206 0 0.447213595499777 0.894427191000006 0 0.447213595499777 0.894427191000006 0 0.868919194272227 -0.494953971420883 0 0.868919194272227 -0.494953971420883 0 -0.476283148540724 -0.87929196653679 0 -0.476283148540724 -0.87929196653679 0 -0.924678098474649 0.380749805254457 0 -0.924678098474649 0.380749805254456 0 -0.47450986523092 -0.8802501847762 0 -0.47450986523092 -0.8802501847762 0 0.88886148155655 -0.458176021420911 0 0.88886148155655 -0.458176021420911 0 0.491415824742308 0.870925075533388 0 0.491415824742308 0.870925075533388 0 0.900348952841965 -0.435168660540229 0 0.900348952841965 -0.435168660540229 0 0.393919298579456 0.919145030017934 0 0.393919298579456 0.919145030017934 0 0.907310606533808 -0.420461012783889 0 0.907310606533808 -0.420461012783889 0 -0.460989828227567 -0.88740541933815 0 -0.460989828227567 -0.88740541933815 0 -0.881479970028795 0.472221412515395 0 -0.881479970028795 0.472221412515395 0 -0.502620457374541 -0.864507186684187 0 -0.502620457374541 -0.864507186684187 0 0.890248162977362 -0.455475804313942 0 0.890248162977362 -0.455475804313942 0 0.494091029217207 0.869410176411043 0 0.494091029217207 0.869410176411043 0 0.885243475438259 -0.465127927772556 0 0.885243475438259 -0.465127927772556 0 0.507020126563434 0.861934215157746 0 0.507020126563434 0.861934215157746 0 0.858543269066821 -0.512741119026021 0 0.858543269066821 -0.51274111902602 0 -0.461352736641998 -0.887216801234591 0 -0.461352736641998 -0.887216801234591 0 -0.89442719099989 0.447213595500009 0 -0.89442719099989 0.447213595500009 0 -0.452376137444676 -0.891827242390944 0 -0.452376137444676 -0.891827242390944 0 0.815507144735272 -0.578747005941045 0 0.815507144735272 -0.578747005941045 0 -0.491321186931903 -0.870978467742932 0 -0.491321186931903 -0.870978467742932 0 -0.97618706018379 0.216930457819387 0 -0.97618706018379 0.216930457819387 0 -0.506421854575834 -0.862285860494055 0 -0.506421854575834 -0.862285860494055 0 -0.873177174510074 0.487402935890423 0 -0.873177174510074 0.487402935890423 0 -0.508253584541114 -0.861207462694738 0 -0.508253584541114 -0.861207462694738 0 0.882352941176537 -0.470588235293993 0 0.882352941176537 -0.470588235293993 0 -0.460989828227567 -0.88740541933815 0 -0.460989828227567 -0.88740541933815 0 -0.898876404494358 0.438202247191061 0 -0.898876404494358 0.438202247191061 0 0.398726111414423 0.917070056253247 0 0.398726111414423 0.917070056253247 0 -0.869163832024097 0.494524249254965 0 -0.869163832024097 0.494524249254965 0 0.00446742100363283 0.127739333900258 0.991797713611145 0.109874036521422 0.0838818974086133 0.990399678607389 0.105681156089899 -0.0416886808458046 0.993525816039442 0 0 1 0.00421565949716428 -0.0427091491348295 0.999078653958327 0 0 1 -0.078147109177611 -0.0919714140984185 0.992690429245654 -0.00953806281911686 -0.127350708536655 0.991811888612387 0.0634174434192025 -0.0354690968803876 0.99735659171465 0 0 1 0 0 1 0 0 1 0 0 1 0 0 1 0 0 1 0.0931077616324107 -0.0522558143435216 0.994283799823319 0.101407183122208 0.0856440501112652 0.991151693683544 0.117355483740744 0.0446036893620723 0.992087799204923 0.096291301108358 -0.0424286778851189 0.994448486661718 0.0406902833987002 0.0126533818319433 0.999091683863472 0.0113722710483413 -0.0401297724350363 0.999129757746968 -0.0405058125573944 -0.0118019068225802 0.999109600666722 -0.0783914342424387 -0.0926790730696413 0.992605345770597 0.0329240383437852 -0.117345240457777 0.992545264580434 0.00833395531893497 -0.0755993518432286 0.997103446583967 0 0 1 -0.0642653310417823 -0.0908447600841236 0.993789312073413 -0.117621835379872 0.00159813566181072 0.99305717348211 -0.113453264687076 -0.0289238962401707 0.993122230623266 -0.0319712996577346 -0.0971819606749322 0.994752985679144 0 0 1 -0.0378043760415205 -0.0098630209441182 0.999236483506265 0 0 1 -0.0937527375559114 0.0674691213647604 0.993306771276145 0.0254735936271695 -0.043061082753006 0.998747635381359 0.00262441503462399 -0.0422653919395844 0.999102972215537 0.000476253007196781 0.003906335173361 0.999992256834315 -0.00740495189574929 -0.0764744063881353 0.997044047098725 0.0356205058402329 0.00461658268744622 0.999354725174187 -0.0658814382050838 -0.0140995450177078 0.997727838105324 0.0151436877296009 -0.064574200162886 0.997797996287461</float_array>
                    <technique_common>
                        <accessor count="211" source="#geometry0-normal-array" stride="3">
                            <param name="X" type="float"/>
                            <param name="Y" type="float"/>
                            <param name="Z" type="float"/>
                        </accessor>
                    </technique_common>
                </source>
                <source id="geometry0-texcoord">
                    <float_array id="geometry0-texcoord-array" count="422">0 0 0 0 0 0 0 0 0 0 0 0 0 0 0 0 0 0 0 0 0 0 0 0 0 0 0 0 0 0 0 0 0 0 0 0 0 0 0 0 0 0 0 0 0 0 0 0 0 0 0 0 0 0 0 0 0 0 0 0 0 0 0 0 0 0 0 0 0.2333984375 0 0 0.0075603515625 0.2626953125 3.10546875000023E-05 0.2333984375 0 0.2431640625 0.0517578125 0.2333984375 0.0519916015625 0.0400390625 0.0644734375 0 0.064453125 0.078125 0.064453125 0.0400390625 0.06463037109375 0.015625 0.115517578125 0 0.115234375 0.1455078125 0.0653994140625 0.078125 0.064453125 0.06640625 0.1181640625 0.015625 0.11886953125 0.345703125 0.0517578125 0.2431640625 0.052349609375 0.29296875 2.07031249999977E-05 0.2626953125 0 0.07421875 0.1181640625 0.06640625 0.11833984375 0.041015625 0.1733419921875 0 0.1728515625 0.185546875 0.064453125 0.1455078125 0.0651513671875 0.0537109375 0.17314990234375 0.041015625 0.1728515625 0.4130859375 0.000353320312500002 0.345703125 0 0.23046875 0.0645712890625 0.185546875 0.064453125 0.521484375 0 0.4130859375 0.000381445312499998 0.322265625 8.63281250000018E-05 0.29296875 0 0.0634765625 0.1728515625 0.0537109375 0.1730158203125 0.0361328125 0.2255859375 0 0.226123828125 0.3828125 0.052734375 0.345703125 0.05289375 0.3369140625 0.000407812500000002 0.322265625 0 0.5908203125 0.000748828124999999 0.521484375 0 0.052734375 0.2255859375 0.0361328125 0.225651953125 0.0234375 0.2761658203125 0 0.275390625 0.3408203125 8.96484375000012E-05 0.3369140625 0 0.6298828125 0.000742675781250003 0.5908203125 0 0.56640625 0.06164375 0.3828125 0.060546875 0.3779296875 0.10449228515625 0.345703125 0.1025390625 0.58203125 0.052734375 0.56640625 0.05354677734375 0.271484375 0.11353232421875 0.23046875 0.1103515625 0.3056640625 0.110610546875 0.271484375 0.1103515625 0.03515625 0.275390625 0.0234375 0.27570439453125 0.330078125 0.1103515625 0.3056640625 0.11041376953125 0.2333984375 0.064453125 0 0.064453125 0.2626953125 0.0517578125 0.2333984375 0.0517578125 0.2431640625 0.107421875 0.2333984375 0.107421875 0.0400390625 0.115234375 0 0.115234375 0.078125 0.1181640625 0.0400390625 0.1181640625 0.015625 0.1640625 0 0.1640625 0.1455078125 0.1201171875 0.078125 0.1201171875 0.06640625 0.1728515625 0.015625 0.1728515625 0.345703125 0.1103515625 0.2431640625 0.1103515625 0.29296875 0.0517578125 0.2626953125 0.0517578125 0.07421875 0.1767578125 0.06640625 0.1767578125 0.041015625 0.2255859375 0 0.2255859375 0.185546875 0.1181640625 0.1455078125 0.1181640625 0.0537109375 0.21875 0.041015625 0.21875 0.4130859375 0.052734375 0.345703125 0.052734375 0.23046875 0.1181640625 0.185546875 0.1181640625 0.521484375 0.060546875 0.4130859375 0.060546875 0.322265625 0.05078125 0.29296875 0.05078125 0.0634765625 0.2294921875 0.0537109375 0.2294921875 0.0361328125 0.275390625 0 0.275390625 0.3828125 0.1025390625 0.345703125 0.1025390625 0.3369140625 0.046875 0.322265625 0.046875 0.5908203125 0.052734375 0.521484375 0.052734375 0.052734375 0.2763671875 0.0361328125 0.2763671875 0.0234375 0.3369140625 0 0.3369140625 0.3408203125 0.0498046875 0.3369140625 0.0498046875 0.6298828125 0.0634765625 0.5908203125 0.0634765625 0.56640625 0.107421875 0.3828125 0.107421875 0.3779296875 0.16015625 0.345703125 0.16015625 0.58203125 0.1103515625 0.56640625 0.1103515625 0.271484375 0.171875 0.23046875 0.171875 0.3056640625 0.1611328125 0.271484375 0.1611328125 0.03515625 0.3369140625 0.0234375 0.3369140625 0.330078125 0.158203125 0.3056640625 0.158203125 0.550680475315267 0.866600805474282 0.959569655987538 0.637789940648703 0.931201746323676 0.580098312337979 0.948809414390904 0.571297894460076 0.904790244222837 0.494049781976226 0.834359571953923 0.532184926113823 0.848054424895104 0.565430949208134 0.722844340861489 0.632900819605421 0.673934151785859 0.53805187136576 0.849032628676612 0.439291626291473 0.82066471901275 0.380622173772094 0.834359571953923 0.374755228520152 0.797187828256451 0.294573643410336 0.721866137079973 0.333686611756589 0.736539193802662 0.361065689598967 0.610350905987539 0.434402505248191 0.567309939600988 0.350309623303744 0.746321231617788 0.248615905603491 0.715996914390903 0.190924277292767 0.732626378676615 0.181146035206204 0.690563616071571 0.110742692182946 0.617198332458126 0.148877836320544 0.632849592962331 0.180168210997549 0.49785747111359 0.248615905603491 0.476336987920314 0.218303355135141 0.438187040441317 0.239815487725583 0.44014344800435 0.248615905603491 0.378516609769054 0.284795401323773 0.608394498424516 0.696459393168082 0.548724067752244 0.731661064679708 0.533072807248047 0.702326338420019 0.457751116071569 0.741439306766272 0.495901063550566 0.819665243458777 0.518399750525358 0.809887001372214 0.662498158496761 0.231703152501881 0.673930123643222 0.169270653248065 0.479888326180226 0.334883014052512 0.463791906533265 0.304693646516702 0.691797468916777 0.719584156651333 0.571206166551776 0.789501893070641 0.87803726690404 0.61814334081402</float_array>
                    <technique_common>
                        <accessor count="211" source="#geometry0-texcoord-array" stride="2">
                            <param name="S" type="float"/>
                            <param name="T" type="float"/>
                        </accessor>
                    </technique_common>
                </source>
                <vertices id="geometry0-vertex">
                    <input semantic="POSITION" source="#geometry0-position"/>
                    <input semantic="NORMAL" source="#geometry0-normal"/>
                </vertices>
                <triangles count="146" material="material0-symbol">
                    <input offset="0" semantic="VERTEX" source="#geometry0-vertex" set="0"/>
                    <input offset="0" semantic="TEXCOORD" source="#geometry0-texcoord" set="0"/>
                    <p>22 18 20 16 17 22 22 20 21 20 18 19 17 18 22 24 26 23 26 27 16 26 24 25 23 26 16 10 12 14 15 16 27 16 22 23 9 14 8 14 12 13 12 10 11 9 10 14 28 8 15 2 4 6 27 28 15 8 14 15 6 7 1 6 4 5 4 2 3 1 2 6 1 7 0 0 7 28 28 7 8 29 31 33 31 29 30 33 31 32 29 0 28 0 29 33 34 103 35 34 102 103 36 105 37 36 104 105 38 107 39 38 106 107 40 109 41 40 108 109 42 111 43 42 110 111 44 113 45 44 112 113 46 115 47 46 114 115 48 117 49 48 116 117 50 119 51 50 118 119 52 121 53 52 120 121 54 123 55 54 122 123 56 125 57 56 124 125 58 127 59 58 126 127 60 129 61 60 128 129 62 131 63 62 130 131 64 133 65 64 132 133 66 135 67 66 134 135 68 137 69 68 136 137 70 139 71 70 138 139 72 141 73 72 140 141 74 143 75 74 142 143 76 145 77 76 144 145 78 147 79 78 146 147 80 149 81 80 148 149 82 151 83 82 150 151 84 153 85 84 152 153 86 155 87 86 154 155 88 157 89 88 156 157 90 159 91 90 158 159 92 161 93 92 160 161 94 163 95 94 162 163 96 165 97 96 164 165 98 167 99 98 166 167 100 169 101 100 168 169 205 191 190 204 192 205 205 190 189 192 204 193 192 191 205 189 188 205 187 204 188 204 187 186 204 205 188 193 207 194 196 207 197 196 195 194 193 204 206 180 184 182 207 206 197 196 194 207 178 208 185 206 207 193 186 185 206 206 204 186 179 178 184 184 183 182 182 181 180 179 184 180 206 185 208 210 174 172 197 206 198 178 185 184 176 210 177 176 175 174 174 173 172 210 172 171 171 208 210 176 174 210 206 208 198 209 198 208 178 177 208 170 208 171 208 177 210 209 201 199 201 200 199 208 170 209 209 199 198 203 202 201 201 209 203 170 203 209</p>
                </triangles>
            </mesh>
        </geometry>
    </library_geometries>
    <library_visual_scenes>
        <visual_scene id="visual-scene">
            <node>
                <instance_geometry url="#geometry0">
                    <bind_material>
                        <technique_common>
                            <instance_material symbol="material0-symbol" target="#material0"/>
                        </technique_common>
                    </bind_material>
                </instance_geometry>
            </node>
        </visual_scene>
    </library_visual_scenes>
    <scene>
        <instance_visual_scene url="#visual-scene"/>
    </scene>
</COLLADA>
