<?xml version="1.0"?>
<COLLADA xmlns="http://www.collada.org/2005/11/COLLADASchema" version="1.4.1">
    <asset>
        <up_axis>Z_UP</up_axis>
    </asset>
    <library_materials>
        <material id="material0">
            <instance_effect url="#effect0"/>
        </material>
    </library_materials>
    <library_effects>
        <effect id="effect0">
            <profile_COMMON>
                <newparam sid="image0-surface">
                    <surface type="2D">
                        <init_from>image0</init_from>
                    </surface>
                </newparam>
                <newparam sid="image0-sampler">
                    <sampler2D>
                        <source>image0-surface</source>
                    </sampler2D>
                </newparam>
                <technique sid="technique-phong">
                    <phong>
                        <emission>
                            <color>1 1 1 1</color>
                        </emission>
                        <ambient>
                            <color>1 1 1 1</color>
                        </ambient>
                        <diffuse>
                            <texture texture="image0-sampler" texcoord="TEXCOORD"/>
                        </diffuse>
                        <specular>
                            <color>1 1 1 1</color>
                        </specular>
                        <shininess>
                            <float>0</float>
                        </shininess>
                    </phong>
                </technique>
                <extra>
                    <technique profile="GOOGLEEARTH">
                        <double_sided>0</double_sided>
                    </technique>
                </extra>
            </profile_COMMON>
        </effect>
    </library_effects>
    <library_images>
        <image id="image0" height="0" width="0">
            <init_from>10393.png</init_from>
        </image>
    </library_images>
    <library_geometries>
        <geometry id="geometry0">
            <mesh>
                <source id="geometry0-position">
                    <float_array id="geometry0-position-array" count="582">-18.5050000000001 -4.75 -0.417396235463457 -16.8050000000003 -1.35000000000036 -0.504502463334575 -15.7049999999999 -1.85000000000036 -0.433782982825505 -13.4050000000007 2.44999999999982 -0.411837506293523 -14.1050000000005 2.84999999999945 -0.443148779868352 -13.0050000000001 4.94999999999982 -0.45208423137592 -12.0050000000001 4.84999999999945 -0.41614501476397 -7.80500000000029 13.3499999999995 -0.367552208897905 -8.90500000000065 14.0500000000002 -0.430125403403508 -7.30500000000029 17.25 -0.371744084368402 -0.704999999999927 14.5500000000002 0.0161765336924873 -1.10500000000047 13.75 0.00584728717512917 11.9049999999997 7.34999999999945 0.256671547889709 12.6049999999996 7.94999999999982 0.294527029984238 18.5050000000001 4.94999999999982 0.299673438074024 16.9049999999997 1.44999999999982 0.303357148171926 15.9049999999997 1.94999999999982 0.279355025291807 14.2049999999999 -1.75 0.224308943748838 14.9049999999997 -2.85000000000036 0.228606295584541 13.6049999999996 -5.25 0.182123208043777 12.6049999999996 -4.94999999999982 0.179233288765317 11.7049999999999 -6.55000000000018 0.162765192984807 12.6049999999996 -7.25 0.138877177234463 11.4049999999997 -9.65000000000055 0.214402842524578 10.1049999999996 -9.65000000000055 0.207688355447317 8.30499999999938 -13.5500000000002 0.247228312491643 9.40499999999975 -14.25 0.260121893883479 7.80499999999938 -17.25 0.287832331656318 1.39499999999953 -14.4499999999998 0.234561991692317 1.89499999999953 -13.75 0.208284449579878 -11.5050000000001 -7.25 -0.175290513037908 -12.2049999999999 -8.05000000000018 -0.161560702321367 -18.5050000000001 -4.75 -0.417396235463457 -16.8050000000003 -1.35000000000036 -0.504502463334575 -16.8050000000003 -1.35000000000036 -0.504502463334575 -15.7049999999999 -1.85000000000036 -0.433782982825505 -15.7049999999999 -1.85000000000036 -0.433782982825505 -13.4050000000007 2.44999999999982 -0.411837506293523 -13.4050000000007 2.44999999999982 -0.411837506293523 -14.1050000000005 2.84999999999945 -0.443148779868352 -14.1050000000005 2.84999999999945 -0.443148779868352 -13.0050000000001 4.94999999999982 -0.45208423137592 -13.0050000000001 4.94999999999982 -0.45208423137592 -12.0050000000001 4.84999999999945 -0.41614501476397 -12.0050000000001 4.84999999999945 -0.41614501476397 -7.80500000000029 13.3499999999995 -0.367552208897905 -7.80500000000029 13.3499999999995 -0.367552208897905 -8.90500000000065 14.0500000000002 -0.430125403403508 -8.90500000000065 14.0500000000002 -0.430125403403508 -7.30500000000029 17.25 -0.371744084368402 -7.30500000000029 17.25 -0.371744084368402 -0.704999999999927 14.5500000000002 0.0161765336924873 -0.704999999999927 14.5500000000002 0.0161765336924873 -1.10500000000047 13.75 0.00584728717512917 -1.10500000000047 13.75 0.00584728717512917 11.9049999999997 7.34999999999945 0.256671547889709 11.9049999999997 7.34999999999945 0.256671547889709 12.6049999999996 7.94999999999982 0.294527029984238 12.6049999999996 7.94999999999982 0.294527029984238 18.5050000000001 4.94999999999982 0.299673438074024 18.5050000000001 4.94999999999982 0.299673438074024 16.9049999999997 1.44999999999982 0.303357148171926 16.9049999999997 1.44999999999982 0.303357148171926 15.9049999999997 1.94999999999982 0.279355025291807 15.9049999999997 1.94999999999982 0.279355025291807 14.2049999999999 -1.75 0.224308943748838 14.2049999999999 -1.75 0.224308943748838 14.9049999999997 -2.85000000000036 0.228606295584541 14.9049999999997 -2.85000000000036 0.228606295584541 13.6049999999996 -5.25 0.182123208043777 13.6049999999996 -5.25 0.182123208043777 12.6049999999996 -4.94999999999982 0.179233288765317 12.6049999999996 -4.94999999999982 0.179233288765317 11.7049999999999 -6.55000000000018 0.162765192984807 11.7049999999999 -6.55000000000018 0.162765192984807 12.6049999999996 -7.25 0.138877177234463 12.6049999999996 -7.25 0.138877177234463 11.4049999999997 -9.65000000000055 0.214402842524578 11.4049999999997 -9.65000000000055 0.214402842524578 10.1049999999996 -9.65000000000055 0.207688355447317 10.1049999999996 -9.65000000000055 0.207688355447317 8.30499999999938 -13.5500000000002 0.247228312491643 8.30499999999938 -13.5500000000002 0.247228312491643 9.40499999999975 -14.25 0.260121893883479 9.40499999999975 -14.25 0.260121893883479 7.80499999999938 -17.25 0.287832331656318 7.80499999999938 -17.25 0.287832331656318 1.39499999999953 -14.4499999999998 0.234561991692317 1.39499999999953 -14.4499999999998 0.234561991692317 1.89499999999953 -13.75 0.208284449579878 1.89499999999953 -13.75 0.208284449579878 -11.5050000000001 -7.25 -0.175290513037908 -11.5050000000001 -7.25 -0.175290513037908 -12.2049999999999 -8.05000000000018 -0.161560702321367 -12.2049999999999 -8.05000000000018 -0.161560702321367 -18.5050000000001 -4.75 -0.417396235463457 -18.5050000000001 -4.75 17.0216537195195 -16.8050000000003 -1.35000000000036 17.0261537195195 -16.8050000000003 -1.35000000000036 17.0261537195195 -15.7049999999999 -1.85000000000036 17.2740537195195 -15.7049999999999 -1.85000000000036 17.2740537195195 -13.4050000000007 2.44999999999982 17.3073537195195 -13.4050000000007 2.44999999999982 17.3073537195195 -14.1050000000005 2.84999999999945 17.1421537195195 -14.1050000000005 2.84999999999945 17.1421537195195 -13.0050000000001 4.94999999999982 17.1541537195195 -13.0050000000001 4.94999999999982 17.1541537195195 -12.0050000000001 4.84999999999945 17.3473537195195 -12.0050000000001 4.84999999999945 17.3473537195195 -7.80500000000029 13.3499999999995 17.3493537195195 -7.80500000000029 13.3499999999995 17.3493537195195 -8.90500000000065 14.0500000000002 17.0832537195195 -8.90500000000065 14.0500000000002 17.0832537195195 -7.30500000000029 17.25 17.0874537195195 -7.30500000000029 17.25 17.0874537195195 -0.704999999999927 14.5500000000002 17.0375537195195 -0.704999999999927 14.5500000000002 17.0375537195195 -1.10500000000047 13.75 17.2240537195195 -1.10500000000047 13.75 17.2240537195195 11.9049999999997 7.34999999999945 17.2553537195195 11.9049999999997 7.34999999999945 17.2553537195195 12.6049999999996 7.94999999999982 17.0793537195195 12.6049999999996 7.94999999999982 17.0793537195195 18.5050000000001 4.94999999999982 17.1114537195195 18.5050000000001 4.94999999999982 17.1114537195195 16.9049999999997 1.44999999999982 17.1701537195195 16.9049999999997 1.44999999999982 17.1701537195195 15.9049999999997 1.94999999999982 17.4010537195195 15.9049999999997 1.94999999999982 17.4010537195195 14.2049999999999 -1.75 17.3731537195195 14.2049999999999 -1.75 17.3731537195195 14.9049999999997 -2.85000000000036 17.1421537195195 14.9049999999997 -2.85000000000036 17.1421537195195 13.6049999999996 -5.25 17.1604537195195 13.6049999999996 -5.25 17.1604537195195 12.6049999999996 -4.94999999999982 17.3729537195195 12.6049999999996 -4.94999999999982 17.3729537195195 11.7049999999999 -6.55000000000018 17.3913537195195 11.7049999999999 -6.55000000000018 17.3913537195195 12.6049999999996 -7.25 17.1603537195195 12.6049999999996 -7.25 17.1603537195195 11.4049999999997 -9.65000000000055 17.1602537195195 11.4049999999997 -9.65000000000055 17.1602537195195 10.1049999999996 -9.65000000000055 17.4003537195195 10.1049999999996 -9.65000000000055 17.4003537195195 8.30499999999938 -13.5500000000002 17.3723537195195 8.30499999999938 -13.5500000000002 17.3723537195195 9.40499999999975 -14.25 17.1044537195195 9.40499999999975 -14.25 17.1044537195195 7.80499999999938 -17.25 17.1227537195195 7.80499999999938 -17.25 17.1227537195195 1.39499999999953 -14.4499999999998 17.0673537195195 1.39499999999953 -14.4499999999998 17.0673537195195 1.89499999999953 -13.75 17.2523537195195 1.89499999999953 -13.75 17.2523537195195 -11.5050000000001 -7.25 17.2721537195195 -11.5050000000001 -7.25 17.2721537195195 -12.2049999999999 -8.05000000000018 17.0485537195195 -12.2049999999999 -8.05000000000018 17.0485537195195 -18.5050000000001 -4.75 17.0216537195195 -18.5050000000001 -4.75 17.0216537195195 -16.8050000000003 -1.35000000000036 17.0261537195195 -15.7049999999999 -1.85000000000036 17.2740537195195 -13.4050000000007 2.44999999999982 17.3073537195195 -14.1050000000005 2.84999999999945 17.1421537195195 -13.0050000000001 4.94999999999982 17.1541537195195 -12.0050000000001 4.84999999999945 17.3473537195195 -7.80500000000029 13.3499999999995 17.3493537195195 -8.90500000000065 14.0500000000002 17.0832537195195 -7.30500000000029 17.25 17.0874537195195 -0.704999999999927 14.5500000000002 17.0375537195195 -1.10500000000047 13.75 17.2240537195195 11.9049999999997 7.34999999999945 17.2553537195195 12.6049999999996 7.94999999999982 17.0793537195195 18.5050000000001 4.94999999999982 17.1114537195195 16.9049999999997 1.44999999999982 17.1701537195195 15.9049999999997 1.94999999999982 17.4010537195195 14.2049999999999 -1.75 17.3731537195195 14.9049999999997 -2.85000000000036 17.1421537195195 13.6049999999996 -5.25 17.1604537195195 12.6049999999996 -4.94999999999982 17.3729537195195 11.7049999999999 -6.55000000000018 17.3913537195195 12.6049999999996 -7.25 17.1603537195195 11.4049999999997 -9.65000000000055 17.1602537195195 10.1049999999996 -9.65000000000055 17.4003537195195 8.30499999999938 -13.5500000000002 17.3723537195195 9.40499999999975 -14.25 17.1044537195195 7.80499999999938 -17.25 17.1227537195195 1.39499999999953 -14.4499999999998 17.0673537195195 1.89499999999953 -13.75 17.2523537195195 -11.5050000000001 -7.25 17.2721537195195 -12.2049999999999 -8.05000000000018 17.0485537195195 -1.25500000000011 0.300000000000182 19.7390537195195 1.84499999999935 -1 19.7386537195195</float_array>
                    <technique_common>
                        <accessor count="194" source="#geometry0-position-array" stride="3">
                            <param name="X" type="float"/>
                            <param name="Y" type="float"/>
                            <param name="Z" type="float"/>
                        </accessor>
                    </technique_common>
                </source>
                <source id="geometry0-normal">
                    <float_array id="geometry0-normal-array" count="582">0.0338996146279145 -0.0383738528813675 -0.998688271455672 0.0428093871612989 -0.0469723808615183 -0.997978432536032 0.0316725433650654 -0.0316540662143423 -0.998996931971708 0.0338963946682097 -0.0194855036157589 -0.999235382468684 0.0325300958684006 -0.0212913339601252 -0.999243950174826 0.0331458842000241 -0.0213895005562837 -0.99922161687313 0.0314866219017547 -0.0101176889343501 -0.999452962881117 0.0549986267139474 -0.0128129742364629 -0.99840421611229 0.0518898990656573 -0.00772591089264598 -0.998622926171753 0.0537086839538705 -0.00988463758160172 -0.998507722157332 0.0531001096561904 -0.0136579183958889 -0.998495788483653 0.0482023901903931 -0.00738200542632818 -0.998810310106888 0.0209379012667425 0.010741560028037 -0.99972307324514 0.019125893590795 0.0130472311119687 -0.999731949051677 0.0110504741263239 -0.00280471349221786 -0.999935008189937 0.0191038710429053 -0.00978544431502444 -0.999769617057217 0.0183129637828435 0.00597010714178447 -0.999814479380152 0.0152371344210619 0.00694405793991434 -0.999859795068269 0.0116574471531171 0.0107403216566807 -0.999874366816443 0.00748304656905019 0.0153118233552969 -0.99985476549326 0.010938539791501 0.00880862726815768 -0.999901373352832 0.00607969556499013 -0.0118948974122175 -0.999910770377732 -0.0367051642808629 -0.0130925402351148 -0.999240369633507 -0.0157739917398276 -0.0151268124065487 -0.999761151841283 0.00709952228598328 -0.0165844396239414 -0.999837263331224 0.00576381342258332 -0.0121789729037169 -0.999909221416544 0.00436243554748665 -0.0115627394970255 -0.999923633189764 0.00154888347367854 -0.0188426840427412 -0.999821261135234 -0.00616057170349766 -0.033117632954051 -0.999432473828926 0.00636012049537318 -0.0209682736357096 -0.999759911362734 0.023677640434602 -0.0230225957551416 -0.999454515937641 0.0217751042693971 -0.0315821036744926 -0.999263936886322 -0.894427190999916 0.447213595499958 0 -0.894427190999916 0.447213595499958 0 0.413802944301071 0.910366477462656 0 0.413802944301071 0.910366477462656 0 -0.881784641934762 0.471652250337029 0 -0.881784641934762 0.471652250337029 0 -0.496138938356591 -0.868243142124598 0 -0.496138938356591 -0.868243142124598 0 -0.885831535280125 0.464006994670615 0 -0.885831535280125 0.464006994670615 0 0.0995037190213573 0.995037190209953 0 0.0995037190213573 0.995037190209953 0 -0.89652671532757 0.442989671103016 0 -0.89652671532757 0.442989671103016 0 -0.53687549219343 -0.843661487731935 0 -0.53687549219343 -0.843661487731935 0 -0.894427190999865 0.44721359550006 0 -0.894427190999865 0.44721359550006 0 0.378632845720464 0.925546956205693 0 0.378632845720464 0.925546956205693 0 0.894427190999713 -0.447213595500365 0 0.894427190999713 -0.447213595500365 0 0.441410698333312 0.897305185205624 0 0.441410698333312 0.897305185205624 0 -0.650791373456294 0.759256602365018 0 -0.650791373456294 0.759256602365018 0 0.453246676376308 0.891385130206821 0 0.453246676376308 0.891385130206821 0 0.909474475585764 -0.415759760267873 0 0.909474475585764 -0.415759760267873 0 -0.447213595499958 -0.894427190999916 0 -0.447213595499958 -0.894427190999916 0 0.908676843963322 -0.417500171550691 0 0.969501998308314 0.245083404734361 0 0.969501998308314 0.245083404734361 0 0.843661487732251 0.536875492192934 0 0.879291966536716 -0.47628314854086 0 0.879291966536716 -0.47628314854086 0 -0.287347885566505 -0.957826285221103 0 -0.287347885566505 -0.957826285221103 0 0.871575537124682 -0.490261239632324 0 0.871575537124682 -0.490261239632324 0 0.613940613514976 0.789352217376283 0 0.613940613514976 0.789352217376283 0 0.894427190999984 -0.447213595499822 0 0.894427190999984 -0.447213595499822 0 0 -1 0 0 -1 0 0.907959384500421 -0.419058177461814 0 0.907959384500421 -0.419058177461814 0 0.536875492192934 0.843661487732251 0 0.536875492192934 0.843661487732251 0 0.882352941176426 -0.470588235294201 0 0.882352941176426 -0.470588235294201 0 -0.400293792749268 -0.916386861258064 0 -0.400293792749268 -0.916386861258064 0 -0.813733471206664 0.581238193719196 0 -0.813733471206664 0.581238193719196 0 -0.436438239978727 -0.899734217802275 0 -0.436438239978727 -0.899734217802275 0 0.752576694707037 -0.658504607868336 0 0.752576694707037 -0.658504607868336 0 -0.464006994670567 -0.88583153528015 0 -0.464006994670567 -0.88583153528015 0 -0.894427190999916 0.447213595499958 0 -0.894427190999916 0.447213595499958 0 0.413802944301071 0.910366477462656 0 0.413802944301071 0.910366477462656 0 -0.881784641934762 0.471652250337029 0 -0.881784641934762 0.471652250337029 0 -0.496138938356591 -0.868243142124598 0 -0.496138938356591 -0.868243142124598 0 -0.885831535280125 0.464006994670615 0 -0.885831535280125 0.464006994670615 0 0.0995037190213573 0.995037190209953 0 0.0995037190213573 0.995037190209953 0 -0.89652671532757 0.442989671103016 0 -0.89652671532757 0.442989671103016 0 -0.53687549219343 -0.843661487731935 0 -0.53687549219343 -0.843661487731935 0 -0.894427190999865 0.44721359550006 0 -0.894427190999865 0.44721359550006 0 0.378632845720464 0.925546956205693 0 0.378632845720464 0.925546956205693 0 0.894427190999713 -0.447213595500365 0 0.894427190999713 -0.447213595500365 0 0.441410698333312 0.897305185205624 0 0.441410698333312 0.897305185205624 0 -0.650791373456294 0.759256602365018 0 -0.650791373456294 0.759256602365018 0 0.453246676376308 0.891385130206821 0 0.453246676376308 0.891385130206821 0 0.909474475585764 -0.415759760267873 0 0.909474475585764 -0.415759760267873 0 -0.447213595499958 -0.894427190999916 0 -0.447213595499958 -0.894427190999916 0 0.908676843963322 -0.417500171550691 0 0.993782630885801 -0.111337695995994 0 0.993782630885801 -0.111337695995994 0 0.843661487732251 0.536875492192934 0 0.879291966536716 -0.47628314854086 0 0.879291966536716 -0.47628314854086 0 -0.287347885566505 -0.957826285221103 0 -0.287347885566505 -0.957826285221103 0 0.871575537124682 -0.490261239632324 0 0.871575537124682 -0.490261239632324 0 0.613940613514976 0.789352217376283 0 0.613940613514976 0.789352217376283 0 0.894427190999984 -0.447213595499822 0 0.894427190999984 -0.447213595499822 0 0 -1 0 0 -1 0 0.907959384500421 -0.419058177461814 0 0.907959384500421 -0.419058177461814 0 0.536875492192934 0.843661487732251 0 0.536875492192934 0.843661487732251 0 0.882352941176426 -0.470588235294201 0 0.882352941176426 -0.470588235294201 0 -0.400293792749268 -0.916386861258064 0 -0.400293792749268 -0.916386861258064 0 -0.813733471206664 0.581238193719196 0 -0.813733471206664 0.581238193719196 0 -0.436438239978727 -0.899734217802275 0 -0.436438239978727 -0.899734217802275 0 0.752576694707037 -0.658504607868336 0 0.752576694707037 -0.658504607868336 0 -0.464006994670567 -0.88583153528015 0 -0.464006994670567 -0.88583153528015 0 -0.141968910911541 -0.0480668213608011 0.988703397899926 -0.180359465220241 0.0888832342238592 0.979576558508509 -0.180337748193895 0.0888671769359319 0.979582013636323 -0.180351688297627 0.0888775786666515 0.979578503509825 -0.180384725289583 0.0888896866461867 0.979571321798543 -0.180374983885981 0.0888882459566909 0.979573246326621 -0.18033996311119 0.0888746302398195 0.979580929686154 -0.180331423195724 0.0888921118249929 0.979580915628463 -0.180388461477125 0.0889085465282134 0.979568922189836 -0.0494070092828303 0.137981926246335 0.989201665719927 0.0836490532992702 0.18638376470132 0.97890956075518 0.0825132396467871 0.183926562091569 0.979470563641485 0.0883952268900693 0.184412871859817 0.978865760232458 0.0883012794885327 0.184133699671757 0.978926792301589 0.136927351168699 0.0607386140232146 0.988717209958673 0.190696009160368 -0.0707544810585185 0.979095927629386 0.182673303770015 -0.0729512671162153 0.980463449964294 0.18155161019684 -0.0908199487164995 0.979178609728617 0.180933423563114 -0.0905332940908609 0.979319569343321 0.180941995690524 -0.0905429548359508 0.979317092429773 0.181394775208363 -0.0907724452810335 0.979212080554978 0.181383749027332 -0.0907697227939769 0.979214375411582 0.180954928087442 -0.090518268918059 0.979316984940498 0.180915038288745 -0.090514980683446 0.979324658728073 0.181541762961373 -0.0908369540083898 0.979178858068001 0.181742249640692 -0.0907297293998921 0.979151607718929 0.180911562254831 -0.0905122806784212 0.979325550411561 0.0453055977032643 -0.142613409789726 0.988741026844187 -0.092402124919849 -0.192204319436611 0.976995059813613 -0.0891318320046955 -0.191960342378151 0.9773467877256 -0.097965535742655 -0.187219058448769 0.977420982975203 -0.101001483540808 -0.184852399129824 0.977562422998401 -0.103236098191741 0.0244982922792488 0.994355138622789 0.113974604958298 -0.0366066668000355 0.992809015556563</float_array>
                    <technique_common>
                        <accessor count="194" source="#geometry0-normal-array" stride="3">
                            <param name="X" type="float"/>
                            <param name="Y" type="float"/>
                            <param name="Z" type="float"/>
                        </accessor>
                    </technique_common>
                </source>
                <source id="geometry0-texcoord">
                    <float_array id="geometry0-texcoord-array" count="388">0 0 0 0 0 0 0 0 0 0 0 0 0 0 0 0 0 0 0 0 0 0 0 0 0 0 0 0 0 0 0 0 0 0 0 0 0 0 0 0 0 0 0 0 0 0 0 0 0 0 0 0 0 0 0 0 0 0 0 0 0 0 0 0 0.025390625 0.001162109375 0 0 0.0068359375 0.232421875 0 0.23321875 0.0322265625 0.431640625 0 0.431921875 0.0107421875 0.23273125 0.0068359375 0.232421875 0.015625 0.666130859375 0 0.666015625 0.021484375 0.666015625 0.015625 0.6664296875 0.0849609375 0.666015625 0.021484375 0.6666537109375 0.0166015625 0.2329755859375 0.0107421875 0.232421875 0.048828125 0 0.025390625 0.000754101562499993 0.0576171875 0.232421875 0.0166015625 0.23684453125 0.0537109375 0.000112500000000008 0.048828125 0 0.1357421875 0 0.0537109375 0.00280371093749999 0.0380859375 0.431640625 0.0322265625 0.43211328125 0.0751953125 0.431640625 0.0380859375 0.431696875 0.080078125 0.193359375 0.0576171875 0.1933984375 0.080078125 0.3888796875 0.0751953125 0.388671875 0.1025390625 0.193965625 0.080078125 0.193359375 0.0859375 0.3828125 0.080078125 0.382858203125 0.099609375 0.5356466796875 0.0849609375 0.53515625 0.08984375 0.71682890625 0.0849609375 0.716796875 0.099609375 0.716978515625 0.08984375 0.716796875 0.0908203125 0.383017578125 0.0859375 0.3828125 0.1142578125 0.3828125 0.099609375 0.38362890625 0.109375 0.19343125 0.1025390625 0.193359375 0.1328125 0.193359375 0.109375 0.193790625 0.1064453125 0.568359375 0.099609375 0.5685015625 0.1181640625 0.74609375 0.099609375 0.7463875 0.142578125 0.568915625 0.1064453125 0.568359375 0.123046875 0.7424775390625 0.1181640625 0.7421875 0.1904296875 0.38476953125 0.1142578125 0.380859375 0.1376953125 0.193359375 0.1328125 0.1934875 0.1708984375 0.00250937499999999 0.1357421875 0 0.025390625 0.2323521484375 0 0.232421875 0.0068359375 0.428871484375 0 0.431640625 0.0322265625 0.6655703125 0 0.666015625 0.0107421875 0.404296875 0.0068359375 0.4026984375 0.015625 0.896323046875 0 0.896484375 0.021484375 0.870790234375 0.015625 0.873046875 0.0849609375 0.9023201171875 0.021484375 0.90234375 0.0166015625 0.390625 0.0107421875 0.388251953125 0.048828125 0.228469921875 0.025390625 0.228515625 0.0576171875 0.431640625 0.0166015625 0.431062890625 0.0537109375 0.185475 0.048828125 0.1875 0.1357421875 0.193011328125 0.0537109375 0.193359375 0.0380859375 0.646484375 0.0322265625 0.64425 0.0751953125 0.618784375 0.0380859375 0.619140625 0.080078125 0.38798828125 0.0576171875 0.388671875 0.080078125 0.53510546875 0.0751953125 0.537109375 0.1025390625 0.3828125 0.080078125 0.382509375 0.0859375 0.53515625 0.080078125 0.533099609375 0.099609375 0.7165970703125 0.0849609375 0.716796875 0.08984375 0.8749671875 0.0849609375 0.876953125 0.099609375 0.8982376953125 0.08984375 0.8984375 0.0908203125 0.529296875 0.0859375 0.527333984375 0.1142578125 0.568359375 0.099609375 0.568359375 0.109375 0.37053125 0.1025390625 0.373046875 0.1328125 0.380859375 0.109375 0.380559375 0.1064453125 0.74609375 0.099609375 0.74332109375 0.1181640625 0.929485546875 0.099609375 0.9296875 0.142578125 0.7421875 0.1064453125 0.7416138671875 0.123046875 0.9334392578125 0.1181640625 0.935546875 0.1904296875 0.5583982421875 0.1142578125 0.55859375 0.1376953125 0.353515625 0.1328125 0.351465625 0.1708984375 0.171875 0.1357421875 0.1716171875 0.19091928487213 0.245825618676464 0.207565595519028 0.312423794254491 0.21833673770232 0.30262994490478 0.240858216812825 0.386857049312297 0.234003853605279 0.394692128792059 0.244774995788571 0.435826296060851 0.254566943227924 0.433867526190902 0.295693122473205 0.600362965135987 0.284921980289913 0.614074354225597 0.300589096192882 0.676754990063743 0.365215949292615 0.623868203575307 0.361299170316868 0.608198044615767 0.488692406502853 0.482836772939457 0.495546769710399 0.494589392159117 0.553319259602587 0.435826296060851 0.537652143699618 0.367269350612875 0.527860196260265 0.377063199962586 0.511213885613367 0.304588714774729 0.518068248820912 0.283042246205358 0.505338717149751 0.236031769326753 0.495546769710399 0.241908078936583 0.486734017014984 0.210567761017501 0.495546769710399 0.19685637192791 0.483796432783177 0.149845895049287 0.471066901112016 0.149845895049287 0.453441395721179 0.0734538701215489 0.464212537904471 0.0597424810319573 0.448545422001502 0.000979384933691977 0.385779038915251 0.0558249412920765 0.390675012634927 0.0695363303816681 0.259462916947601 0.19685637192791 0.252608553740055 0.181186212968369 0.359830378200969 0.344743497108547 0.390185415262958 0.319279488799296</float_array>
                    <technique_common>
                        <accessor count="194" source="#geometry0-texcoord-array" stride="2">
                            <param name="S" type="float"/>
                            <param name="T" type="float"/>
                        </accessor>
                    </technique_common>
                </source>
                <vertices id="geometry0-vertex">
                    <input semantic="POSITION" source="#geometry0-position"/>
                    <input semantic="NORMAL" source="#geometry0-normal"/>
                </vertices>
                <triangles count="128" material="material0-symbol">
                    <input offset="0" semantic="VERTEX" source="#geometry0-vertex" set="0"/>
                    <input offset="0" semantic="TEXCOORD" source="#geometry0-texcoord" set="0"/>
                    <p>29 25 27 27 25 26 29 30 21 29 27 28 24 25 29 21 24 29 23 24 21 6 21 30 23 21 22 12 21 6 19 20 18 21 12 20 31 2 30 18 20 17 0 1 2 2 31 0 17 20 12 16 17 12 16 14 15 3 30 2 4 5 3 6 30 3 5 6 3 16 13 14 13 16 12 7 11 6 10 11 9 11 12 6 8 9 7 9 11 7 32 97 33 32 96 97 34 99 35 34 98 99 36 101 37 36 100 101 38 103 39 38 102 103 40 105 41 40 104 105 42 107 43 42 106 107 44 109 45 44 108 109 46 111 47 46 110 111 48 113 49 48 112 113 50 115 51 50 114 115 52 117 53 52 116 117 54 119 55 54 118 119 56 121 57 56 120 121 58 123 59 58 122 123 60 125 61 60 124 125 62 127 63 62 126 127 64 129 65 64 128 129 66 131 67 66 130 131 68 133 69 68 132 133 70 135 71 70 134 135 72 137 73 72 136 137 74 139 75 74 138 139 76 141 77 76 140 141 78 143 79 78 142 143 80 145 81 80 144 145 82 147 83 82 146 147 84 149 85 84 148 149 86 151 87 86 150 151 88 153 89 88 152 153 90 155 91 90 154 155 92 157 93 92 156 157 94 159 95 94 158 159 187 185 193 187 186 185 189 192 190 189 188 187 193 185 184 193 184 181 183 181 184 162 192 163 183 182 181 193 181 180 179 178 180 180 177 193 160 190 192 178 177 180 160 162 161 160 191 190 193 177 176 189 193 192 187 193 189 169 192 171 193 172 171 176 174 193 176 175 174 160 192 162 164 163 165 166 163 192 165 163 166 173 172 174 193 174 172 167 166 192 170 169 171 171 192 193 168 167 169 167 192 169</p>
                </triangles>
            </mesh>
        </geometry>
    </library_geometries>
    <library_visual_scenes>
        <visual_scene id="visual-scene">
            <node>
                <instance_geometry url="#geometry0">
                    <bind_material>
                        <technique_common>
                            <instance_material symbol="material0-symbol" target="#material0"/>
                        </technique_common>
                    </bind_material>
                </instance_geometry>
            </node>
        </visual_scene>
    </library_visual_scenes>
    <scene>
        <instance_visual_scene url="#visual-scene"/>
    </scene>
</COLLADA>
